<svg xmlns="http://www.w3.org/2000/svg" width="1740" height="350"><rect id="backgroundrect" width="70%" height="70%" x="0" y="0" fill="none" stroke="none"/>
 <title>1</title>

 <g style="" class="currentLayer">
  <title>Layer 1</title>
  <path id="svg_2" fill="#6B6DFF" d="m1367.773,43.9c2.956,1.48 2.956,1.48 4.547,-1.618c2.023,-0.694 4.466,0.7 6.294,-1.155a58.9,58.9 0 0 0 6.175,1.5c3.371,0.463 5.113,3.071 7.017,5.267c1.293,1.491 2.645,2.986 3.827,4.606c1.38,1.893 3.032,3.588 4.419,5.478c1.256,1.713 2.331,3.561 3.446,5.375a3.155,3.155 0 0 1 0.662,1.647a3.927,3.927 0 0 0 1.369,3.367c1.924,1.942 1.775,4.791 2.443,7.213c0.622,2.26 0.264,4.837 0.065,7.252c-0.076,0.922 -0.2,2.889 -2.227,1.438c-0.144,-0.1 -0.852,0.653 -1.34,0.938c-0.516,0.3 -1.4,0.875 -1.577,0.715c-2.142,-1.88 -2.664,-0.536 -3.643,1.323c-1.441,2.737 -2.321,2.535 -6.188,1.844c-2.354,-0.421 -4.85,-0.5 -6.228,-2.537c-3.726,-5.524 -7.544,-11.01 -8.061,-18.068c-0.207,-2.831 -1,-5.784 -3.33,-7.818c-2.011,-1.753 -3.346,-4.26 -6.091,-5.237c-0.827,-0.294 -1.435,-1.281 -2.077,-2.009a8.061,8.061 0 0 1 -2.137,-5.459c-0.038,-2.262 1.753,-2.774 2.635,-4.062z"/>
  <path id="svg_3"  fill="#6B6DFF" d="m1431.715,150.507c-2.413,-2.413 -4.438,-4.776 -6.8,-6.735c-6.773,-5.619 -9.988,-13.569 -14.039,-20.968c-1.819,-3.325 -1.3,-7.056 -1.22,-10.652c0.013,-0.623 0.876,-1.228 1.379,-1.884c0.689,1.364 1.333,2.639 2.276,4.5l0,-6.655c1.416,-0.7 2.817,-1.085 3.773,-1.954a3.619,3.619 0 0 1 3.609,-0.592c1.265,0.318 2.346,1.374 3.619,2.182c-0.747,3.493 0.629,6.418 2.332,9.465c1.523,-0.413 3.324,0.67 4.85,-0.9a1.964,1.964 0 0 1 1.843,-0.082c3.739,2.25 8.329,3.444 10.218,8.063c0.34,0.831 0.718,1.908 1.4,2.278c1.029,0.559 0.1,2.3 1.871,2.367c1.456,0.056 0.526,1.539 0.787,2.346a22,22 0 0 1 0.941,3.007a17.59,17.59 0 0 1 0.034,2.907a29.73,29.73 0 0 0 -7.993,11.855l-8.88,1.452z"/>
  <path id="svg_4" fill="#6B6DFF" d="m1359.733,240.37 c0.8870000000000003,-1.209 1.58,-2.219 2.348,-3.169 a3.776,3.776 0 0 1 1.113,-0.8130000000000003 c1.146,-0.6420000000000003 1.965,1.172 3.247,0.3820000000000002 a8.18,8.18 0 0 1 3.326,-1.2850000000000001 c0.9500000000000003,-0.09200000000000008 2.361,1.055 2.873,0.6870000000000006 c1.139,-0.8200000000000003 1.818,-1.068 2.81,0.04200000000000002 c0.18200000000000008,0.2 0.8570000000000003,0.05000000000000003 1.278,-0.05100000000000003 c3.1,-0.7500000000000003 3.1,-0.7590000000000003 4.766,2.261 l0.781,-2.251 a25.216,25.216 0 0 1 1.179,3.278 a24.413,24.413 0 0 1 0.36800000000000016,3.74 a8.1,8.1 0 0 0 0.7190000000000003,3.818 l0.47100000000000014,-4.686 l0.5,-0.02200000000000002 a24.712,24.712 0 0 1 0.258,2.491 c0.02700000000000002,4.215 -0.17200000000000001,8.44 0.06800000000000005,12.642 a15.618,15.618 0 0 1 -2.516,10.122 c-0.784,-0.7510000000000003 -1.528,-1.8880000000000003 -2.422,-0.07300000000000002 c-0.977,1.984 -2.542,1.834 -4.566,0.925 c-0.3370000000000003,2.157 -0.48800000000000016,4.7 -4.061,3.887 l0,-5.4 l-0.7160000000000003,-0.14200000000000004 c-0.5650000000000003,1.842 -1.131,3.684 -1.713,5.581 c-1.6,-1.069 -2.9050000000000002,-2.206 -2.646,-4.455 c0.07200000000000002,-0.6300000000000003 -0.6640000000000005,-1.32 -0.9,-2.025 c-1.029,-3.064 -1.012,-3.071 -3.556,-3.144 c-0.48600000000000015,-0.014000000000000005 -0.973,0 -1.459,0 l-1.336,0 c-1.234,-1.234 -2.3440000000000003,-2.419 -3.534,-3.518 c-2.532,-2.341 -3.338,-5.438 -3.7430000000000003,-8.658 c-0.2,-1.6 0.14400000000000004,-3.2640000000000002 -0.08300000000000005,-4.852 c-0.24900000000000008,-1.7510000000000003 0.6530000000000004,-3.047 1.449,-4.279 c1.5910000000000002,-2.463 2.456,-2.534 5.697,-1.033 z" class="selected"/>
  <path id="svg_5"  fill="#6B6DFF" d="m1562,39.826c-2.079,1.411 -4.081,2.826 -6.167,4.1c-0.2,0.123 -0.928,-0.611 -1.71,-1.158a17.815,17.815 0 0 1 -1.312,2.291a28.429,28.429 0 0 1 -2.042,2.083c-1.372,1.414 -2.7,2.988 -4.725,0.841c-0.154,-0.163 -0.626,0 -0.946,-0.035c-2.28,-0.247 -4.452,0.321 -6.744,-1.513c-1.846,-1.477 -4.2,-2.5 -5.933,-4.311a24.706,24.706 0 0 1 -4.444,-5.456c-1.743,-3.316 -3.461,-6.594 -2.841,-10.486a14.592,14.592 0 0 1 1.432,-3.179l3.024,2.479c0.794,-2.632 0.63,-5.692 3.071,-8.011l3.033,2.265l0,-3.552c3.2,-0.548 6.112,-1.648 9.323,-1.455a7.085,7.085 0 0 1 4.6,1.81c1.5,1.434 3.333,2.46 4.555,4.3c1.1,1.662 2.615,3.052 3.774,4.765c1.9,2.814 2.547,6.106 3.94,9.1c0.666,1.427 0.112,3.422 0.112,5.122z"/>
  <path id="svg_6" fill="#6B6DFF" d="m1355.559,133.016l0,10.459c0.971,-2.643 0.8,-5.314 0.885,-7.97c0.033,-1.069 -0.473,-2.4 0.822,-3.037a14.647,14.647 0 0 1 4.2,-1.528c0.5,-0.073 1.442,1.1 1.725,1.874a9.071,9.071 0 0 1 0.069,2.894c0.808,-0.338 1.289,-0.728 1.72,-0.679c0.89,0.1 2.113,0.923 2.567,0.589c2.534,-1.863 5.31,-0.639 7.929,-0.784a4.526,4.526 0 0 1 3.545,1.686c1.4,2.368 4.208,3.092 5.683,5.879a6.792,6.792 0 0 0 1.443,4.246c1.62,2.074 3,4.651 2.5,7.69a30.081,30.081 0 0 0 -0.04,4.614c-3.322,1.971 -6.78,3.887 -10.094,6.026c-3.466,2.237 -6.623,0.733 -9.573,-0.813c-2.153,-1.128 -5.044,-1.658 -5.771,-4.666c-4.816,-2.167 -5.671,-7.242 -8.242,-11.076c-1.728,-2.577 -1.676,-5.577 -2.166,-8.3c-0.4,-2.253 1.188,-4.865 1.9,-7.318l0.898,0.214z"/>
  <path id="svg_7"  fill="#6B6DFF" d="m1449.879,185.761l-6.676,-6.676a39.163,39.163 0 0 1 0.087,-5.429c0.095,-0.7 1.1,-1.4 1.851,-1.811c0.284,-0.156 1.015,0.5 1.548,0.8c0.708,-1.4 1.122,-3.3 3.515,-2.836a1.923,1.923 0 0 0 1.379,-0.132c1.194,-0.963 2.491,-1.949 4.016,-1.524c2.734,0.76 5.778,1.205 7.909,3.091c4.212,3.73 8.215,7.783 10.312,13.17a53.72,53.72 0 0 1 2.981,9.906a4.717,4.717 0 0 1 -1.817,4.68c-2.77,1.939 -5.435,4.034 -8.264,5.878a5.9,5.9 0 0 1 -3.446,0.964c-7.084,-0.613 -12.132,-3.946 -14.224,-11.947c-0.305,-1.166 -1.038,-2.379 -0.88,-3.469a22.881,22.881 0 0 1 1.709,-4.665z"/>
  <path id="svg_8" fill="#6B6DFF" d="m1439.032,315.873l-0.578,-2.932c-0.013,3.879 -4.107,5.33 -5,8.628a1.935,1.935 0 0 1 -2.787,1.051c-1.177,-1.066 -1.98,-0.289 -2.644,0.143a4.3,4.3 0 0 1 -5.074,-0.014c-5.2,-3.043 -10.571,-5.838 -13.639,-11.415c-3.7,-2 -4.777,-6.062 -7.075,-9.15c-1.117,-1.5 -1.472,-3.571 -2.251,-5.586c1.357,-1.979 3.331,-1.455 5.717,-0.265c-0.231,-1.124 -0.167,-2.159 -0.64,-2.8c-0.651,-0.877 0.045,-1.223 0.416,-1.378c1.68,-0.7 3.416,-1.217 4.8,-2.545c0.337,-0.324 1.293,-0.195 1.887,-0.016c1.061,0.321 1.969,1 3.147,0.041c0.333,-0.27 1.42,0.269 2.1,0.569c5.868,2.579 11.179,5.809 14.653,11.529a14.066,14.066 0 0 0 2.312,2.325c2.261,2.1 2.685,5.161 4.434,7.426c1.167,1.509 0.912,2.833 0.222,4.389z"/>
  <path id="svg_9"  fill="#6B6DFF" d="m1623.921,361.6l0.4,-2.789c0.356,0.255 0.67,0.359 0.751,0.557c1.25,3.057 2.807,5.986 3.541,9.254c0.462,2.057 1.05,4.025 -0.94,5.627c-1.354,1.089 0.02,4.221 -3.027,4.046c-1.437,2.308 -3.739,2.078 -5.943,1.919a34,34 0 0 1 -1.454,4.392c-0.731,1.512 -3.067,1.94 -5.572,1.225c-0.571,-0.164 -1.124,-0.718 -1.648,-0.672c-4.055,0.353 -4.048,0.383 -5.756,-2.816a48.141,48.141 0 0 1 -2.543,-4.791a7.065,7.065 0 0 0 -4.113,-4.191a9.267,9.267 0 0 1 -5.566,-7.106c-0.477,-2.852 0.858,-5.469 3.405,-7.526c1.262,1.648 2.52,3.292 4.284,5.594c0,-2.356 -0.026,-3.941 0.007,-5.525s0.2,-1.253 2.7,-2.376c1.778,-0.8 4.359,0.171 5.383,-2.3q2.637,-0.1 5.274,-0.2c3.248,-0.128 6.129,0.226 7.643,3.836c0.596,1.434 2.036,2.513 3.174,3.842z"/>
  <path id="svg_10"  fill="#6B6DFF" d="m1499.969,289.913 a6.71,6.71 0 0 1 -5.548,-5.956 c-0.4490000000000003,-3.066 -1.487,-6.07 -1.238,-9.312 a84.187,84.187 0 0 0 -0.016000000000000014,-12.645 c-0.1520000000000001,-2.037 1.153,-3.544 1.124,-5.446 c-0.008000000000000007,-0.5 0.6810000000000007,-1.453 1.006,-1.4340000000000002 c2.509,0.14400000000000004 3.7,-2.574 6.333,-2.59 c1.742,-0.010000000000000007 3.475,-1.6440000000000001 5.432,-2.665 c1.927,1.927 6.026,-0.456 7.588,3.793 c-1.024,2.985 1.525,5.606 2.387,8.666 c0.12000000000000002,0.4260000000000002 0.5680000000000004,0.807 0.5720000000000004,1.212 c0.04100000000000003,4.815 0.026000000000000027,9.631 0.026000000000000027,14.863 l-1.957,-1.735 c0.262,1.131 0.2130000000000001,2 0.6000000000000004,2.292 c0.4120000000000002,0.3150000000000002 1.278,-0.035 1.8610000000000002,0.16000000000000014 c0.264,0.08800000000000008 0.405,0.786 0.4350000000000002,1.219 c0.013000000000000012,0.2 -0.4160000000000002,0.6360000000000005 -0.5740000000000004,0.6000000000000004 c-1.18,-0.231 -2.343,-0.552 -3.6180000000000003,-0.8720000000000004 c-0.8710000000000004,1.8840000000000003 -1.8,3.895 -2.494,5.4 l-2.914,-0.2190000000000001 c1.3900000000000001,1.4 -0.20600000000000004,1.9060000000000001 -0.784,2.7670000000000003 a30.517,30.517 0 0 0 -1.486,2.725 c-3.066,-0.33300000000000035 -4.21,-2.31 -5.03,-4.929 l-1.705,4.106 z" class=""/>
  <path id="svg_11"  fill="#6B6DFF" d="m1630.168,170.455c-2.523,-0.071 -4.908,-0.752 -6.128,2.043c-2.057,-2.712 -2.3,-4.638 -0.205,-6.794c1.447,-1.488 2.4,-3.344 4.246,-4.629c1.616,-1.127 2.209,-3.616 3.6,-5.2c1.07,-1.219 2.675,-1.969 4.041,-2.928l1.617,1.586l-2.29,1.626l0.254,0.585l3.472,-0.547c0.331,0.5 0.717,1.777 1.545,2.209c4.972,2.587 8.144,6.907 11.164,11.342c0.992,1.456 1.334,3.338 2.13,4.947c1.969,3.981 2.476,4.716 1.878,8.334c-0.432,2.614 -0.911,5.4 -2.965,7.533a5.553,5.553 0 0 0 -1.719,3.131c-0.107,2.716 -1.6,3.151 -3.794,3.01a5.874,5.874 0 0 0 -1.859,0.2c-3.829,1.03 -4.224,0.924 -6.133,-2.011c-2.828,-4.346 -4.179,-9.314 -5.823,-14.144c-1.164,-3.414 -2.049,-6.921 -3.031,-10.293z"/>
  <path id="svg_12"  fill="#6B6DFF" d="m1574.181,328.976c-2.707,-1.538 -5.45,-2.882 -7.657,-5.109c-4.114,-4.153 -8.529,-8.045 -12.323,-12.47c-3.989,-4.654 -8.213,-9.24 -10.62,-14.694c0.255,-2.154 3.059,0.133 3.114,-2.407c0.015,-0.726 1.794,-1.427 2.781,-2.115c2.449,-1.708 3.815,-2 5.6,-0.1a10.715,10.715 0 0 0 6.1,3.035c3.56,0.755 6.016,3.487 9.062,5.168c3.258,1.8 5.579,4.7 8.227,7.209c1.37,1.3 3.073,2.3 4.252,3.742a12.97,12.97 0 0 1 2.693,4.974c0.255,1.086 -0.561,2.723 -1.39,3.689c-1.024,1.192 -1.509,2.914 -3.3,3.491c-1.036,0.334 -0.89,1.492 -1.091,2.445c-0.233,1.1 -0.539,2.429 -2.44,1.054c-1.333,-0.958 -2.452,0.405 -3.008,2.088z"/>
  <path id="svg_13"  fill="#6B6DFF" d="m1638.428,291.782c-5.555,-2.287 -7.943,-6.541 -10.317,-10.675a89.028,89.028 0 0 1 -5.538,-11.309c-1.548,-3.886 -4.245,-7.568 -3.042,-12.459c3.514,2.448 3.224,7.13 6.6,10.259c-0.618,-4.95 -3.186,-8.775 -4.468,-13.992l3.2,1.756c0.152,-0.849 0.311,-1.739 0.469,-2.626l4.631,-0.879c0.453,0.726 1.049,1.8 1.757,2.792c2.76,3.867 2.776,3.849 7.787,5.63a8.283,8.283 0 0 1 1.592,0.847c3.881,2.452 7.415,5.216 9.551,9.479a16.62,16.62 0 0 1 1.819,6.151a2.063,2.063 0 0 0 0.6,1.187a1.177,1.177 0 0 1 -0.356,1.992c-2.19,1.237 -3.138,3.666 -5.082,5.121a3.275,3.275 0 0 0 -1.13,2.47c-0.206,1.395 -2.941,3.2 -4.214,2.908c-0.787,-0.182 -1.3,-1.63 -2.372,-0.562a18.718,18.718 0 0 0 -1.487,1.91z"/>
  <path id="svg_14" fill="#6B6DFF"  d="m1537.57,168.182l-2.974,0.492l1.2,2.238l-7.209,7.21a7.208,7.208 0 0 0 -1.351,0.011c-5.467,1.012 -9.109,-2.092 -12.146,-5.833a44.2,44.2 0 0 1 -6,-9.653c-0.99,-2.193 -1.875,-4.213 -1.167,-7.192c1.659,3.646 3.136,6.892 4.614,10.138l0.79,-0.254a9.332,9.332 0 0 0 -0.376,-1.851c-0.989,-2.349 -2.113,-4.643 -3.044,-7.013c-0.413,-1.049 -1.3,-2.354 0.955,-2.841c0.7,-0.151 1.1,-1.652 1.634,-2.54c0.465,-0.779 0.916,-1.566 1.285,-2.2c2.278,-0.209 2.3,1.784 3.721,2.6l-1.1,-4.16l2.678,-2.123c0.614,0.611 1.429,1.584 2.187,-0.211c0.82,-1.942 2.031,-2.7 4,-1.423c0.179,0.116 0.549,0.2 0.667,0.108c2.275,-1.873 3.614,-0.006 4.667,1.428c2.514,3.426 3.7,7.54 5.2,11.454c0.353,0.919 1.124,3.077 -1.468,3.18c-0.145,0.006 -0.258,0.812 -0.386,1.245c0.54,0.13 1.369,0.547 1.574,0.342a1.147,1.147 0 0 1 2.094,0.779c-0.876,2.062 1.15,4.046 -0.045,6.069z"/>
  <path id="svg_15" fill="#6B6DFF"  d="m1558.919,90.163l2.015,2.016c0.16,-1.379 0.293,-2.517 0.436,-3.757c2.006,-0.42 4.074,-0.95 6.176,-1.26a13.127,13.127 0 0 1 3.873,0.013c0.967,0.149 0.208,1.948 2.008,2.106c1.163,0.1 2.057,2.079 2.885,3.454c0.673,1.119 -0.334,3.536 2.219,3.391q0.132,2.373 0.265,4.748c0.009,0.153 0.043,0.305 0.066,0.458l7.245,7.244a15.038,15.038 0 0 1 2.381,0.024c1.209,0.193 2.513,1.392 1.892,2.136c-1.379,1.653 1.1,2.8 0.113,4.145c-3.77,1.131 -4.958,1.255 -8.024,0.719c0.767,1.661 1.436,3.109 2.277,4.928c-0.491,0.471 -1.135,1.616 -1.772,1.611c-4.016,-0.029 -8.244,0.989 -11.824,-1.862a17.09,17.09 0 0 1 -2.9,-2.324c-1.721,-2.156 -3.263,-4.457 -4.833,-6.73c-0.775,-1.122 -1.435,-2.322 -2.179,-3.466c-1.151,-1.773 -0.81,-4.323 -2.921,-5.592c0.319,-2.147 -0.892,-3.773 -1.666,-5.625a4.675,4.675 0 0 1 2.268,-6.377z"/>
  <path id="svg_16"  fill="#6B6DFF" d="m1444.478,10.906c1.9,0 3.2,0 4.5,0c1.74,0 3.621,-0.289 4.02,2.224a1.231,1.231 0 0 0 1,0.662c2.061,-0.305 2.6,1.641 3.855,2.5c3.419,2.325 3.923,6.15 4.778,9.69c0.488,2.017 -0.165,3.465 -2.461,4.84c-2.578,1.544 -5.8,2.5 -7.573,5.3c-1.562,0.03 -2.842,2.473 -4.666,0.518a1.887,1.887 0 0 0 -1.285,-0.37c-6.153,0.118 -10,-3.414 -13.218,-8.123c-1.631,-2.389 -3.675,-4.524 -4.314,-7.463a25.987,25.987 0 0 1 -0.5,-3.677c-0.029,-0.4 0.209,-1.1 0.491,-1.2c2.476,-0.885 4.275,-2.995 6.675,-3.854a19.313,19.313 0 0 1 8.698,-1.047z"/>
  <path id="svg_17"  fill="#6B6DFF" d="m1436.663,238.356c0.713,1.122 1.237,1.947 2.256,3.549c0.228,-1.7 0.317,-2.277 0.382,-2.86c0.214,-1.932 0.211,-1.93 2.652,-2.178c0.306,-0.031 0.776,0.009 0.885,-0.163a3.852,3.852 0 0 1 4.609,-1.719a15.994,15.994 0 0 1 5.673,2.655c6.04,5.09 9.592,11.913 12.351,19.152c0.471,1.234 0.067,2.8 0.067,4.194l-1.861,-0.206c0.122,1.748 -0.273,3.042 -2.317,3.457a2.4,2.4 0 0 0 -1.512,1.657c-0.206,2.105 -2.368,1.079 -3.123,2.174c-1.205,-1.917 -3.278,0.4 -4.633,-0.966c-1.3,-1.313 -3.075,-2.325 -3.932,-3.865a54.143,54.143 0 0 1 -4.805,-10.622a6.314,6.314 0 0 0 -2.861,-4a12.606,12.606 0 0 1 -5.355,-5.652c-0.964,-2.095 -1.005,-2.076 1.524,-4.607z"/>
  <path id="svg_18"  fill="#6B6DFF" d="m1480.024,119.661a6.767,6.767 0 0 1 0.04,-1.762c0.1,-0.4 0.8,-0.679 0.859,-1.069c0.065,-0.421 -0.431,-0.908 -0.436,-1.37c0,-0.409 0.571,-0.912 0.459,-1.214a3.664,3.664 0 0 0 -1.141,-1.456a4.592,4.592 0 0 0 -1.485,-0.436c0.305,1.056 0.55,1.908 0.8,2.759c-1.72,-1.049 -3.633,-1.885 -2.791,-4.415l2.276,0.978c0.279,-3.044 -2.542,-1.459 -3.629,-2.9c1.591,0.188 2.65,-0.908 4.25,-0.695c0.742,0.1 1.708,-1.478 2.844,-2.553l5.417,4.419c0.2,-1.235 0.347,-2.114 0.522,-3.185l7.164,-1.383c1.246,1.592 2.22,3.043 3.408,4.291c1.028,1.081 2.444,1.8 3.436,2.907c2.8,3.123 4.069,7.069 5.22,10.971c0.412,1.395 0.866,3.6 -1.8,3.978c0.011,2.563 -2.691,2.946 -3.911,4.571c-1.527,2.034 -4.23,2.384 -7.147,1.207c-4.368,-1.765 -7.24,-5.175 -10.029,-8.5c-1.402,-1.66 -2.97,-3.231 -4.326,-5.143z"/>
  <path id="svg_19"  fill="#6B6DFF" d="m1566.357,213.876l2.415,0.823c0.179,-4.1 -4.06,-5.25 -4.649,-9.026a10.167,10.167 0 0 1 2.062,0.943a34.021,34.021 0 0 1 2.507,2.463a6.24,6.24 0 0 0 -1.747,-3.935c2.563,-3.1 2.563,-3.1 5.589,-3.109c1.664,1.875 3.084,4.344 5.217,5.646c2.354,1.438 3.048,3.894 4.784,5.656a24.343,24.343 0 0 1 3.859,6.133a6.989,6.989 0 0 1 0.92,3.927c-0.25,1.567 -0.918,3.871 -2.026,4.317c-1.825,0.734 -1.416,2.023 -1.991,3.131c-0.786,1.514 -1.862,2.987 -3.836,3.312c-1.152,0.19 -2.524,1.07 -3.369,0.689a17.853,17.853 0 0 1 -5.7,-3.731a98.027,98.027 0 0 1 -7.893,-9.835c-0.616,-0.855 -0.333,-2.357 -0.515,-4.046l1.834,1.478c-0.362,-2.485 1.811,-3.338 2.539,-4.836z"/>
  <path id="svg_20"  fill="#6B6DFF"  d="m1535.729,381.656l-2.6,-1.426c-1.1,3.958 -1.367,4.164 -4.6,2.738l2.286,5.31l-2.585,1.5l-4.935,-4.936c-1.054,2.376 1.848,3.473 1.561,5.766c-2.6,0.363 -4.114,-1.408 -5.613,-3.038c-0.818,-0.89 -1.262,-2.133 -2.106,-2.99a107.717,107.717 0 0 1 -10.289,-12.27a8.208,8.208 0 0 0 -1.024,-1.036c-1.9,-1.81 -3.887,-3.561 -4.028,-6.512c1.894,-1.16 2.9,0.629 4.19,1.734c1.311,-2.169 -1.721,-2.458 -1.586,-4.055c0.116,-1.927 3.783,0.531 2.851,-2.619l5.279,0c1.51,1.064 3.041,2.116 4.543,3.208s2.5,2.67 4.347,3.564c1.79,0.867 2.978,2.916 4.555,4.306c1.028,0.905 1.679,2.15 3.323,2.557c1.189,0.3 1.822,2.1 3.628,1.865c0.5,-0.065 1.408,0.842 1.664,1.487a36.737,36.737 0 0 1 1.139,4.847z"/>
  <path id="svg_21"  fill="#6B6DFF" d="m1519.235,71.633c1.677,0.112 2.835,-0.757 4.368,0.351l-1.961,0.675c0.576,1.954 1.217,3.9 1.686,5.876c0.121,0.508 -0.145,1.51 -0.5,1.659c-1.957,0.826 -2.547,2.929 -4.07,4.082a5.36,5.36 0 0 1 -2.565,0.777c-0.441,0.049 -0.962,-0.619 -1.4,-0.572a4.979,4.979 0 0 0 -1.6,0.85c-0.835,-2.956 -0.794,-3.077 -4.087,-4.2c-1.971,-0.671 -2.38,-2.61 -3.778,-3.828c-0.313,0.667 -0.616,1.31 -0.955,2.033c-0.49,-0.516 -1.318,-0.984 -1.316,-1.448c0.026,-5.807 0.021,-5.939 -2.631,-9.418c-1.5,2.625 1.368,4.144 1.524,6.713c-0.71,-0.11 -1.769,-0.028 -1.893,-0.331c-1.246,-3.028 -3.143,-5.886 -1.2,-9.519c0.605,-1.129 0.713,-1.72 2.069,-1.742a5.228,5.228 0 0 0 2.482,-0.977c1.931,-1.221 3.792,-2.551 5.856,-3.956l0.8,1.2c1.63,1.134 3.328,-1.921 3.6,1.265c0.078,0.905 2.1,-1.252 2.1,1.115c0,0.916 1.683,1.833 2.528,2.677c-0.3,0.784 -0.589,1.531 -0.875,2.277q0.359,0.251 0.719,0.5c0.424,-0.806 0.849,-1.612 1.382,-2.626c0.872,1.481 1.377,2.337 2.04,3.462c-0.715,0.958 -1.519,2.032 -2.323,3.105z"/>
  <path id="svg_22"  fill="#6B6DFF" d="m1400.384,220.236l-3,-3.783l-1.238,2.53a10.929,10.929 0 0 1 -4.21,-3.844c-2.376,-3.348 -4.21,-7.042 -6.616,-10.394c-1.48,-2.062 -1.568,-4.651 -0.983,-7.331c2.221,-0.451 2.7,2.159 4.554,2.819l0,-4.746l9.965,-1.4a26.168,26.168 0 0 1 6.895,9.7c0.863,2.071 2.646,3.627 3.187,6c0.214,0.937 -0.986,2.2 0.491,2.894a11.56,11.56 0 0 1 -0.453,1.146c-2.413,-0.87 -3.224,2.63 -5.546,2.068c-0.15,-0.036 -0.562,0.861 -0.793,1.351a15.373,15.373 0 0 1 -0.683,1.656a9.1,9.1 0 0 1 -1.57,1.334z"/>
  <path id="svg_23"  fill="#6B6DFF" d="m1493.352,311.191l1.93,4.461l0.9,-2.373c0.218,0.134 0.575,0.227 0.622,0.4a9.8,9.8 0 0 0 2.44,4.368a11.636,11.636 0 0 1 1.735,2.68a5.489,5.489 0 0 0 4.09,3.16c0.312,-0.634 0.634,-1.288 0.783,-1.592l2.674,2c0,0.607 0.064,0.869 -0.01,0.917c-0.882,0.574 -1.785,1.115 -2.609,1.62c0.238,1.33 0.454,2.538 0.776,4.344l-3.41,-1.66c-0.638,1.284 -1.278,2.573 -1.966,3.96l-2.359,0.269l0,2.166c-2.448,1.835 -4.453,1.588 -6.576,-0.348c-2.313,-2.109 -4.92,-3.892 -7.28,-6.4l3,-1.983a14.681,14.681 0 0 0 -2.889,-5.436c-1.39,-1.718 -2.149,-3.945 -3.149,-5.879c1.428,-1.761 2.556,-0.457 3.866,0.093c0.056,-0.492 0.283,-1.016 0.127,-1.369c-0.977,-2.2 -0.555,-3.285 1.517,-3.381c1.945,-0.088 3.898,-0.017 5.788,-0.017z"/>
  <path id="svg_24"   fill="#6B6DFF" d="m1572.616,159.466l2.317,3.428c0.216,-0.675 0.514,-1.108 0.445,-1.471c-0.332,-1.76 -0.763,-3.5 -1.213,-5.488l2.835,0c0.245,0.511 0.544,1.133 1.139,2.369l0,-3.983a5.519,5.519 0 0 0 1.355,-0.5c0.756,-0.563 1.954,-1.842 2.077,-1.741c1.24,1.02 2.77,0.4 3.972,0.864c1.79,0.687 3.49,1.885 3.468,4.17c-0.006,0.683 -0.912,1.441 -0.776,2.016c0.111,0.467 1.362,0.57 1.736,1.1a1.925,1.925 0 0 1 0.015,1.838c-1.263,1.007 -0.985,2.312 -0.9,3.535a2.457,2.457 0 0 1 -1.914,2.839c-1.449,0.411 -1.787,1.338 -2.091,2.723a3.706,3.706 0 0 1 -4.042,3.163a9.32,9.32 0 0 0 -2.361,0.152c-1.936,0.424 -4.377,-0.041 -4.982,-1.464c-1.474,-3.466 -3.608,-6.744 -3.211,-10.824c0.154,-1.592 1.115,-2.044 2.131,-2.726z"/>
  <path id="svg_25"   fill="#6B6DFF" d="m1510.939,222.768 l4.033,1.181 c0.6590000000000001,-1.57 0.8540000000000001,-3.078 -0.537,-4.482 c1.7080000000000002,-1.553 2.845,0.789 4.52,0.534 l0.48400000000000004,-2.608 c1.312,-1.4 2.5,1.187 4.08,-0.036000000000000004 c1.622,-1.25 2.031,1.449 3.408,1.7590000000000001 a4.453,4.453 0 0 1 2.051,1.6600000000000001 c1.83,2.245 2.116,5.421 4.581,7.38 c0.5910000000000001,0.47000000000000003 0.275,2.08 0.40800000000000003,3.511 c-2.734,-1.342 -2.9,2.9939999999999998 -5.532,1.967 c-0.809,1.31 -0.04600000000000001,3.686 -3.007,3.9699999999999998 l-1.5,-2.559 c-0.5920000000000001,1.24 -0.8790000000000001,1.84 -1.175,2.459 c-1.6600000000000001,0.39200000000000007 -2.419,-1.037 -2.963,-1.947 a20.221,20.221 0 0 0 -7.189,-7.16 c-1.868,-1.115 -2.891,-2.932 -1.6620000000000001,-5.6290000000000004 z" class=""/>
  <path id="svg_26"   fill="#6B6DFF"  d="m1464.222,80.258l-6.187,4.849l-4.094,0c-1.594,-2.305 -2.113,-5.339 -4.463,-7.242c-0.246,-3.21 -2.467,-5.2 -4.395,-7.438c-0.614,-0.712 -0.481,-2.067 -0.742,-3.394c0.7,-0.2 1.4,-0.182 1.765,-0.523c3.742,-3.5 7.265,-1.532 10.248,0.855a32.083,32.083 0 0 1 6.5,7.471c1.019,1.553 0.992,3.795 1.368,5.422z"/>
 </g>
</svg>