<svg width="700" height="150" xmlns="http://www.w3.org/2000/svg">
 <title>1</title>

 <g>
  <title>Layer 1</title>
  <path id="svg_1" fill="#2FBF7D" d="m524.917,1.554c8.637,4.889 16.779,10.208 25.513,14.247a140.04,140.04 0 0 0 28.935,9.742c8.3,1.814 16.41,4.386 25.056,3.533c6.512,3.418 13.521,1.46 20.3,1.713c2.772,0.1 5.584,-1.542 8.393,-1.593c3.025,-0.056 5.73,-1.555 8.407,-1.735c9.9,-0.663 18.864,-5.244 28.63,-6.242c0.718,-0.073 1.35,-0.979 2.284,-1.7l8.348,5.5l-7.747,5.729l9.157,0l-2.508,5.842l1.93,3.118c-1.294,3.293 -2.025,7.843 -4.548,10.928c-3.511,4.3 -8.179,7.748 -12.728,11.041a12.379,12.379 0 0 1 -7.289,2.054c-5.4,-0.224 -10.23,3.27 -15.746,2.067c-0.808,-0.177 -1.914,1.011 -3.029,1.651c-0.359,-1.017 -0.733,-2.078 -1.116,-3.162l-34.25,0c3.385,1.843 6.951,1.3 10.446,1.387c3.964,0.094 7.932,0 11.9,0.03c3.523,0.03 7.046,0.128 10.555,1.823c-6.909,0 -13.818,0.036 -20.726,-0.009c-8.21,-0.055 -16.58,0.886 -24.12,-3.637c-8.246,0.126 -15.685,-3.038 -23.414,-5.279a21.109,21.109 0 0 1 -9.562,-5.724c-0.43,0.431 -0.858,0.864 -1.65,1.668c-5.472,-2.95 -10.848,-6.581 -16.757,-8.781c-4.08,-1.52 -5.684,-5.975 -10.036,-6.773c-1.6,-0.294 -3.032,-1.475 -5.4,-2.694c-2.661,-0.871 -6.953,2 -10.13,-1.7c-0.431,0.43 -0.863,0.861 -1.552,1.551l-2.363,-1.349l-1.309,3.256l-3.035,0l1.678,-2.77c-0.512,-0.238 -1.19,-0.814 -1.51,-0.658c-2.29,1.119 -4.524,2.358 -6.743,3.617c-1.989,1.128 -3.935,2.331 -6.358,3.774l-2.67,-1.727l-1.645,3.438l-1.393,-1.285c-1.882,1.521 -3.636,4.111 -5.691,4.376c-5.625,0.723 -9.718,4.621 -14.889,6.221c-2.621,0.811 -4.882,3.1 -7.045,5.015a83.742,83.742 0 0 1 -23.855,15.18l-2.18,-2.029l-3.508,3.542l-7.853,0c-1.136,1.869 -2.177,3.581 -3.342,5.5l-3.21,0c-1.048,1.325 -1.782,3.225 -3.022,3.651c-5.751,1.974 -11.01,6.039 -17.971,2.22c-2.967,-1.628 -7.57,-0.272 -11.451,1.232l11.007,0.671l-0.049,1.064l-12.29,0c-0.383,-1.086 -0.757,-2.147 -1.387,-3.936c-4.3,4.127 -8.711,2.533 -12.994,0.666c-6.022,-2.625 -11.852,-5.337 -17.141,-9.622c-6.838,-5.54 -14.1,-10.807 -22.433,-14.174a20.089,20.089 0 0 1 -2.81,-1.867l-10.718,0c-0.35,-0.538 -0.649,-0.809 -0.6,-0.958c0.091,-0.259 0.423,-0.424 0.607,-0.664c0.313,-0.408 0.589,-0.845 1.132,-1.635l-6.552,0c-0.445,-1.32 -0.8,-2.373 -1.243,-3.686l-3.761,-0.618l2.178,3.106l-1.926,2.121l5.728,1.137c-11.989,1.92 -23.461,6.686 -35.637,4.67c-2.209,6.23 -6.85,7.778 -12.806,7.561c-7.78,7.165 -15.539,14.673 -23.695,21.722c-8.5,7.345 -18.167,13.422 -29.019,15.93c-9.143,2.112 -18.816,5.57 -28.432,0.859a6.114,6.114 0 0 0 -2.723,-0.042c-9.287,0.451 -17.3,-3.617 -25.294,-7.431c-3.344,-1.6 -5.944,-4.717 -9.255,-6.423c-4.541,-2.341 -9.54,-3.46 -14.551,-4.728c-8.961,-2.266 -17.855,-1.213 -26.771,-1.525a70.256,70.256 0 0 0 -24.123,3.586a4.486,4.486 0 0 1 -2.711,-0.029a9.316,9.316 0 0 1 -2.261,-1.85c-0.364,1.087 -0.712,2.126 -1.316,3.927l-4.448,-1.691c-0.163,0.615 -0.38,1.436 -0.749,2.832c-7.422,2.126 -13.494,9.249 -22.569,7.8l-2.71,2.71l1.952,2.175c-4.351,3.247 -9.285,5.926 -12.839,9.854c-3.776,4.174 -7.269,8.432 -12.775,12.2c-0.465,0.992 -1.423,3.03 -2.559,5.449l-4.578,2.629c-0.514,5.521 -0.514,5.521 -3.269,8.832l-7.94,-7.941l0,-16c0.4,-0.277 3.059,-1.217 3.156,-2.371c0.393,-4.711 5.248,-6.136 6.586,-10c1.422,-4.1 4.967,-6.552 7.724,-9.625c3.766,-4.201 7.466,-8.457 11.005,-12.838c7.979,-9.872 24.492,-20.1 39.537,-23.562c3.554,-0.818 6.889,-2.545 10.41,-3.555c3.324,-0.953 6.972,1.241 10.384,-1.676c1.41,-1.206 4.71,-0.2 5.044,-0.2l5.724,2.93c-1.2,1.663 -1.861,2.584 -2.811,3.9l11.189,0l-5.781,-2.018c5.019,-5.257 9.825,-9.249 17.311,-5.163a5.86,5.86 0 0 0 2.6,0.332c11.324,0.159 21.193,4.019 30.493,10.506c3.766,2.628 8.748,4.752 13.769,4.054c4.925,-0.686 9.228,1.689 13.9,1.921c14.193,0.705 26.522,-4.564 37.866,-12.389a147.057,147.057 0 0 0 17.226,-13.603c9.239,-8.672 20.327,-13.9 32.021,-17.794c8.407,-2.8 17.387,-3.807 25.986,-5.912c9.007,-2.2 17.9,-0.644 26.758,-1.657c5.745,-0.657 10.275,1.95 14.59,4.626c9.525,5.907 18.575,12.575 28.04,18.584c4.358,2.765 9.636,3.548 14.668,4.266c9.211,1.315 18.074,-1.151 26.61,-4.159c6.891,-2.428 13.434,-5.861 20.083,-8.953c11.156,-5.189 21.338,-11.989 31.745,-18.51c10.481,-6.567 21.722,-12.252 34.383,-14.163c3.867,-0.584 7.6,-2.228 11.318,-3.587c8.129,-2.968 16.538,-1.396 24.615,-1.864z"/>
 </g>
</svg>