<svg width="18" height="23" viewBox="0 0 18 23" fill="none" xmlns="http://www.w3.org/2000/svg">
<path d="M9.39028 0.69421C8.78428 0.70821 8.03028 0.754211 6.54028 0.870211C6.33828 0.886211 6.16628 0.91621 5.95628 0.970211C5.58828 1.06421 5.53428 1.14621 5.03628 2.35821C4.50028 3.66621 4.47028 3.73621 3.82028 5.07021C3.52628 5.67421 3.17428 6.40421 3.03828 6.69021C2.66828 7.46821 2.23628 8.33021 1.94228 8.88021C1.15828 10.3382 0.862282 11.0982 0.938282 11.4662C0.970282 11.6202 1.19028 12.0462 1.28428 12.1322C1.44828 12.2822 1.54028 12.3402 1.64228 12.3602C1.82428 12.3942 2.22828 12.3322 3.32028 12.1002C4.36028 11.8782 4.85828 11.8022 5.48428 11.7682L5.73628 11.7542L5.64028 12.1422C5.49628 12.7142 5.42428 13.0682 5.19028 14.3402C5.07428 14.9722 4.89028 15.9402 4.78028 16.4902C4.67228 17.0402 4.53628 17.7282 4.48028 18.0202C4.31628 18.8642 4.17028 19.5382 3.97828 20.3042C3.75428 21.2022 3.74428 21.2582 3.77628 21.4422C3.80228 21.5982 3.83428 21.6762 3.93228 21.8302C3.96628 21.8842 4.02628 21.9942 4.06628 22.0722C4.10628 22.1522 4.16428 22.2342 4.19428 22.2582C4.22428 22.2822 4.30228 22.3422 4.36628 22.3922C4.54228 22.5322 4.58028 22.5162 4.98028 22.1582C5.24628 21.9202 5.31628 21.8642 5.73028 21.5502C6.37228 21.0642 6.90028 20.6282 7.38028 20.1842C7.50628 20.0682 8.18228 19.3982 8.88028 18.6982C9.57828 17.9982 10.3083 17.2782 10.5003 17.0982C11.0903 16.5482 12.1743 15.5002 12.4803 15.1882C12.8103 14.8502 13.3063 14.3282 13.8903 13.7002C14.6083 12.9302 14.9703 12.5562 15.3743 12.1662C16.5743 11.0062 17.0243 10.4922 17.2683 9.99821C17.3303 9.87221 17.3803 9.75421 17.3803 9.73421C17.3803 9.71421 17.3943 9.67821 17.4103 9.65421C17.4683 9.56421 17.5243 9.28021 17.5163 9.10621C17.5103 8.95021 17.5063 8.93821 17.4423 8.87221C17.4043 8.83221 17.3323 8.78621 17.2823 8.76621C17.2323 8.74821 17.1703 8.71621 17.1443 8.69821C16.9803 8.57221 16.4983 8.48421 15.4203 8.38021C15.1843 8.35821 14.7463 8.31221 14.4463 8.28021C13.8983 8.22021 13.1243 8.15421 12.6563 8.12821L12.4023 8.11421L12.5343 7.97221C13.2543 7.19621 14.3443 5.70021 15.2003 4.31021C15.5983 3.66221 16.0203 2.80421 16.3263 2.01421C16.3963 1.83421 16.4183 1.79821 16.4603 1.78621C16.4883 1.78021 16.5263 1.76021 16.5463 1.74221C16.5883 1.70621 16.6803 1.52221 16.6803 1.47421C16.6803 1.45621 16.6883 1.43821 16.6983 1.43221C16.7463 1.40221 16.7583 1.12221 16.7143 1.09221C16.6923 1.07821 16.6963 1.05021 16.7443 0.936211C16.7763 0.86021 16.7983 0.78421 16.7923 0.768211C16.7743 0.720211 16.6903 0.73621 16.4963 0.82221C16.3943 0.866211 16.2863 0.914211 16.2563 0.92621C16.2163 0.942211 16.0803 0.936211 15.6663 0.894211C14.9623 0.82221 14.9883 0.824211 14.2603 0.790211C12.5423 0.710211 10.4683 0.668211 9.39028 0.69421ZM14.0043 1.85221L15.0383 1.86621L14.7903 2.11821C14.4303 2.48421 14.4683 2.43621 13.4783 3.81421C13.0323 4.43221 12.3563 5.30221 11.3923 6.49821C10.8543 7.16621 10.6003 7.45821 10.2643 7.78821C10.0163 8.03221 9.95428 8.10621 9.91028 8.20621C9.86228 8.31021 9.85828 8.34021 9.86828 8.44421C9.88628 8.60021 9.92228 8.69821 10.0363 8.89021C10.0883 8.97821 10.1583 9.10421 10.1903 9.17021C10.2303 9.25021 10.2803 9.31021 10.3403 9.35421C10.3903 9.39221 10.4723 9.45621 10.5243 9.49821C10.6403 9.59421 10.7263 9.60821 11.4203 9.65021C11.6903 9.66621 12.1663 9.70221 12.4803 9.73021C13.5803 9.82621 14.4023 9.87821 14.8803 9.88221C15.0403 9.88421 15.2503 9.89021 15.3463 9.89821L15.5243 9.91021L15.3063 10.1222C15.0623 10.3602 15.0323 10.3902 14.6703 10.7282C13.6583 11.6742 13.0703 12.2742 11.9403 13.5102C11.3523 14.1542 10.9023 14.6162 9.94028 15.5662C9.64828 15.8522 9.18228 16.3142 8.90228 16.5882C8.19428 17.2862 7.95228 17.5382 7.14028 18.4302C6.75028 18.8602 6.28228 19.3602 6.10028 19.5422C5.79228 19.8502 5.40828 20.2002 5.37828 20.2002C5.37028 20.2002 5.38228 20.1262 5.40228 20.0342C5.64428 18.9862 5.96228 17.1582 6.25028 15.1602C6.45028 13.7722 6.52028 13.3402 6.67428 12.5702C6.82428 11.8202 6.82628 11.8062 6.82828 11.4902C6.83028 11.1362 6.81428 11.0602 6.71628 10.9502C6.68428 10.9122 6.62428 10.8722 6.58428 10.8582C6.54428 10.8462 6.48428 10.8162 6.45028 10.7922C6.36428 10.7322 6.14628 10.7282 5.50628 10.7782C4.56628 10.8542 4.11228 10.9162 3.19028 11.1002C2.55628 11.2262 2.22228 11.2802 2.07428 11.2802C1.96228 11.2802 1.95828 11.2782 1.97028 11.2342C1.97628 11.2102 2.23628 10.6822 2.54828 10.0602C3.16628 8.83221 3.24228 8.66821 3.64028 7.71021C4.09828 6.60421 4.27428 6.19421 4.60428 5.46221C5.00428 4.57221 5.15228 4.22221 5.61428 3.07021C6.01428 2.07621 6.03228 2.03621 6.10428 1.95821L6.15428 1.90621L6.85228 1.91621C7.32428 1.92221 8.00628 1.91021 8.96028 1.88221C11.0343 1.81821 11.2223 1.81821 14.0043 1.85221Z" fill="white"/>
</svg>
