<svg width="16" height="14" viewBox="0 0 16 14" fill="none" xmlns="http://www.w3.org/2000/svg">
<path d="M8.38243 0.864973C8.36593 0.872474 8.32693 0.878473 8.29543 0.878473C8.26393 0.879973 8.20693 0.888973 8.16793 0.900973C8.12893 0.912973 8.05993 0.929474 8.01493 0.939974C7.91443 0.962474 7.89793 0.975974 7.86193 1.05397C7.81543 1.16047 7.84393 1.25647 8.01793 1.56997C8.08243 1.68697 8.13193 1.74997 8.27743 1.89847C8.56693 2.19547 8.77843 2.36497 10.4674 3.66547C11.0044 4.07797 11.6989 4.61347 12.0124 4.85647C12.3274 5.09947 12.7879 5.45197 13.0384 5.64247L13.4929 5.98747L13.3909 5.99797C13.3339 6.00397 13.0309 6.02647 12.7174 6.04747C12.4039 6.06847 11.7049 6.12247 11.1649 6.16447C10.2844 6.23647 10.1539 6.24247 9.91243 6.23497C9.76393 6.23047 8.68393 6.22447 7.51243 6.22147C6.34093 6.21847 4.84993 6.21247 4.19743 6.20497C3.08893 6.19447 2.99443 6.19147 2.73493 6.15847C2.49343 6.12847 2.38993 6.12397 1.93993 6.12397C1.55443 6.12397 1.40443 6.12847 1.35493 6.14347C1.27243 6.16747 0.900425 6.35047 0.778925 6.42697C0.730925 6.45847 0.684425 6.49897 0.676925 6.51997C0.649925 6.59497 0.658925 6.86497 0.693425 6.99247C0.711425 7.05847 0.732425 7.11847 0.738425 7.12747C0.745925 7.13497 0.786425 7.20997 0.829925 7.29247C0.906425 7.43797 0.939425 7.47847 1.06693 7.58047C1.14043 7.63897 1.15543 7.64047 1.22443 7.59397C1.33393 7.51897 1.57693 7.49797 2.53243 7.47997C3.78493 7.45747 4.52443 7.43647 4.96243 7.41247C6.46843 7.32997 6.89143 7.31047 7.79743 7.28497C8.59093 7.26247 10.1644 7.23847 10.3174 7.24747C10.6174 7.26547 11.8699 7.29997 12.2224 7.29997C12.6094 7.29997 12.6769 7.29247 12.7324 7.23997C12.7624 7.21147 12.7894 7.20997 13.2739 7.20097L13.7824 7.19347L13.7449 7.22647C13.7239 7.24447 13.5724 7.36747 13.4074 7.49947C12.8209 7.96897 12.2629 8.46397 11.6224 9.08347C11.5234 9.17947 11.2804 9.41347 11.0824 9.60247C10.8844 9.79147 10.6384 10.0285 10.5349 10.1275C9.64243 10.9885 9.35593 11.272 9.04243 11.593C8.84443 11.797 8.65393 11.983 8.62093 12.0085C8.58043 12.037 8.54293 12.0835 8.51593 12.139C8.47543 12.2215 8.47543 12.2275 8.49193 12.3415C8.50843 12.46 8.54893 12.556 8.65843 12.7375C8.68843 12.787 8.73643 12.874 8.76343 12.9295C8.79943 13 8.83393 13.045 8.87293 13.072C8.90593 13.0945 8.97643 13.1485 9.02893 13.1905C9.10993 13.2565 9.13393 13.2685 9.16693 13.261C9.22843 13.2475 9.31243 13.1875 9.36043 13.126C9.38293 13.0945 9.62893 12.844 9.90643 12.5665C10.3579 12.1165 10.5964 11.8675 11.4964 10.915C11.6329 10.771 11.9329 10.453 12.1639 10.21C13.0459 9.27697 13.3744 8.90047 14.0254 8.07997C14.5009 7.47847 14.6509 7.29547 14.7439 7.20247C14.8894 7.05397 15.2464 6.61297 15.3109 6.50047C15.3454 6.44047 15.3499 6.41797 15.3424 6.36847C15.3364 6.33547 15.3154 6.28897 15.2959 6.26647C15.2764 6.24247 15.2599 6.21547 15.2599 6.20797C15.2599 6.18697 14.9119 5.81497 14.8729 5.79397C14.8564 5.78497 14.8099 5.74747 14.7694 5.70997C14.3944 5.35897 13.4614 4.59397 11.9059 3.36247C11.7499 3.23947 11.2249 2.82097 10.7374 2.43247C9.40393 1.36747 9.19243 1.20847 8.92993 1.07647C8.85193 1.03597 8.75443 0.986473 8.71393 0.963974C8.67343 0.942973 8.62843 0.924973 8.61493 0.924973C8.60143 0.924973 8.56993 0.908474 8.54593 0.887473C8.50093 0.848474 8.43943 0.840974 8.38243 0.864973Z" fill="#2FBF7D"/>
</svg>
