<svg width="122" height="38" viewBox="0 0 122 38" fill="none" xmlns="http://www.w3.org/2000/svg">
<path fill-rule="evenodd" clip-rule="evenodd" d="M68.4262 15.3243C68.1081 15.2737 67.8195 15.1309 67.6376 15.2164C67.0318 15.5012 66.3767 15.5105 65.7468 15.6352C64.9746 15.7885 64.1443 15.7472 63.4062 15.9275C62.3922 16.1753 61.355 16.3581 60.3422 16.5131C59.2983 16.6732 58.2809 16.9997 57.2121 17.0494C56.734 17.0717 56.268 17.3376 55.7924 17.4808C55.7414 17.496 55.6652 17.429 55.583 17.3919C55.5893 17.2946 55.5965 17.191 55.6053 17.0587C56.233 16.9702 56.8974 17.0022 57.4421 16.7621C57.9312 16.5468 58.4692 16.7549 58.8332 16.5321C59.2709 16.2641 59.771 16.5312 60.0983 16.2612C60.4834 15.9431 60.9291 16.2911 61.2737 16.0337C61.6865 15.7253 62.1933 16.0358 62.578 15.8572C63.118 15.6061 63.771 15.8572 64.1814 15.5914C64.7375 15.2312 65.4115 15.7161 65.861 15.189C66.4698 15.3247 67.0208 15.0252 67.6026 14.959C68.2602 14.884 68.9545 14.9118 69.5628 14.6974C70.0818 14.5141 70.6489 14.6675 71.0634 14.4552C71.448 14.258 71.836 14.4194 72.1267 14.2483C72.5189 14.0179 72.9107 14.0887 73.3055 14.0301C73.6345 13.9812 73.9652 13.9163 74.293 13.8384C74.8958 13.6948 75.497 13.4694 76.1411 13.5768C76.2902 13.6017 76.5308 13.6434 76.586 13.5696C76.9306 13.11 77.4601 13.5203 77.8469 13.2617C78.2875 12.9672 78.8015 13.1762 79.2801 13.1235C79.4313 13.1066 79.6424 13.1854 79.7287 13.1092C80.0536 12.8248 80.4816 13.0144 80.7786 12.8648C81.1881 12.6592 81.504 12.9554 81.8651 12.8943C82.4047 12.8042 82.9482 12.7325 83.4916 12.663C83.9555 12.6036 84.421 12.559 84.9425 12.5013C84.9585 12.5147 85.0373 12.5817 85.082 12.6196C85.3516 12.481 85.5921 12.3572 85.7737 12.2632C86.2527 12.5013 86.6706 12.5206 87.086 12.2822C87.5444 12.0193 87.934 12.3176 88.3326 12.441C88.7914 12.583 89.1309 11.9064 89.6828 12.3555C89.9596 12.5805 90.527 12.4494 91.0128 12.4823C90.2755 12.9061 89.532 12.9862 88.8036 12.8737C88.0541 12.757 87.3603 13.303 86.618 12.9828C86.1832 13.3038 85.7901 13.0692 85.3828 12.8682C85.1877 13.0413 84.9969 13.2111 84.7782 13.4058C84.5246 13.3059 84.2967 13.2158 84.0574 13.1214C83.7221 13.356 83.3716 13.5208 83.0181 13.1361C82.8732 13.2806 82.738 13.4159 82.5796 13.5747C81.718 13.6172 80.819 13.4782 79.9508 13.8005C79.5838 13.9366 79.179 14.0023 78.7863 14.0318C78.0495 14.0865 77.3203 14.1021 76.5784 14.2201C75.7868 14.3456 74.9923 14.6612 74.1531 14.515C74.017 14.491 73.846 14.6696 73.6825 14.7598C73.5806 14.6734 73.4921 14.5365 73.415 14.5424C72.7991 14.5896 72.184 14.6557 71.5719 14.7378C71.4788 14.7505 71.4004 14.876 71.3145 14.9493C71.237 14.8786 71.1548 14.8044 71.0306 14.6907C70.7424 14.8381 70.4357 14.9952 70.1282 15.1524C70.1025 15.1263 70.0789 15.0816 70.0477 15.0749C69.5493 14.9738 69.0893 15.3319 68.58 15.2013C68.5176 15.1852 68.4127 15.3356 68.4262 15.3243ZM19.3054 24.8776C19.2666 25.0331 19.2405 25.1367 19.2001 25.298C19.1078 25.2298 19.0358 25.1759 18.9549 25.1152C18.3841 25.4333 17.8111 25.772 17.2209 26.0757C16.4289 26.4831 15.6188 26.8319 14.8592 27.3286C14.2146 27.7499 13.399 27.9917 12.859 28.5415C12.3479 29.0601 11.5273 29.0007 11.1359 29.6389C10.3561 29.7434 9.97192 30.4777 9.31599 30.789C9.12304 30.8804 8.99329 31.0473 8.73293 31.062C8.47048 31.0776 8.47385 31.1404 8.18021 31.6931C8.09975 31.7045 7.99443 31.7226 7.88826 31.7323C7.81286 31.7394 7.68184 31.7099 7.66751 31.7403C7.32122 32.4746 6.35269 32.2905 5.93942 32.9173C5.90024 32.9763 5.87496 33.0901 5.83241 33.096C4.62291 33.2556 3.89663 34.3093 2.82531 34.7133C2.42425 34.8649 2.26205 35.2833 1.88501 35.4467C1.72366 35.5171 1.57452 35.6173 1.40053 35.7146C1.35461 35.8945 1.33566 36.1199 1.23876 36.3044C1.14145 36.4898 0.966615 36.6351 0.759766 36.8736C1.3761 37.1466 1.95283 36.9309 2.47607 37.2102C2.0531 37.23 1.63013 37.2498 1.17683 37.2713C1.15156 37.3648 1.12375 37.468 1.09595 37.57C2.554 38.0367 2.57422 38.086 4.28463 37.3859C5.49454 36.89 6.79799 36.5661 7.83476 35.6974C8.82899 35.4733 9.61762 34.8249 10.5057 34.3838C11.7164 33.7822 12.8649 33.0576 14.0626 32.4295C15.5699 31.6383 17.0954 30.8813 18.6225 30.1285C20.0519 29.4237 21.5256 28.8267 23.0123 28.2462C23.993 27.8632 24.9636 27.4129 25.9465 27.0135C26.9298 26.6141 27.9265 26.2476 28.9203 25.8735C29.6491 25.5997 30.364 25.237 31.1194 25.0971C31.9186 24.9492 32.5168 24.3851 33.2995 24.2419C33.7933 24.1513 34.236 23.824 34.7736 23.9188C34.8477 23.9323 34.9488 23.9521 34.9998 23.9162C35.8445 23.3159 36.8813 23.2801 37.8203 22.9595C38.796 22.6267 39.7944 22.3588 40.7899 22.0879C41.3405 21.9379 41.9059 21.8612 42.4396 21.6312C43.0695 21.3599 43.7768 21.3987 44.4331 21.1783C45.2433 20.9066 46.0921 20.7217 46.9238 20.5532C47.7364 20.3884 48.5461 20.206 49.3482 20.0055C50.9124 19.615 52.526 19.4376 54.0569 18.8988C54.4617 18.756 54.8982 18.8461 55.3414 18.6742C55.9388 18.4421 56.7316 18.6507 57.2738 18.3591C57.8724 18.0377 58.5671 18.4598 59.0613 17.9467C60.2472 17.9804 61.3619 17.4866 62.5461 17.4753C62.8979 17.4723 63.248 17.3304 63.5998 17.2579C63.9886 17.1774 64.377 17.0953 64.7684 17.03C65.1239 16.9702 65.5355 17.1741 65.8212 16.7974C66.4228 16.8779 66.9873 16.6268 67.5657 16.591C68.3067 16.5451 69.0061 16.168 69.766 16.3378C70.1856 15.8702 70.8719 16.3437 71.3138 15.8997C71.3909 15.8222 71.6062 15.8828 71.7579 15.8778C72.1968 15.8635 72.619 15.8934 73.0525 15.6709C73.4236 15.4805 73.9009 15.7615 74.3466 15.451C74.6036 15.2724 75.086 15.419 75.4504 15.419C75.6016 15.2673 75.7373 15.1321 75.8767 14.9922C76.5036 15.4186 77.0222 15.1346 77.5282 14.7399C77.8517 15.1279 78.3703 15.0672 78.6648 14.9046C79.0439 14.6961 79.3877 14.7428 79.7458 14.7365C80.7914 14.718 81.8054 14.3759 82.8687 14.4749C83.1421 14.5006 83.4434 14.2242 83.7235 14.0907C83.8638 14.1446 84.0218 14.2297 84.1899 14.2651C84.66 14.3645 85.1078 14.1219 85.6146 14.2323C86.0347 14.3237 86.5571 14.1547 86.9733 13.9668C87.2025 13.8636 87.2808 14.0203 87.3899 14.0107C88.0088 13.9546 88.6592 14.2626 89.2579 13.8266C89.4083 13.7174 89.7057 13.8101 89.9353 13.8101C91.5817 13.8101 93.228 13.8152 94.8744 13.8059C95.2456 13.8042 95.6416 13.824 95.9803 13.7044C96.3283 13.5814 96.5376 13.9833 96.8713 13.8202C97.087 13.7145 97.349 13.704 97.6309 13.6425C97.8819 13.6901 98.1971 13.7966 98.5139 13.8021C99.7385 13.8223 100.969 13.878 102.188 13.7929C103.706 13.6867 105.185 14.0128 106.687 14.0827C107.769 14.1328 108.832 14.5773 109.989 14.8667C110.201 14.7888 110.523 14.6704 110.87 14.5432C110.911 14.579 110.993 14.6514 111.092 14.7395C111.301 14.488 111.509 14.2373 111.753 13.9437C111.103 13.7777 110.557 13.6387 109.917 13.4752C110.083 13.2431 110.186 13.0986 110.31 12.9242H111.494C111.643 12.7755 111.751 12.6668 111.943 12.4755C111.679 12.2792 111.416 12.0829 111.112 11.8562C111.34 11.7678 111.472 11.7168 111.616 11.6607C111.755 11.0246 111.338 10.6429 110.958 10.249C111.031 10.1686 111.102 10.0881 111.12 10.0679C110.843 9.7949 110.576 9.5316 110.257 9.2169C109.953 9.28978 109.575 9.68705 109.123 9.33823C109.195 9.25692 109.267 9.17561 109.404 9.02227C108.902 9.10315 108.466 9.17393 108.03 9.24428C108.016 9.18656 108.002 9.12759 107.987 9.06945C108.199 9.01847 108.411 8.9675 108.691 8.90051C108.404 8.7518 108.172 8.6309 107.871 8.4746C107.806 8.60857 107.75 8.72358 107.642 8.94601C107.459 8.95697 107.177 8.97382 106.833 8.99404C106.929 8.76571 107 8.5993 107.129 8.29513C106.848 8.29513 106.669 8.2825 106.492 8.29724C105.21 8.40382 103.969 7.96822 102.68 8.04784C101.383 8.12789 100.076 8.03015 98.7772 8.09418C98.5008 8.10766 98.3319 7.67796 98.0075 7.99265C97.9072 8.08997 97.5078 7.8768 97.4055 7.97454C97.0356 8.32673 96.9058 7.79128 96.6084 7.81319C96.0919 7.85153 95.6428 8.10893 95.0964 8.08786C93.4526 8.02509 91.8041 8.04489 90.1582 8.07607C89.538 8.08744 88.9217 8.24921 88.3003 8.28671C87.6629 8.32504 87.0217 8.29513 86.3843 8.34105C87.3221 8.60267 89.533 8.57318 90.5331 8.43458C90.3616 8.48598 90.1906 8.53737 90.0191 8.58877C90.0697 8.64395 90.1207 8.69914 90.1712 8.75475C89.4841 8.75475 88.7941 8.79267 88.1103 8.7459C87.1296 8.6785 86.2015 9.15413 85.2182 8.98435C84.874 9.2902 84.3757 9.07029 84.0677 9.24554C83.5769 9.52443 83.1649 9.00331 82.6623 9.30115C82.2827 9.52612 81.7195 9.44102 81.1352 9.50505C81.0897 9.54213 80.9557 9.65124 80.8217 9.76035C80.8457 9.8109 80.8698 9.86146 80.8933 9.91201C82.0017 9.79532 83.1101 9.67862 84.2741 9.55561C84.3074 9.58467 84.4207 9.68326 84.5341 9.78184C84.4115 9.90443 84.3032 10.0127 84.1949 10.1205C84.0833 10.0376 83.9716 9.95456 83.7303 9.77467C83.665 10.0388 83.6043 10.2844 83.5436 10.53L83.3064 10.3291C83.202 10.2773 83.0971 10.225 82.9652 10.1597C82.9412 10.2756 82.9197 10.3805 82.8885 10.5313C82.4302 10.6434 81.9423 10.7622 81.449 10.8826C81.35 10.6728 81.2759 10.5157 81.1916 10.3371C80.7906 10.4833 80.3988 10.6257 80.0205 10.7634C79.908 10.6969 79.7862 10.624 79.6164 10.5233C79.3852 10.8161 79.1749 11.0828 78.9643 11.3494C78.8383 11.2239 78.784 11.1695 78.7048 11.0903C78.5093 11.186 78.3037 11.2862 78.0855 11.3928C78.2009 11.5049 78.3105 11.611 78.4301 11.7269C78.5047 11.662 78.5839 11.5929 78.7052 11.4872C78.9011 11.5765 79.1223 11.678 79.3696 11.7909C79.4328 11.6102 79.4791 11.4767 79.5288 11.3347C79.8507 11.4438 80.1696 11.5521 80.523 11.6721C80.9704 11.3145 81.5522 11.6115 82.1323 11.4825C82.2553 11.3659 82.4175 11.2121 82.5802 11.0587C82.8991 11.4758 83.3658 11.1792 83.8057 11.3292C83.812 11.4312 83.82 11.5617 83.8339 11.7943C83.6709 11.6671 83.5954 11.6089 83.4585 11.5019C83.3465 11.6688 83.2239 11.8507 83.0941 12.0437C82.8999 11.8377 82.7697 11.6995 82.6202 11.5407C82.3775 11.665 82.1378 11.788 81.8855 11.9177C81.5505 11.5879 81.2219 11.7758 80.847 11.9586C80.5315 12.1128 80.1595 12.1511 79.7887 12.2463C79.7129 12.3799 79.6186 12.5454 79.4302 12.8766C79.2929 12.5438 79.231 12.3938 79.1379 12.168C78.8025 12.2168 78.4453 12.2687 78.088 12.3217C77.7274 12.3752 77.2998 12.3276 77.0226 12.5088C76.6506 12.7527 76.4193 12.1886 76.0402 12.4869C75.7862 12.687 75.348 12.6533 74.9954 12.7236C74.8341 12.4881 74.7136 12.3116 74.4878 11.9805C74.9145 12.0188 75.1736 12.0424 75.5663 12.0782C75.5443 12.0985 75.6476 12.0028 75.7794 11.8811C75.7209 11.8057 75.6631 11.7319 75.5882 11.6346C75.6429 11.5676 75.7065 11.4901 75.7685 11.4147C75.7284 11.3739 75.6817 11.2862 75.6408 11.2892C75.3059 11.3132 74.9727 11.3751 74.6377 11.3835C74.278 11.392 73.831 11.2146 73.5765 11.3709C73.1902 11.6081 72.8334 11.4231 72.4479 11.5377C72.3135 11.6654 72.1497 11.8217 71.9369 12.0239C71.7676 11.9021 71.5936 11.777 71.3303 11.5879C72.4909 11.0305 73.6932 10.9795 75.0211 10.7074C74.4056 10.5233 73.9237 10.5591 73.4763 10.6177C73.21 10.6522 72.9674 10.8578 72.6485 10.8338C72.3953 10.8144 72.0363 11.0149 71.8969 10.9029C71.5417 10.6177 71.4449 11.06 71.2119 11.0545C70.906 11.0474 70.5956 11.0234 70.2943 11.0604C69.9388 11.1038 69.5937 11.2251 69.239 11.277C68.9163 11.3241 68.6096 11.3718 68.2882 11.4703C67.7742 11.6275 67.1769 11.512 66.6106 11.3334C66.9928 11.3018 67.3744 11.2698 67.9259 11.2235C66.8613 10.7584 66.0171 11.3857 65.1475 11.2829C64.9778 11.5141 64.8413 11.78 64.6298 11.9565C64.5232 12.0454 64.2814 11.9717 63.8593 11.9717C64.235 11.7876 64.3791 11.7172 64.5253 11.6456C64.4718 11.5984 64.4191 11.5146 64.3745 11.5188C63.9039 11.5605 63.4363 11.4278 62.9607 11.7168C62.6102 11.9299 62.1303 11.6932 61.6657 11.9114C61.1285 12.1638 60.4448 12.0854 59.8373 12.2109C59.2399 12.3348 58.6371 12.422 58.0435 12.5838C57.1752 12.8201 56.2653 12.9023 55.3953 13.1335C54.5275 13.364 53.5926 13.2734 52.7711 13.7288C52.3574 13.9584 51.8662 13.8249 51.394 14.0022C50.3955 14.3763 49.3154 14.5297 48.2744 14.7955C47.7187 14.9371 47.1938 15.1763 46.6006 15.1978C45.8908 15.2239 45.4261 15.5382 45.1295 16.1158C45.0482 15.9494 44.9791 15.807 44.9041 15.6532C44.819 15.7291 44.7394 15.7998 44.6594 15.871C44.5819 15.8015 44.501 15.7291 44.5035 15.7316C44.0797 15.8689 43.7077 16.0931 43.3424 16.0825C42.8432 16.0686 42.5466 16.4069 41.9004 16.5358C40.8864 16.326 39.8715 17.276 38.6157 17.2815C38.5853 17.4858 38.5533 17.6969 38.4918 18.108C38.3111 17.7929 38.2032 17.6046 38.1737 17.5532C37.1433 17.7099 36.3479 18.0857 35.5787 18.5344V18.8524C35.4068 18.7673 35.28 18.6688 35.1397 18.6439C34.9539 18.611 34.7584 18.6355 34.5335 18.6355C34.4243 18.7614 34.2996 18.9047 34.1573 19.069H33.1458C33.0868 19.235 33.0396 19.3685 32.9806 19.5349C32.8664 19.4625 32.7586 19.3938 32.5829 19.2822C32.3584 19.4844 32.1178 19.7013 31.9253 19.8749C31.8983 20.1277 31.8794 20.3038 31.8453 20.6201C31.6013 20.2545 31.4434 20.0181 31.2765 19.7679C30.5898 20.0388 29.9655 20.4411 29.1975 20.5789C28.5201 20.7002 27.9627 21.2318 27.2571 21.4332C26.8678 21.5444 26.5527 21.9556 26.0577 21.8528C25.8205 22.2358 25.3988 22.2707 25.0294 22.4207C24.5672 22.6077 23.9597 22.4915 23.6366 22.9128C23.3105 23.337 22.647 23.0947 22.4292 23.6306C21.9548 23.6841 21.5732 24.0161 21.1451 24.118C20.6518 24.2352 20.2718 24.4361 19.9049 24.7559C19.7869 24.8586 19.5561 24.8317 19.3054 24.8776Z" fill="#4243DC" fill-opacity="0.5"/>
<path fill-rule="evenodd" clip-rule="evenodd" d="M121.683 16.6513C121.638 16.549 121.497 16.3809 121.536 16.2949C121.949 15.3926 121.697 14.5003 121.519 13.6101C121.372 12.8771 121.259 12.1091 120.823 11.4915C120.014 10.3477 119.514 8.93853 118.149 8.25268C118.11 7.52428 117.059 7.63424 117.026 6.90037C116.266 6.53175 115.806 5.81051 115.159 5.30961C114.752 4.99491 114.357 4.66968 113.974 4.32634C113.827 4.19448 113.582 4.17257 113.313 4.07568C113.229 3.90421 113.105 3.6506 112.948 3.33085C112.661 3.14844 112.303 2.92137 111.893 2.66017C111.882 2.46554 111.867 2.20814 111.853 1.93346C111.72 1.88544 111.588 1.83699 111.455 1.78854C111.235 1.34493 111.704 1.46457 111.843 1.31544C111.568 0.716379 111.078 0.336384 110.502 -0.000221252C110.134 0.280773 109.761 0.565138 109.352 0.878151V2.41625C109.194 2.58223 109.037 2.74611 108.873 2.91842C108.969 3.64555 108.741 4.39121 109.092 5.12467C109.261 5.47686 109.31 5.89435 109.631 6.15933C109.836 6.32827 109.758 6.73143 110.179 6.7525C110.272 6.75713 110.337 7.18979 110.425 7.42149C110.601 7.88195 111.003 8.1739 111.316 8.51851C112.06 9.34001 112.818 10.167 113.673 10.8663C114.521 11.5593 115.276 12.3774 116.265 12.9019C116.554 13.0553 116.769 13.3451 117.027 13.5621C117.276 13.7719 117.537 13.9686 117.863 14.2264C117.457 14.4017 117.048 14.5774 116.581 14.7792C116.523 14.6241 116.477 14.499 116.429 14.368C115.428 14.4611 114.552 15.0454 113.516 15.243V15.7557C112.734 15.9996 111.991 16.2309 111.248 16.4622C110.941 16.5633 110.655 16.1033 110.258 16.4563C110.418 16.5313 110.571 16.6029 110.724 16.6741C110.174 16.573 109.702 17.5099 109.117 16.6943C108.391 17.5436 107.071 17.1417 106.461 18.1494C106.401 18.0955 106.321 18.023 106.212 17.924C105.637 18.1423 105.057 18.4422 104.441 18.5732C103.802 18.7101 103.599 19.3821 102.827 19.5502C102.066 19.4318 101.202 19.6483 100.47 20.2592C100.361 20.5878 100.262 20.8907 100.155 21.2138C100.213 21.3107 100.281 21.4257 100.349 21.5407C100.214 21.6764 100.079 21.8116 99.9258 21.9645C100.235 22.12 100.538 22.2721 100.844 22.4258C100.7 22.5691 100.565 22.7043 100.395 22.8741C100.596 22.992 100.79 23.1054 101.043 23.2537C101.507 22.6904 102.234 23.1033 102.873 22.816C103.771 22.4119 104.815 22.3445 105.78 22.0741C106.908 21.7585 108.016 21.3756 109.135 21.0293C110.326 20.6611 111.514 20.2883 112.729 19.9967C113.727 19.7583 114.659 19.2763 115.677 19.0817C116.02 18.6609 116.641 19.056 116.985 18.6356C117.85 18.7245 118.559 18.1069 119.408 18.101C119.576 18.0997 119.742 17.9809 119.915 17.9497C120.688 17.8099 121.414 17.6089 121.683 16.6513Z" fill="#4243DC" fill-opacity="0.5"/>
</svg>
