<svg width="21" height="29" viewBox="0 0 21 29" fill="none" xmlns="http://www.w3.org/2000/svg">
<path fill-rule="evenodd" clip-rule="evenodd" d="M2.5966 22.592H2.18684C2.11261 22.7099 2.03518 22.8328 1.95711 22.9572C1.89845 22.9026 1.85622 22.8634 1.79244 22.8041C1.64057 22.8922 1.48357 22.9834 1.32935 23.0729C1.31016 23.2013 1.29373 23.3114 1.27667 23.4264C1.18089 23.3704 1.1056 23.3262 1.03499 23.2847C0.937941 23.4927 0.852404 23.6755 0.760042 23.8733C0.785639 23.8821 0.84963 23.9046 0.934099 23.9341V24.209C1.24126 24.3178 1.47419 24.5924 1.82209 24.4984C1.84235 24.742 2.05801 24.8222 2.19495 24.8536C2.5196 24.9281 2.7922 25.1924 3.09765 25.1986C3.45409 25.2056 3.72456 25.408 4.03492 25.4994C4.40735 25.6094 4.79066 25.7268 5.1601 25.8739C5.52037 26.0173 5.89899 26.2047 6.31238 26.1911C6.96594 26.5825 7.72531 26.6272 8.42943 26.8499C8.97784 27.0232 9.53094 27.2393 10.122 27.284C10.3276 27.2996 10.5237 27.5197 10.738 27.195C10.894 27.4897 11.0774 27.6525 11.3837 27.6419C11.5987 27.6346 11.8246 27.6873 12.0313 27.758C12.5725 27.9423 13.1364 28.0012 13.6895 28.1186C14.1974 28.2265 14.7196 28.2637 15.2172 28.3774C15.8879 28.5307 16.5472 28.4234 17.2093 28.467C17.326 28.4747 17.4456 28.3769 17.5683 28.3582C17.7012 28.3379 17.8742 28.406 17.9657 28.3406C18.0845 28.2556 18.1724 28.3324 18.2692 28.3126C18.4121 28.2833 18.5527 28.241 18.7231 28.1967C18.7858 28.0829 18.997 28.0373 18.9966 27.8126C18.9964 27.756 19.1009 27.6479 19.1523 27.6509C19.5418 27.6741 19.632 27.343 19.8005 27.0637C19.8658 26.5204 19.6096 26.1395 19.1162 25.9045C19.0514 25.8734 18.9827 25.8439 18.913 25.8325C18.6391 25.7878 18.3468 25.7972 18.0941 25.6979C17.8161 25.5889 17.5448 25.5975 17.2656 25.59C16.9975 25.5829 16.6816 25.6618 16.4747 25.5415C16.2441 25.4074 15.9563 25.6199 15.791 25.353C15.6093 25.551 15.4301 25.2547 15.249 25.3501C15.0553 25.1781 14.8145 25.2706 14.6016 25.2208C14.4043 25.1748 14.201 25.1481 14.0116 25.0968C13.3877 24.9268 12.7557 24.8263 12.1179 24.7492C11.8415 24.4995 11.4599 24.7367 11.1629 24.516C10.908 24.3266 10.5665 24.3611 10.2707 24.2935C9.93451 24.2167 9.58213 24.1583 9.23658 24.1001C8.91385 24.0457 8.59645 23.9539 8.27222 23.8916C7.79421 23.7997 7.33859 23.5858 6.84415 23.548C6.63596 23.2944 6.3079 23.5132 6.0594 23.32C5.851 23.1577 5.54235 23.1299 5.28958 23.0881C4.67249 22.9861 4.12707 22.6755 3.52725 22.5407C3.38519 22.5088 3.24334 22.4748 3.07888 22.4365C3.05713 22.5837 3.0407 22.6938 3.01489 22.8678C2.86963 22.7722 2.75359 22.6955 2.5966 22.592Z" fill="#F7AB86" fill-opacity="0.5"/>
<path fill-rule="evenodd" clip-rule="evenodd" d="M12.3197 15.761C12.3515 15.7938 12.379 15.8222 12.4063 15.8506C12.4816 15.7306 12.5571 15.6108 12.6505 15.4621C12.6874 15.57 12.7111 15.6396 12.7491 15.7504C12.9197 15.7288 13.1505 15.7689 13.271 15.668C13.4666 15.5046 13.5946 15.7387 13.7644 15.6766C13.9184 15.6202 14.1422 15.6947 14.2542 15.6044C14.4368 15.4573 14.6208 15.5396 14.7964 15.4932C14.9685 15.4478 15.1315 15.3645 15.3113 15.2925C15.4075 15.3238 15.5212 15.3608 15.6707 15.4092C15.7268 15.3013 15.7823 15.1936 15.8798 15.0053C15.9393 15.2037 15.9591 15.2692 15.9909 15.3755C16.5244 15.0588 17.1639 15.2381 17.6978 14.9608C17.7112 14.8978 17.7232 14.8434 17.7543 14.6996C17.8016 14.8423 17.8215 14.9029 17.845 14.9731C17.9802 14.9363 18.125 14.8969 18.2756 14.8557C18.2856 14.7619 18.2957 14.6674 18.3104 14.5291C18.3658 14.5705 18.3998 14.5958 18.451 14.6341C18.5143 14.6013 18.5873 14.5634 18.6903 14.5101C18.73 14.6026 18.7641 14.6822 18.7969 14.7588C18.9266 14.6643 19.0567 14.5694 19.2105 14.4573C19.2165 14.4013 19.2265 14.3066 19.2398 14.1842C19.3735 14.2535 19.4936 14.3156 19.6484 14.396C19.8522 14.091 20.2687 13.9496 20.3995 13.5395C20.346 13.4784 20.3082 13.4355 20.2702 13.3925C20.3816 13.2776 20.4328 13.3095 20.5509 13.5681C20.5887 13.5707 20.6267 13.5767 20.664 13.5738C20.6793 13.5727 20.6934 13.5524 20.7431 13.5135C20.7069 13.4276 20.6666 13.3322 20.622 13.2265C20.6591 13.1276 20.7017 13.0139 20.7598 12.8597C20.6119 12.9152 20.5219 12.9487 20.4102 12.9908C20.4454 12.8476 20.4714 12.7412 20.5157 12.5611C20.3118 12.6562 20.1851 12.7155 20.0405 12.7829C20.074 12.8254 20.1058 12.8655 20.1444 12.9144C20.0443 12.9668 19.9432 13.0201 19.8195 13.0853V12.6809C19.6875 12.6115 19.5755 12.5527 19.455 12.4893C19.1792 12.6075 18.8983 12.7282 18.6114 12.8514C18.4832 12.7996 17.9917 12.865 17.769 12.9694C17.7298 12.9326 17.6892 12.8945 17.6284 12.8377C17.5103 12.8959 17.3812 12.9593 17.2456 13.026C17.2831 13.0701 17.3181 13.1117 17.3533 13.1531C17.3275 13.1727 17.2923 13.2179 17.2729 13.2115C17.051 13.1403 16.8424 12.9655 16.601 13.1985C16.5562 13.2417 16.3994 13.1622 16.2949 13.1375C15.8162 13.0247 15.3768 13.0952 14.9903 13.4161C14.9001 13.3908 14.8009 13.3395 14.703 13.3414C14.5876 13.3436 14.4035 13.4522 14.3698 13.4106C14.1959 13.1952 14.1053 13.4575 13.9756 13.4591C13.8491 13.4608 13.7322 13.4683 13.5985 13.5311C13.3722 13.6377 13.1045 13.6602 12.851 13.6932C11.9991 13.804 11.1674 13.9894 10.3451 14.2551C9.71034 14.4599 9.0636 14.6291 8.45334 14.9029C8.0423 15.087 7.59542 15.2579 7.27248 15.5586C6.98068 15.8297 6.63512 16.07 6.40753 16.4572C6.43952 16.509 6.47813 16.5718 6.52271 16.6442C6.49797 16.674 6.4632 16.7154 6.4231 16.7629C6.56004 16.8969 6.69911 17.0328 6.85547 17.1856C7.03315 17.1301 7.21873 17.0526 7.32282 16.7883C7.34479 16.9398 7.36057 17.0499 7.37785 17.1689H7.54359C7.57281 17.0905 7.5982 17.0215 7.62422 16.9511C7.68693 16.9922 7.74452 17.0301 7.82281 17.0817C7.88104 17.0367 7.93884 16.9918 7.99537 16.9482C8.08411 17.033 8.17817 17.1235 8.27523 17.2162C8.41643 17.0367 8.51477 16.8759 8.6468 16.7539C8.775 16.6354 9.04291 16.75 9.1037 16.4453C9.08024 16.4077 9.04121 16.3453 8.98041 16.2482C9.10178 16.2418 9.21334 16.2359 9.36799 16.2277C9.29056 16.3174 9.25408 16.3599 9.17687 16.4497C9.32405 16.4418 9.44606 16.4704 9.52882 16.4242C9.72464 16.3147 9.92535 16.2566 10.1391 16.1967C10.3404 16.1403 10.5335 16.1165 10.7357 16.0942C10.9155 16.0744 11.0898 16.0037 11.2696 15.9824C11.4594 15.9601 11.6576 15.9947 11.8436 15.9577C12.0093 15.9249 12.1631 15.8284 12.3197 15.761Z" fill="#F7AB86" fill-opacity="0.5"/>
<path fill-rule="evenodd" clip-rule="evenodd" d="M15.9551 0.797209V0.292375C15.7567 0.0765207 15.5276 -0.0285429 15.1818 0.00669855C15.1496 0.0622039 15.0901 0.164624 15.0202 0.285547C14.6358 0.0412793 14.4895 0.571443 14.1876 0.487304C13.7542 0.783773 13.431 1.19698 12.9865 1.45578C12.9215 1.49367 12.8752 1.56591 12.8208 1.62296C12.4383 2.02317 12.0117 2.36524 11.5659 2.68858C11.2592 2.91126 10.9823 3.18108 10.7088 3.44847C10.4104 3.74031 10.0992 4.00859 9.73638 4.21145C9.67111 4.24801 9.62589 4.32224 9.57043 4.37819C9.3503 4.60087 9.1515 4.85527 8.90235 5.03588C8.70163 5.18103 8.55339 5.3742 8.3757 5.53653C8.06854 5.81692 7.81322 6.1581 7.53912 6.47682C7.26332 6.79751 6.97919 7.11204 6.72323 7.44904C6.61658 7.58979 6.57328 7.78185 6.49819 7.95718C6.66969 8.11224 6.8141 8.24308 7.03679 8.44483C7.20125 8.54087 7.28379 8.22171 7.47812 8.14836C7.54189 8.1988 7.59906 8.2444 7.63809 8.27523C7.86718 8.22634 8.08262 8.1803 8.39575 8.11334C9.03823 7.5704 9.7865 6.99376 10.4855 6.3473C10.8176 6.04048 11.1928 5.75348 11.5934 5.51362C11.8797 5.34226 12.1032 5.05923 12.3626 4.83412C13.0499 4.2381 13.7403 3.62622 14.3212 2.92513C14.8666 2.26634 15.534 1.70644 15.9551 0.797209Z" fill="#F7AB86" fill-opacity="0.5"/>
</svg>
