<svg width="122" height="38" viewBox="0 0 122 38" fill="none" xmlns="http://www.w3.org/2000/svg">
<path fill-rule="evenodd" clip-rule="evenodd" d="M54.0924 22.5956C54.4105 22.6462 54.6991 22.789 54.8811 22.7035C55.4869 22.4187 56.1419 22.4094 56.7718 22.2847C57.544 22.1314 58.3743 22.1727 59.1124 21.9924C60.1264 21.7447 61.1636 21.5618 62.1764 21.4068C63.2203 21.2467 64.2377 20.9202 65.3065 20.8705C65.7846 20.8482 66.2506 20.5823 66.7262 20.4391C66.7772 20.4239 66.8534 20.4909 66.9356 20.528C66.9293 20.6253 66.9221 20.7289 66.9133 20.8612C66.2856 20.9497 65.6212 20.9177 65.0765 21.1578C64.5874 21.3731 64.0494 21.165 63.6854 21.3878C63.2477 21.6558 62.7476 21.3887 62.4203 21.6587C62.0352 21.9768 61.5895 21.6288 61.2449 21.8862C60.8321 22.1946 60.3253 21.8841 59.9406 22.0627C59.4006 22.3138 58.7476 22.0627 58.3372 22.3285C57.7812 22.6887 57.1071 22.2038 56.6576 22.7309C56.0488 22.5952 55.4978 22.8948 54.916 22.9609C54.2584 23.0359 53.5641 23.0081 52.9558 23.2225C52.4368 23.4058 51.8697 23.2524 51.4552 23.4647C51.0706 23.6619 50.6826 23.5006 50.3919 23.6716C49.9997 23.902 49.6079 23.8313 49.2131 23.8898C48.8841 23.9387 48.5534 24.0036 48.2257 24.0815C47.6228 24.2252 47.0216 24.4505 46.3775 24.3431C46.2284 24.3183 45.9878 24.2766 45.9326 24.3503C45.588 24.8099 45.0585 24.3996 44.6717 24.6582C44.2311 24.9527 43.7171 24.7438 43.2385 24.7964C43.0873 24.8133 42.8762 24.7345 42.7899 24.8107C42.4651 25.0951 42.037 24.9055 41.74 25.0551C41.3305 25.2607 41.0146 24.9645 40.6535 25.0256C40.1139 25.1157 39.5704 25.1874 39.027 25.2569C38.5631 25.3163 38.0976 25.3609 37.5761 25.4186C37.5601 25.4052 37.4813 25.3382 37.4366 25.3003C37.167 25.4389 36.9265 25.5627 36.7449 25.6567C36.2659 25.4186 35.848 25.3993 35.4326 25.6377C34.9743 25.9006 34.5846 25.6023 34.186 25.4789C33.7273 25.3369 33.3877 26.0135 32.8358 25.5644C32.5591 25.3394 31.9916 25.4705 31.5058 25.4376C32.2431 25.0138 32.9867 24.9338 33.715 25.0462C34.4645 25.1629 35.1584 24.6169 35.9007 24.9371C36.3354 24.6161 36.7285 24.8508 37.1358 25.0517C37.3309 24.8786 37.5217 24.7088 37.7404 24.5142C37.994 24.614 38.2219 24.7042 38.4612 24.7985C38.7965 24.5639 39.147 24.3991 39.5005 24.7838C39.6454 24.6393 39.7806 24.504 39.9391 24.3452C40.8006 24.3027 41.6996 24.4417 42.5678 24.1194C42.9348 23.9833 43.3396 23.9176 43.7323 23.8881C44.4691 23.8334 45.1983 23.8178 45.9402 23.6998C46.7318 23.5743 47.5263 23.2587 48.3655 23.4049C48.5016 23.4289 48.6726 23.2503 48.8361 23.1602C48.938 23.2465 49.0265 23.3834 49.1036 23.3775C49.7195 23.3304 50.3346 23.2642 50.9467 23.1821C51.0398 23.1694 51.1182 23.0439 51.2041 22.9706C51.2816 23.0414 51.3638 23.1155 51.4881 23.2292C51.7762 23.0818 52.0829 22.9247 52.3904 22.7675C52.4161 22.7936 52.4397 22.8383 52.4709 22.845C52.9693 22.9461 53.4293 22.5881 53.9386 22.7187C54.001 22.7347 54.1059 22.5843 54.0924 22.5956ZM103.213 13.0423C103.252 12.8869 103.278 12.7832 103.318 12.6219C103.411 12.6901 103.483 12.744 103.564 12.8047C104.134 12.4866 104.707 12.1479 105.298 11.8442C106.09 11.4368 106.9 11.088 107.659 10.5913C108.304 10.17 109.12 9.9282 109.66 9.37843C110.171 8.85983 110.991 8.91923 111.383 8.28099C112.162 8.17651 112.547 7.44222 113.203 7.1309C113.396 7.03948 113.525 6.87265 113.786 6.8579C114.048 6.84232 114.045 6.77955 114.338 6.22683C114.419 6.21545 114.524 6.19734 114.63 6.18765C114.706 6.18048 114.837 6.20997 114.851 6.17964C115.197 5.44535 116.166 5.62945 116.579 5.00258C116.618 4.9436 116.644 4.82986 116.686 4.82396C117.896 4.66429 118.622 3.61067 119.693 3.20666C120.094 3.055 120.257 2.63667 120.634 2.47321C120.795 2.40286 120.944 2.30259 121.118 2.20528C121.164 2.02539 121.183 1.8 121.28 1.61548C121.377 1.43012 121.552 1.28478 121.759 1.04633C121.142 0.773341 120.566 0.989037 120.042 0.709728C120.465 0.689928 120.888 0.670127 121.342 0.648642C121.367 0.555118 121.395 0.451904 121.423 0.349954C119.965 -0.116826 119.944 -0.166116 118.234 0.534054C117.024 1.0299 115.721 1.35387 114.684 2.22255C113.69 2.44667 112.901 3.09502 112.013 3.5361C110.802 4.13769 109.654 4.8623 108.456 5.49043C106.949 6.28159 105.423 7.03863 103.896 7.79146C102.467 8.49627 100.993 9.09322 99.5063 9.67375C98.5256 10.0567 97.5549 10.507 96.5721 10.9064C95.5888 11.3058 94.5921 11.6723 93.5983 12.0464C92.8694 12.3202 92.1545 12.683 91.3992 12.8228C90.6 12.9707 90.0018 13.5348 89.219 13.678C88.7253 13.7686 88.2825 14.0959 87.745 14.0011C87.6708 13.9877 87.5697 13.9679 87.5187 14.0037C86.6741 14.604 85.6373 14.6398 84.6983 14.9604C83.7226 15.2932 82.7241 15.5612 81.7287 15.832C81.178 15.982 80.6127 16.0587 80.0789 16.2887C79.4491 16.56 78.7418 16.5213 78.0854 16.7416C77.2753 17.0133 76.4264 17.1982 75.5948 17.3668C74.7822 17.5315 73.9725 17.7139 73.1703 17.9144C71.6061 18.305 69.9926 18.4823 68.4617 19.0211C68.0568 19.1639 67.6204 19.0738 67.1772 19.2457C66.5798 19.4778 65.787 19.2693 65.2448 19.5608C64.6461 19.8822 63.9514 19.4601 63.4573 19.9732C62.2714 19.9395 61.1567 20.4333 59.9724 20.4446C59.6207 20.4476 59.2706 20.5896 58.9188 20.662C58.53 20.7425 58.1416 20.8246 57.7502 20.8899C57.3946 20.9498 56.983 20.7459 56.6974 21.1225C56.0958 21.042 55.5313 21.2931 54.9529 21.3289C54.2118 21.3748 53.5125 21.7519 52.7525 21.5821C52.3329 22.0497 51.6467 21.5762 51.2047 22.0202C51.1276 22.0978 50.9124 22.0371 50.7607 22.0421C50.3217 22.0565 49.8996 22.0266 49.4661 22.249C49.095 22.4394 48.6177 22.1584 48.1719 22.4689C47.915 22.6475 47.4326 22.5009 47.0682 22.5009C46.9169 22.6526 46.7813 22.7878 46.6418 22.9277C46.015 22.5013 45.4964 22.7853 44.9904 23.18C44.6669 22.792 44.1483 22.8527 43.8538 23.0153C43.4746 23.2238 43.1309 23.1771 42.7728 23.1834C41.7272 23.2019 40.7132 23.544 39.6498 23.445C39.3764 23.4193 39.0752 23.6957 38.7951 23.8292C38.6548 23.7753 38.4968 23.6902 38.3287 23.6548C37.8586 23.5554 37.4107 23.798 36.9039 23.6877C36.4839 23.5962 35.9615 23.7652 35.5453 23.9531C35.3161 24.0563 35.2378 23.8996 35.1286 23.9093C34.5098 23.9653 33.8593 23.6573 33.2607 24.0934C33.1103 24.2025 32.8129 24.1098 32.5833 24.1098C30.9369 24.1098 29.2905 24.1047 27.6442 24.114C27.273 24.1157 26.877 24.0959 26.5383 24.2155C26.1903 24.3385 25.981 23.9366 25.6473 24.0997C25.4316 24.2054 25.1696 24.216 24.8877 24.2775C24.6366 24.2299 24.3215 24.1233 24.0047 24.1178C22.7801 24.0976 21.5495 24.042 20.3303 24.1271C18.8129 24.2332 17.3333 23.9072 15.8319 23.8372C14.75 23.7871 13.6863 23.3426 12.5299 23.0532C12.3175 23.1312 11.9953 23.2495 11.6481 23.3768C11.6073 23.341 11.526 23.2685 11.427 23.1804C11.218 23.4319 11.0099 23.6826 10.766 23.9762C11.416 24.1422 11.962 24.2813 12.6015 24.4447C12.4359 24.6768 12.3327 24.8213 12.2084 24.9957H11.0242C10.8759 25.1445 10.7677 25.2531 10.576 25.4444C10.8397 25.6407 11.103 25.837 11.4067 26.0637C11.1784 26.1522 11.047 26.2031 10.9029 26.2592C10.7634 26.8953 11.1801 27.277 11.5605 27.6709C11.488 27.7513 11.4168 27.8318 11.3987 27.852C11.6755 28.125 11.9426 28.3883 12.2615 28.703C12.5653 28.6301 12.9431 28.2329 13.3956 28.5817C13.3236 28.663 13.2511 28.7443 13.1146 28.8976C13.6163 28.8168 14.0528 28.746 14.4888 28.6756C14.5027 28.7334 14.5171 28.7923 14.5314 28.8505C14.3195 28.9014 14.1076 28.9524 13.8278 29.0194C14.1143 29.1681 14.3468 29.289 14.6481 29.4453C14.7125 29.3113 14.7686 29.1963 14.8764 28.9739C15.0597 28.9629 15.3415 28.9461 15.6857 28.9259C15.5892 29.1542 15.5189 29.3206 15.3899 29.6248C15.6701 29.6248 15.8496 29.6374 16.0269 29.6227C17.3089 29.5161 18.5491 29.9517 19.8382 29.8721C21.1354 29.792 22.4426 29.8898 23.7414 29.8257C24.0178 29.8123 24.1867 30.242 24.5111 29.9273C24.6114 29.8299 25.0107 30.0431 25.1131 29.9454C25.483 29.5932 25.6128 30.1286 25.9102 30.1067C26.4267 30.0684 26.8758 29.811 27.4222 29.8321C29.066 29.8948 30.7145 29.875 32.3604 29.8438C32.9805 29.8325 33.5969 29.6707 34.2183 29.6332C34.8557 29.5949 35.4968 29.6248 36.1342 29.5789C35.1965 29.3172 32.9856 29.3467 31.9855 29.4853C32.1569 29.4339 32.328 29.3825 32.4994 29.3311C32.4489 29.276 32.3979 29.2208 32.3474 29.1652C33.0345 29.1652 33.7245 29.1272 34.4083 29.174C35.389 29.2414 36.3171 28.7658 37.3004 28.9356C37.6445 28.6297 38.1429 28.8496 38.4509 28.6744C38.9417 28.3955 39.3537 28.9166 39.8563 28.6188C40.2358 28.3938 40.7991 28.4789 41.3834 28.4149C41.4289 28.3778 41.5629 28.2687 41.6968 28.1596C41.6728 28.109 41.6488 28.0585 41.6252 28.0079C40.5168 28.1246 39.4084 28.2413 38.2444 28.3643C38.2112 28.3352 38.0978 28.2367 37.9845 28.1381C38.1071 28.0155 38.2154 27.9072 38.3236 27.7994C38.4353 27.8824 38.5469 27.9654 38.7883 28.1452C38.8536 27.8811 38.9143 27.6355 38.975 27.3899L39.2121 27.5908C39.3166 27.6427 39.4215 27.6949 39.5534 27.7602C39.5774 27.6443 39.5989 27.5394 39.63 27.3886C40.0884 27.2766 40.5762 27.1578 41.0695 27.0373C41.1686 27.2471 41.2427 27.4042 41.327 27.5828C41.728 27.4366 42.1198 27.2943 42.4981 27.1565C42.6106 27.2231 42.7324 27.2959 42.9021 27.3966C43.1334 27.1038 43.3436 26.8372 43.5543 26.5705C43.6802 26.696 43.7346 26.7504 43.8138 26.8296C44.0093 26.7339 44.2148 26.6337 44.4331 26.5271C44.3176 26.415 44.2081 26.3089 44.0885 26.193C44.0139 26.2579 43.9347 26.327 43.8134 26.4327C43.6175 26.3434 43.3963 26.2419 43.149 26.129C43.0858 26.3097 43.0395 26.4433 42.9898 26.5852C42.6679 26.4761 42.349 26.3679 41.9955 26.2478C41.5481 26.6055 40.9663 26.3085 40.3862 26.4374C40.2632 26.5541 40.101 26.7078 39.9384 26.8612C39.6195 26.4441 39.1527 26.7407 38.7129 26.5907C38.7066 26.4888 38.6986 26.3582 38.6847 26.1256C38.8477 26.2528 38.9231 26.311 39.06 26.418C39.1721 26.2512 39.2947 26.0692 39.4245 25.8762C39.6187 26.0822 39.7488 26.2204 39.8984 26.3792C40.1411 26.255 40.3808 26.1319 40.6331 26.0022C40.968 26.332 41.2966 26.1442 41.6716 25.9613C41.9871 25.8071 42.3591 25.7688 42.7298 25.6736C42.8057 25.54 42.9 25.3745 43.0883 25.0433C43.2257 25.3762 43.2876 25.5261 43.3807 25.7519C43.716 25.7031 44.0733 25.6513 44.4305 25.5982C44.7912 25.5447 45.2188 25.5923 45.496 25.4111C45.8679 25.1672 46.0992 25.7313 46.4784 25.433C46.7324 25.2329 47.1706 25.2666 47.5232 25.1963C47.6845 25.4318 47.805 25.6083 48.0308 25.9394C47.604 25.9011 47.345 25.8775 46.9523 25.8417C46.9742 25.8215 46.871 25.9171 46.7392 26.0388C46.7977 26.1142 46.8554 26.188 46.9304 26.2853C46.8756 26.3523 46.812 26.4298 46.7501 26.5052C46.7901 26.5461 46.8369 26.6337 46.8778 26.6307C47.2127 26.6067 47.5459 26.5448 47.8808 26.5364C48.2406 26.5279 48.6876 26.7053 48.942 26.549C49.3284 26.3118 49.6852 26.4968 50.0706 26.3822C50.205 26.2545 50.3689 26.0982 50.5817 25.896C50.751 26.0178 50.925 26.1429 51.1883 26.332C50.0277 26.8894 48.8253 26.9404 47.4975 27.2125C48.113 27.3966 48.5949 27.3608 49.0423 27.3023C49.3085 27.2677 49.5512 27.0621 49.8701 27.0861C50.1233 27.1055 50.4822 26.905 50.6217 27.0171C50.9768 27.3023 51.0737 26.8599 51.3067 26.8654C51.6125 26.8726 51.923 26.8966 52.2242 26.8595C52.5798 26.8161 52.9248 26.6948 53.2795 26.643C53.6022 26.5958 53.9089 26.5482 54.2304 26.4496C54.7443 26.2924 55.3417 26.4079 55.9079 26.5865C55.5258 26.6181 55.1441 26.6501 54.5927 26.6965C55.6573 27.1616 56.5015 26.5343 57.371 26.6371C57.5408 26.4058 57.6773 26.1399 57.8888 25.9634C57.9954 25.8745 58.2372 25.9483 58.6593 25.9483C58.2835 26.1324 58.1394 26.2027 57.9933 26.2743C58.0468 26.3215 58.0994 26.4053 58.1441 26.4011C58.6147 26.3594 59.0823 26.4921 59.5579 26.2031C59.9084 25.99 60.3882 26.2267 60.8529 26.0085C61.39 25.7562 62.0738 25.8345 62.6813 25.709C63.2787 25.5851 63.8815 25.4979 64.4751 25.3361C65.3433 25.0998 66.2533 25.0177 67.1233 24.7864C67.9911 24.5559 68.9259 24.6465 69.7474 24.1911C70.1611 23.9615 70.6523 24.095 71.1246 23.9177C72.123 23.5436 73.2032 23.3902 74.2442 23.1244C74.7998 22.9829 75.3248 22.7436 75.9179 22.7221C76.6278 22.696 77.0925 22.3817 77.389 21.8041C77.4703 21.9705 77.5394 22.1129 77.6144 22.2667C77.6995 22.1909 77.7791 22.1201 77.8592 22.0489C77.9367 22.1184 78.0176 22.1909 78.0151 22.1883C78.4389 22.051 78.8109 21.8269 79.1761 21.8374C79.6753 21.8513 79.9719 21.513 80.6182 21.3841C81.6322 21.5939 82.6471 20.6439 83.9029 20.6384C83.9332 20.4341 83.9652 20.223 84.0267 19.8119C84.2075 20.127 84.3153 20.3153 84.3448 20.3667C85.3753 20.21 86.1706 19.8342 86.9399 19.3855V19.0675C87.1118 19.1526 87.2386 19.2512 87.3789 19.276C87.5647 19.3089 87.7601 19.2844 87.9851 19.2844C88.0942 19.1585 88.2189 19.0152 88.3613 18.8509H89.3728C89.4318 18.685 89.479 18.5514 89.5379 18.385C89.6521 18.4575 89.76 18.5261 89.9356 18.6378C90.1602 18.4356 90.4007 18.2186 90.5933 18.045C90.6202 17.7923 90.6392 17.6162 90.6733 17.2998C90.9172 17.6655 91.0752 17.9018 91.242 18.152C91.9287 17.8811 92.5531 17.4788 93.3211 17.3411C93.9985 17.2197 94.5558 16.6881 95.2615 16.4867C95.6507 16.3755 95.9659 15.9643 96.4609 16.0671C96.698 15.6842 97.1197 15.6492 97.4892 15.4992C97.9514 15.3122 98.5588 15.4284 98.882 15.0072C99.208 14.5829 99.8716 14.8252 100.089 14.2893C100.564 14.2358 100.945 13.9038 101.373 13.8019C101.867 13.6848 102.247 13.4838 102.614 13.1641C102.732 13.0613 102.962 13.0882 103.213 13.0423Z" fill="#4243DC" fill-opacity="0.5"/>
<path fill-rule="evenodd" clip-rule="evenodd" d="M0.835711 21.2686C0.880787 21.3709 1.0215 21.539 0.982738 21.625C0.569462 22.5274 0.821388 23.4196 0.99959 24.3098C1.1462 25.0428 1.25952 25.8108 1.69597 26.4284C2.50483 27.5722 3.00447 28.9814 4.36984 29.6672C4.40902 30.3956 5.45927 30.2857 5.49255 31.0195C6.25254 31.3882 6.71258 32.1094 7.35967 32.6103C7.76621 32.925 8.16137 33.2502 8.54431 33.5936C8.69134 33.7254 8.93695 33.7473 9.2053 33.8442C9.28914 34.0157 9.41384 34.2693 9.57013 34.5891C9.85745 34.7715 10.2151 34.9986 10.6259 35.2597C10.6368 35.4544 10.6511 35.7118 10.6659 35.9865C10.7982 36.0345 10.9309 36.0829 11.0636 36.1314C11.2831 36.575 10.815 36.4553 10.6752 36.6045C10.9502 37.2035 11.4402 37.5835 12.0169 37.9201C12.3847 37.6391 12.758 37.3548 13.167 37.0418V35.5037C13.325 35.3377 13.4813 35.1738 13.6452 35.0015C13.55 34.2744 13.7779 33.5287 13.427 32.7952C13.258 32.4431 13.2087 32.0256 12.8873 31.7606C12.6821 31.5916 12.7609 31.1885 12.3396 31.1674C12.247 31.1628 12.1817 30.7301 12.0932 30.4984C11.9175 30.038 11.5156 29.746 11.2026 29.4014C10.4582 28.5799 9.70073 27.7529 8.84595 27.0536C7.99749 26.3606 7.24213 25.5425 6.25339 25.018C5.96439 24.8646 5.74911 24.5748 5.49171 24.3578C5.24231 24.148 4.98154 23.9513 4.65589 23.6935C5.062 23.5182 5.47022 23.3425 5.93785 23.1408C5.99556 23.2958 6.04148 23.4209 6.08993 23.5519C7.09047 23.4588 7.96632 22.8745 9.00224 22.6769V22.1642C9.78499 21.9203 10.5277 21.689 11.2704 21.4577C11.578 21.3566 11.8632 21.8167 12.2604 21.4636C12.1003 21.3886 11.9474 21.317 11.7945 21.2458C12.3443 21.3469 12.8161 20.41 13.4017 21.2256C14.1271 20.3763 15.4478 20.7782 16.0579 19.7705C16.1177 19.8244 16.1977 19.8969 16.3068 19.9959C16.8819 19.7777 17.4616 19.4777 18.0775 19.3467C18.717 19.2098 18.9192 18.5378 19.6918 18.3697C20.4527 18.4881 21.3163 18.2716 22.0489 17.6607C22.1572 17.3321 22.2566 17.0292 22.3632 16.7061C22.3055 16.6092 22.2372 16.4942 22.1694 16.3792C22.3042 16.2435 22.4398 16.1083 22.5928 15.9554C22.2836 15.7999 21.9807 15.6478 21.6748 15.4941C21.8185 15.3508 21.9537 15.2156 22.1235 15.0458C21.9221 14.9279 21.7283 14.8146 21.4755 14.6663C21.0113 15.2295 20.2846 14.8167 19.6455 15.104C18.7473 15.508 17.7034 15.5754 16.7382 15.8458C15.6109 16.1614 14.5021 16.5443 13.3831 16.8906C12.1926 17.2588 11.005 17.6317 9.7892 17.9232C8.79203 18.1616 7.85973 18.6436 6.84149 18.8382C6.49815 19.2591 5.87718 18.8639 5.53342 19.2843C4.66895 19.1955 3.95909 19.8131 3.11105 19.8189C2.94212 19.8202 2.77655 19.939 2.60383 19.9702C1.83036 20.1101 1.10449 20.311 0.835711 21.2686Z" fill="#4243DC" fill-opacity="0.5"/>
</svg>
