<svg width="14" height="19" viewBox="0 0 14 19" fill="none" xmlns="http://www.w3.org/2000/svg">
<path fill-rule="evenodd" clip-rule="evenodd" d="M12.7148 14.6557H13.0016C13.0536 14.7321 13.1078 14.8119 13.1624 14.8926C13.2035 14.8572 13.2331 14.8317 13.2777 14.7933C13.384 14.8504 13.4939 14.9096 13.6019 14.9676C13.6153 15.0509 13.6268 15.1224 13.6388 15.1969C13.7058 15.1606 13.7585 15.1319 13.8079 15.1051C13.8759 15.2399 13.9357 15.3585 14.0004 15.4869C13.9825 15.4926 13.9377 15.5071 13.8786 15.5263V15.7046C13.6635 15.7752 13.5005 15.9534 13.257 15.8924C13.2428 16.0504 13.0918 16.1024 12.996 16.1228C12.7687 16.1711 12.5779 16.3426 12.3641 16.3466C12.1146 16.3512 11.9252 16.4825 11.708 16.5418C11.4473 16.6131 11.179 16.6892 10.9204 16.7847C10.6682 16.8777 10.4031 16.9993 10.1138 16.9904C9.65626 17.2444 9.12471 17.2734 8.63182 17.4178C8.24794 17.5303 7.86076 17.6704 7.44702 17.6994C7.30308 17.7096 7.16586 17.8523 7.0158 17.6417C6.90665 17.8329 6.77824 17.9385 6.56383 17.9316C6.41332 17.9269 6.2552 17.9611 6.11051 18.0069C5.7317 18.1265 5.33692 18.1647 4.94975 18.2408C4.59423 18.3109 4.22871 18.335 3.88036 18.4087C3.41092 18.5082 2.94939 18.4386 2.48592 18.4669C2.40425 18.4719 2.32048 18.4084 2.23463 18.3963C2.14161 18.3832 2.02051 18.4273 1.95646 18.3849C1.87329 18.3297 1.81177 18.3796 1.74398 18.3667C1.64394 18.3477 1.54554 18.3203 1.42624 18.2916C1.38235 18.2177 1.23452 18.1881 1.23482 18.0424C1.23497 18.0057 1.16181 17.9355 1.12582 17.9375C0.853178 17.9525 0.790018 17.7377 0.67206 17.5566C0.62637 17.2041 0.805696 16.957 1.15106 16.8046C1.19645 16.7844 1.24453 16.7653 1.29335 16.7578C1.48507 16.7288 1.68963 16.735 1.86657 16.6705C2.06112 16.5998 2.25105 16.6054 2.4465 16.6005C2.63419 16.5959 2.85532 16.6471 3.00016 16.5691C3.16157 16.4821 3.36299 16.6199 3.47871 16.4468C3.60592 16.5752 3.73135 16.383 3.85811 16.4449C3.99369 16.3333 4.16227 16.3933 4.31128 16.361C4.4494 16.3312 4.59169 16.3139 4.72428 16.2806C5.16103 16.1703 5.60344 16.1051 6.04989 16.0551C6.2434 15.8931 6.51052 16.047 6.71837 15.9038C6.8968 15.7809 7.13585 15.8033 7.34295 15.7595C7.57826 15.7096 7.82493 15.6718 8.06682 15.634C8.29273 15.5987 8.51491 15.5392 8.74187 15.4987C9.07648 15.4391 9.39541 15.3004 9.74152 15.2758C9.88725 15.1114 10.1169 15.2532 10.2908 15.1279C10.4367 15.0226 10.6528 15.0046 10.8297 14.9775C11.2617 14.9113 11.6435 14.7098 12.0633 14.6224C12.1628 14.6017 12.2621 14.5797 12.3772 14.5548C12.3924 14.6503 12.4039 14.7217 12.422 14.8346C12.5237 14.7726 12.6049 14.7228 12.7148 14.6557Z" fill="#F85782"/>
<path fill-rule="evenodd" clip-rule="evenodd" d="M5.90804 10.2246C5.88579 10.2459 5.86653 10.2643 5.84742 10.2828C5.79471 10.2049 5.74186 10.1272 5.67646 10.0307C5.65063 10.1007 5.63405 10.1459 5.60747 10.2177C5.48802 10.2037 5.32647 10.2297 5.2421 10.1643C5.10518 10.0583 5.01559 10.2102 4.89674 10.1699C4.78894 10.1333 4.63231 10.1816 4.55392 10.123C4.4261 10.0276 4.29725 10.081 4.17436 10.0509C4.05387 10.0214 3.93979 9.96741 3.81392 9.92068C3.74658 9.94097 3.66699 9.96498 3.56232 9.99641C3.52306 9.9264 3.48423 9.85653 3.416 9.73436C3.37434 9.8631 3.36045 9.90554 3.33821 9.97455C2.96477 9.76908 2.51713 9.88539 2.1434 9.7055C2.13399 9.66463 2.12563 9.62934 2.10383 9.53603C2.07068 9.62862 2.0568 9.66792 2.04037 9.7135C1.94571 9.68964 1.84432 9.66406 1.73891 9.63734C1.73189 9.57647 1.72487 9.51517 1.71457 9.42544C1.67575 9.4523 1.65201 9.46874 1.61617 9.4936C1.57182 9.47231 1.52076 9.44773 1.44864 9.41315C1.42087 9.47316 1.39698 9.52475 1.37398 9.57447C1.2832 9.51317 1.19212 9.45159 1.08447 9.37886C1.08028 9.34257 1.07327 9.28113 1.06401 9.20168C0.970389 9.24669 0.886326 9.28698 0.777924 9.33914C0.635329 9.14124 0.34372 9.04951 0.252191 8.78345C0.289668 8.74387 0.316097 8.71601 0.342675 8.68815C0.264733 8.61356 0.228898 8.63428 0.146178 8.80203C0.11975 8.80374 0.0931717 8.8076 0.0670418 8.80574C0.0562912 8.80503 0.0464365 8.79188 0.0116465 8.76659C0.0370298 8.71087 0.0652501 8.649 0.0964566 8.58041C0.070476 8.51626 0.0406133 8.44253 0 8.34251C0.103474 8.37851 0.166485 8.40023 0.244725 8.42752C0.220088 8.33465 0.201872 8.26563 0.170815 8.14875C0.313559 8.21048 0.402251 8.24892 0.503486 8.29264C0.480043 8.32022 0.457796 8.34622 0.43077 8.37794C0.500798 8.41195 0.571573 8.44653 0.658175 8.48882V8.22648C0.7506 8.18147 0.828989 8.14332 0.913352 8.10217C1.10641 8.1789 1.30306 8.2572 1.50389 8.33708C1.59362 8.3035 1.93764 8.34594 2.09353 8.41366C2.121 8.3898 2.14937 8.36508 2.19192 8.32822C2.27464 8.36594 2.36498 8.40709 2.45994 8.45039C2.43366 8.47896 2.40918 8.50597 2.38454 8.53283C2.40261 8.54555 2.42724 8.57484 2.44083 8.5707C2.59612 8.52454 2.74215 8.41109 2.91117 8.56227C2.94252 8.59027 3.05227 8.53869 3.12543 8.52269C3.46049 8.44953 3.76808 8.49525 4.03864 8.70344C4.1018 8.68701 4.17123 8.65371 4.23976 8.655C4.32054 8.65643 4.4494 8.72687 4.47299 8.69987C4.59468 8.56012 4.65814 8.7303 4.74892 8.7313C4.83746 8.73244 4.91929 8.7373 5.01291 8.77802C5.17133 8.84718 5.35872 8.86176 5.5361 8.88319C6.13246 8.95506 6.71463 9.07537 7.29024 9.24769C7.7346 9.38057 8.18731 9.49031 8.6145 9.66792C8.90223 9.78737 9.21504 9.89825 9.4411 10.0933C9.64536 10.2692 9.88725 10.4251 10.0466 10.6763C10.0242 10.7098 9.99715 10.7506 9.96594 10.7976C9.98326 10.8169 10.0076 10.8437 10.0357 10.8746C9.93981 10.9615 9.84246 11.0496 9.73301 11.1488C9.60863 11.1128 9.47873 11.0625 9.40586 10.891C9.39048 10.9893 9.37943 11.0608 9.36734 11.1379H9.25132C9.23087 11.0871 9.2131 11.0423 9.19488 10.9966C9.15099 11.0233 9.11067 11.0479 9.05587 11.0813C9.01511 11.0522 8.97465 11.0231 8.93508 10.9948C8.87296 11.0498 8.80712 11.1085 8.73918 11.1687C8.64033 11.0522 8.5715 10.9479 8.47907 10.8687C8.38934 10.7919 8.2018 10.8662 8.15924 10.6685C8.17567 10.6441 8.20299 10.6037 8.24555 10.5407C8.16059 10.5365 8.0825 10.5327 7.97424 10.5274C8.02845 10.5855 8.05398 10.6131 8.10803 10.6714C8.005 10.6663 7.9196 10.6848 7.86166 10.6548C7.72459 10.5838 7.58409 10.5461 7.43448 10.5072C7.29352 10.4707 7.15839 10.4552 7.01685 10.4408C6.89097 10.4279 6.76898 10.3821 6.64311 10.3682C6.51022 10.3538 6.37151 10.3762 6.24131 10.3522C6.12529 10.3309 6.01764 10.2683 5.90804 10.2246Z" fill="#F85782"/>
<path fill-rule="evenodd" clip-rule="evenodd" d="M3.36328 0.517164V0.189669C3.50214 0.0496404 3.66251 -0.0185163 3.90454 0.00434547C3.92709 0.0403528 3.96875 0.106795 4.01772 0.185239C4.28679 0.0267786 4.38922 0.370705 4.60049 0.316123C4.9039 0.508448 5.13011 0.776502 5.44128 0.944393C5.48682 0.968969 5.51922 1.01584 5.5573 1.05284C5.82502 1.31247 6.12364 1.53437 6.43571 1.74413C6.65042 1.88858 6.84423 2.06362 7.03565 2.23708C7.24454 2.42641 7.46239 2.60044 7.71637 2.73204C7.76206 2.75576 7.79372 2.80391 7.83254 2.84021C7.98663 2.98466 8.12579 3.1497 8.30019 3.26686C8.44069 3.36103 8.54447 3.48634 8.66884 3.59164C8.88385 3.77354 9.06258 3.99487 9.25445 4.20162C9.44751 4.40967 9.6464 4.61371 9.82558 4.83232C9.90023 4.92363 9.93054 5.04822 9.9831 5.16196C9.86305 5.26255 9.76197 5.34743 9.60608 5.47831C9.49096 5.54061 9.43318 5.33357 9.29716 5.28599C9.25251 5.31871 9.21249 5.34829 9.18517 5.36829C9.02481 5.33657 8.874 5.30671 8.65481 5.26327C8.20508 4.91105 7.68128 4.53698 7.19198 4.11761C6.9595 3.91857 6.69686 3.73239 6.41645 3.57678C6.21607 3.46562 6.05959 3.28201 5.87802 3.13598C5.39693 2.74933 4.9136 2.35239 4.50702 1.89759C4.12523 1.47021 3.65803 1.107 3.36328 0.517164Z" fill="#F85782"/>
</svg>
