<svg width="11" height="14" viewBox="0 0 11 14" fill="none" xmlns="http://www.w3.org/2000/svg">
<path fill-rule="evenodd" clip-rule="evenodd" d="M0.974345 11.1107L0.756895 11.1107C0.717504 11.1686 0.676414 11.2291 0.634983 11.2903C0.603854 11.2634 0.581442 11.2441 0.547596 11.215C0.467001 11.2583 0.383688 11.3031 0.301847 11.3471C0.29166 11.4103 0.282945 11.4644 0.273889 11.521C0.223063 11.4935 0.183106 11.4717 0.145638 11.4513C0.0941343 11.5536 0.0487413 11.6435 -0.000272813 11.7408C0.0133113 11.7451 0.0472707 11.7562 0.0920963 11.7707L0.0920963 11.9059C0.255098 11.9594 0.378708 12.0944 0.563331 12.0482C0.574084 12.168 0.688526 12.2074 0.761198 12.2229C0.933482 12.2595 1.07815 12.3895 1.24024 12.3926C1.42939 12.396 1.57293 12.4956 1.73762 12.5405C1.93527 12.5946 2.13868 12.6523 2.33473 12.7247C2.52592 12.7952 2.72685 12.8874 2.94622 12.8807C3.29305 13.0731 3.69603 13.0951 4.06969 13.2047C4.36072 13.2899 4.65423 13.3962 4.9679 13.4182C5.07702 13.4258 5.18105 13.5341 5.29481 13.3744C5.37756 13.5193 5.4749 13.5994 5.63745 13.5942C5.75155 13.5906 5.87143 13.6165 5.98112 13.6513C6.26829 13.7419 6.56758 13.7709 6.8611 13.8286C7.13062 13.8817 7.40772 13.9 7.67181 13.9559C8.0277 14.0313 8.37759 13.9785 8.72895 14C8.79087 14.0038 8.85437 13.9557 8.91946 13.9464C8.98998 13.9365 9.08178 13.97 9.13034 13.9378C9.19339 13.896 9.24003 13.9338 9.29142 13.924C9.36726 13.9096 9.44186 13.8888 9.5323 13.867C9.56558 13.811 9.67764 13.7886 9.67742 13.6781C9.6773 13.6503 9.73277 13.5971 9.76005 13.5986C9.96675 13.61 10.0146 13.4472 10.1041 13.3098C10.1387 13.0426 10.0027 12.8553 9.74092 12.7397C9.70651 12.7245 9.67006 12.7099 9.63304 12.7043C9.4877 12.6823 9.33262 12.687 9.19848 12.6381C9.05099 12.5845 8.907 12.5887 8.75883 12.585C8.61654 12.5816 8.4489 12.6204 8.3391 12.5612C8.21674 12.4952 8.06403 12.5998 7.97631 12.4685C7.87986 12.5659 7.78478 12.4202 7.68868 12.4671C7.58589 12.3825 7.4581 12.428 7.34513 12.4035C7.24042 12.3809 7.13254 12.3677 7.03203 12.3425C6.70093 12.2589 6.36553 12.2095 6.02707 12.1716C5.88037 12.0487 5.67786 12.1654 5.5203 12.0569C5.38503 11.9637 5.2038 11.9807 5.0468 11.9475C4.8684 11.9096 4.6814 11.8809 4.49802 11.8523C4.32676 11.8256 4.15832 11.7804 3.98626 11.7498C3.73259 11.7046 3.4908 11.5994 3.22842 11.5808C3.11794 11.4561 2.94384 11.5637 2.81197 11.4687C2.70138 11.3888 2.53758 11.3752 2.40344 11.3546C2.07597 11.3044 1.78653 11.1517 1.46822 11.0854C1.39283 11.0697 1.31756 11.053 1.23028 11.0342C1.21874 11.1065 1.21002 11.1607 1.19632 11.2463C1.11924 11.1993 1.05766 11.1616 0.974345 11.1107Z" fill="#F85782"/>
<path fill-rule="evenodd" clip-rule="evenodd" d="M6.13434 7.75137C6.15121 7.76751 6.16581 7.78148 6.1803 7.79545C6.22026 7.73642 6.26033 7.67749 6.30991 7.60437C6.32949 7.65745 6.34206 7.69168 6.36221 7.74617C6.45276 7.73555 6.57524 7.75527 6.6392 7.70565C6.743 7.62528 6.81092 7.74043 6.90102 7.70988C6.98275 7.68215 7.10149 7.71876 7.16092 7.67435C7.25781 7.60199 7.3555 7.6425 7.44866 7.61964C7.54001 7.59733 7.62649 7.55638 7.72192 7.52096C7.77297 7.53634 7.8333 7.55454 7.91265 7.57837C7.94242 7.5253 7.97185 7.47233 8.02358 7.37971C8.05517 7.47731 8.06569 7.50948 8.08256 7.5618C8.36566 7.40603 8.70502 7.49421 8.98835 7.35783C8.99548 7.32685 9.00182 7.30009 9.01835 7.22936C9.04348 7.29955 9.05401 7.32934 9.06646 7.36389C9.13822 7.3458 9.21508 7.32641 9.295 7.30616C9.30032 7.26001 9.30564 7.21354 9.31345 7.14551C9.34288 7.16588 9.36088 7.17834 9.38805 7.19718C9.42167 7.18104 9.46038 7.16241 9.51505 7.1362C9.53611 7.18169 9.55422 7.2208 9.57165 7.2585C9.64048 7.21203 9.70952 7.16534 9.79114 7.1102C9.79431 7.08269 9.79963 7.03611 9.80665 6.97588C9.87762 7.01 9.94135 7.04055 10.0235 7.08009C10.1316 6.93006 10.3527 6.86052 10.4221 6.65882C10.3937 6.62881 10.3736 6.60769 10.3535 6.58657C10.4126 6.53002 10.4398 6.54573 10.5025 6.6729C10.5225 6.6742 10.5426 6.67713 10.5625 6.67572C10.5706 6.67518 10.5781 6.66521 10.6045 6.64604C10.5852 6.60379 10.5638 6.55689 10.5402 6.50489C10.5599 6.45625 10.5825 6.40036 10.6133 6.32453C10.5348 6.35183 10.4871 6.3683 10.4278 6.38899C10.4464 6.31858 10.4602 6.26626 10.4838 6.17765C10.3756 6.22444 10.3083 6.25358 10.2316 6.28673C10.2494 6.30764 10.2662 6.32735 10.2867 6.3514C10.2336 6.37718 10.18 6.40339 10.1143 6.43546L10.1143 6.23658C10.0442 6.20245 9.98482 6.17353 9.92086 6.14233C9.7745 6.2005 9.62542 6.25986 9.47317 6.32042C9.40514 6.29496 9.14434 6.32713 9.02616 6.37848C9.00533 6.36039 8.98383 6.34165 8.95156 6.3137C8.88885 6.3423 8.82037 6.3735 8.74838 6.40632C8.7683 6.42798 8.78686 6.44846 8.80554 6.46882C8.79185 6.47846 8.77317 6.50067 8.76287 6.49753C8.64514 6.46254 8.53444 6.37653 8.4063 6.49113C8.38253 6.51237 8.29933 6.47326 8.24386 6.46113C7.98985 6.40567 7.75667 6.44033 7.55156 6.59816C7.50368 6.5857 7.45104 6.56046 7.39908 6.56144C7.33784 6.56252 7.24016 6.61592 7.22227 6.59545C7.13002 6.48951 7.08191 6.61852 7.01308 6.61928C6.94596 6.62015 6.88393 6.62383 6.81295 6.6547C6.69285 6.70713 6.55079 6.71818 6.41632 6.73443C5.96421 6.78891 5.52286 6.88012 5.08649 7.01076C4.74962 7.1115 4.40641 7.19469 4.08255 7.32934C3.86443 7.4199 3.62728 7.50396 3.4559 7.65182C3.30105 7.78516 3.11767 7.90334 2.99689 8.09378C3.01387 8.11923 3.03436 8.1501 3.05802 8.18574C3.04489 8.20037 3.02644 8.22073 3.00515 8.24413C3.07783 8.30999 3.15163 8.37682 3.2346 8.452C3.3289 8.4247 3.42738 8.38657 3.48262 8.25658C3.49427 8.33111 3.50265 8.38527 3.51182 8.44377L3.59977 8.44377C3.61528 8.4052 3.62875 8.3713 3.64256 8.33664C3.67584 8.35689 3.7064 8.37552 3.74795 8.40087C3.77885 8.37877 3.80953 8.35668 3.83952 8.33523C3.88661 8.37693 3.93653 8.42145 3.98804 8.46706C4.06297 8.37877 4.11515 8.2997 4.18522 8.23969C4.25325 8.18141 4.39543 8.23774 4.42769 8.08793C4.41524 8.0694 4.39452 8.03875 4.36226 7.99098C4.42667 7.98784 4.48587 7.98491 4.56794 7.9809C4.52685 8.02499 4.50749 8.0459 4.46651 8.09009C4.54462 8.08619 4.60937 8.10027 4.65329 8.07753C4.7572 8.02369 4.86372 7.99509 4.97714 7.96563C5.084 7.9379 5.18644 7.9262 5.29375 7.91526C5.38918 7.90551 5.48166 7.87074 5.57708 7.86023C5.67782 7.84929 5.78298 7.8663 5.88169 7.8481C5.96964 7.83196 6.05126 7.78451 6.13434 7.75137Z" fill="#F85782"/>
<path fill-rule="evenodd" clip-rule="evenodd" d="M8.06348 0.392066L8.06348 0.143789C7.9582 0.0376328 7.83663 -0.0140374 7.65314 0.0032943C7.63605 0.0305917 7.60447 0.080962 7.56734 0.140431C7.36336 0.020301 7.28571 0.281035 7.12553 0.239655C6.89552 0.385458 6.72403 0.588673 6.48813 0.715952C6.4536 0.734584 6.42904 0.770114 6.40018 0.79817C6.19721 0.994993 5.97082 1.16322 5.73424 1.32224C5.57147 1.43175 5.42454 1.56445 5.27942 1.69595C5.12106 1.83948 4.95591 1.97142 4.76336 2.07118C4.72872 2.08916 4.70473 2.12567 4.67529 2.15318C4.55848 2.2627 4.45298 2.38781 4.32077 2.47664C4.21425 2.54802 4.13558 2.64302 4.04128 2.72286C3.87828 2.86075 3.74279 3.02854 3.59733 3.18529C3.45097 3.34301 3.30019 3.49769 3.16435 3.66343C3.10776 3.73264 3.08478 3.8271 3.04493 3.91333C3.13594 3.98959 3.21258 4.05393 3.33075 4.15315C3.41803 4.20038 3.46183 4.04342 3.56496 4.00735C3.5988 4.03216 3.62914 4.05458 3.64985 4.06975C3.77143 4.0457 3.88575 4.02306 4.05192 3.99013C4.39287 3.72311 4.78996 3.43952 5.16091 3.12159C5.33715 2.9707 5.53626 2.82955 5.74885 2.71159C5.90075 2.62731 6.01938 2.48812 6.15703 2.37741C6.52175 2.08429 6.88816 1.78337 7.1964 1.43858C7.48584 1.11458 7.84003 0.839224 8.06348 0.392066Z" fill="#F85782"/>
</svg>
