<svg width="66" height="44" viewBox="0 0 66 44" fill="none" xmlns="http://www.w3.org/2000/svg">
<path fill-rule="evenodd" clip-rule="evenodd" d="M60.2895 6.8374C59.9867 7.14225 59.8434 7.28681 59.6466 7.48438L59.3186 7.48438C58.8936 7.87332 58.4877 8.25355 58.0722 8.62261C57.7218 8.93408 57.3408 9.21409 57.0086 9.54296C56.6387 9.90953 56.2295 10.2297 55.872 10.6182C55.5498 10.9691 55.3058 11.4379 54.8684 11.6558C54.3593 11.9081 54.2044 12.4627 53.7762 12.7808C53.3806 13.0744 53.0401 13.4418 52.6764 13.7761C52.6843 13.784 52.7373 13.8366 52.8028 13.9024C51.8501 15.0402 50.8647 16.1598 50.2339 17.6215C50.1954 17.636 50.0657 17.6857 49.9063 17.7466C49.9721 17.8291 50.0322 17.9044 50.0943 17.9819C49.6942 18.7407 49.3343 19.5385 48.913 20.282C48.394 21.1973 48.0954 22.2229 47.4306 23.0691C47.0967 23.4941 46.8822 24.0549 46.7625 24.5876C46.6896 24.914 46.4783 24.8494 46.3077 24.9707C46.3744 25.0788 46.4407 25.1873 46.5301 25.3323C46.2128 25.9337 45.8864 26.553 45.5501 27.1908C45.4184 27.0707 45.3389 26.9978 45.213 26.8831C44.9359 27.0786 44.4898 27.0686 44.3746 27.7666C44.2549 27.4244 44.1808 27.2128 44.0896 26.9523C43.7906 27.2753 43.673 27.4021 43.5247 27.562C43.6021 27.6891 43.675 27.808 43.755 27.9389C43.6556 28.1141 43.5421 28.3154 43.4323 28.5092C43.3399 28.4947 43.2252 28.5059 43.2053 28.4686C43.0616 28.1903 42.9365 27.902 42.8064 27.6191C42.2717 27.521 42.3202 28.0449 42.094 28.2715C42.0406 28.2181 41.9876 28.1646 41.9134 28.0909C41.7805 28.158 41.6388 28.2292 41.4897 28.3042C41.2996 28.0312 41.1202 27.774 40.8659 27.4087C40.7955 26.4738 40.8009 25.3895 40.5979 24.3457C40.4935 23.8064 40.5793 23.2091 40.3651 22.7576C40.0996 22.1968 40.3535 21.6356 40.1589 21.146C39.9447 20.6059 40.0856 20.0413 39.9257 19.5459C39.7501 19.0021 39.864 18.4383 39.7057 17.943C39.3288 16.7637 39.3831 15.4843 38.8264 14.3556C38.9631 13.8531 38.5248 13.3511 38.8264 12.8487C38.4979 12.3285 38.4151 11.7337 38.2958 11.1472C38.1276 10.3192 37.6919 9.56119 37.6811 8.68515C37.6778 8.43746 37.484 8.19225 37.3104 7.79172C37.0039 8.85083 36.7405 9.75959 36.4186 10.8713C36.3404 10.9343 36.0798 11.143 35.8168 11.3534C35.9121 11.6827 35.9792 11.9143 36.0504 12.1615C35.6578 13.1788 35.6238 14.4119 34.7784 15.3045C35.2001 15.6483 34.8782 16.1395 34.9946 16.5065C34.3804 17.711 34.3153 18.9996 33.9711 20.3702C33.955 20.3847 33.8166 20.511 33.6849 20.6311C33.4989 21.1186 33.7499 21.6347 33.4343 22.1318C33.2048 22.4921 33.1556 23.0393 33.2032 23.4846C33.2612 24.028 33.1146 24.5553 32.9087 24.9525C32.6531 25.4458 32.8246 25.8956 32.6917 26.3993C32.5972 26.4859 32.4589 26.6126 32.2671 26.7882C32.3711 27.9078 32.1524 29.0407 32.0629 30.2141C31.9183 30.3243 31.7738 30.434 31.5874 30.5761L31.5874 31.7342C31.4192 31.5905 31.3418 31.5238 31.1802 31.385C31.2362 31.9645 30.928 32.2959 30.4964 32.6044C30.3912 32.5444 30.2698 32.4752 30.1667 32.4168C29.5831 32.9851 28.9837 33.5687 28.437 34.1014C28.1371 34.0156 27.9097 33.9502 27.616 33.8661C27.5767 33.7845 27.503 33.6312 27.4292 33.4784L27.1646 33.4784C27.1248 33.5965 27.0809 33.7265 27.0142 33.9245C26.3473 33.9738 25.9054 33.5786 25.4995 33.1305C25.4104 32.6057 25.4104 32.6057 24.756 32.2482C24.8927 32.4918 24.9444 32.5841 25.0248 32.7279C24.9229 32.754 24.8073 32.7842 24.6466 32.8252C24.6085 32.5721 24.5775 32.3642 24.5385 32.1066C24.4267 32.1952 24.3521 32.2536 24.297 32.2971C23.7271 31.8846 23.1559 31.4712 22.516 31.0077L22.516 30.5049C22.3838 30.6171 22.3064 30.6825 22.2016 30.7716C22.1569 30.6399 22.115 30.5156 22.0595 30.3516L21.5811 30.3516C21.4345 30.205 21.3285 30.0985 21.2216 29.9917C21.4262 29.746 21.4664 29.3476 21.8764 29.2875C21.3732 28.9267 21.1553 29.3911 20.7925 29.6868C20.773 29.4631 20.7577 29.2888 20.742 29.1057C20.2776 28.8249 19.8779 28.4508 19.2396 28.4322C18.707 28.4169 18.4444 27.8883 18.2278 27.3586C18.1114 27.4447 18.0409 27.4969 17.9009 27.6013C17.8612 27.3992 17.8264 27.2198 17.7821 26.9912C17.7286 26.9986 17.6495 27.0098 17.4143 27.0421C17.1177 26.8313 16.7433 26.4449 16.2872 26.2688C15.6377 26.0182 15.4207 25.3083 14.7514 25.0627C14.1644 24.8473 13.6421 24.4447 13.1496 23.9969C12.4782 23.3864 11.6618 22.9357 10.8529 22.3791L10.8529 22.9987C10.9606 23.0492 11.1155 23.1221 11.3267 23.222C11.2215 23.3897 11.1292 23.5363 11.0194 23.712C11.1872 23.999 11.3359 24.3225 11.5488 24.5963C11.7269 24.8257 11.7472 25.2292 12.1651 25.2279C12.0524 25.6558 12.3697 25.8861 12.6153 26.1371C12.5395 26.2125 12.4865 26.2655 12.4451 26.3069C13.3418 27.2289 13.9188 28.3465 14.4188 29.5145C14.7178 29.7995 15.0164 30.0844 15.3122 30.3669L15.3122 30.7414C15.6688 31.2401 15.9791 31.6737 16.3324 32.167C16.1029 32.2975 15.9401 32.3903 15.7301 32.51C15.9144 32.8335 16.088 33.1375 16.2487 33.4192C16.5424 33.3471 16.7959 33.2854 17.0469 33.2237C17.4954 33.8967 17.9072 34.5143 18.4336 35.3042C17.9958 35.2044 17.8802 34.9774 17.6827 34.8179C17.4089 35.2636 17.8918 35.3638 18.026 35.6074C17.9461 35.718 17.8657 35.8273 17.6943 36.0622C17.9055 36.1169 18.1031 36.1682 18.3007 36.2196C18.2447 36.2772 18.1888 36.3347 18.1333 36.3923C18.2779 36.3074 18.4224 36.2225 18.5819 36.1293C18.731 36.4292 18.854 36.6769 18.975 36.9212C18.8801 37.0298 18.808 37.1122 18.7302 37.2008C18.7985 37.275 18.8706 37.3541 18.9642 37.456C19.2715 37.3984 19.5983 37.3379 19.8962 37.282C20.4309 38.1904 20.9391 39.0548 21.4478 39.9192C21.4167 39.9499 21.386 39.981 21.3554 40.0112C21.268 39.9482 21.1806 39.8857 20.9644 39.7304C21.0692 40.3007 21.1557 40.7712 21.2564 41.318C20.8231 41.446 20.4226 41.564 19.8411 41.7351C19.8282 41.7512 19.6899 41.9273 19.5143 42.1505C18.7778 41.0148 17.855 40.1214 17.0104 39.1803C15.8415 37.8776 14.9489 36.3911 13.8753 35.0296C12.7574 33.6122 11.8271 32.0457 10.8102 30.5475C10.2316 29.6943 9.62604 28.8584 9.06396 27.994C8.27533 26.7804 7.46639 25.5759 6.76763 24.3117C6.45988 23.7546 5.96781 23.3412 5.7516 22.6996C5.56603 22.1488 5.0955 21.6927 4.7455 21.1986C3.85207 19.9365 2.99674 18.6496 1.96124 17.4894C1.28651 16.7343 0.710768 15.8898 -1.26312e-06 14.9678L-1.32209e-06 13.6187C0.327218 13.6083 0.679703 13.4812 1.03799 13.8407C1.07112 13.5437 1.10177 13.2662 1.13077 13.004C2.05609 12.4639 3.05266 12.3707 4.2145 12.5149C4.29029 12.6209 4.44189 12.833 4.72024 13.2211C4.74343 13.2791 4.85899 13.5669 4.99734 13.9128C5.35148 13.7852 5.6174 13.6895 5.86799 13.5992C6.27349 13.8991 6.70053 14.1721 7.07456 14.5043C7.39349 14.7872 7.99118 14.7685 7.9129 15.4756C8.07982 15.3095 8.13284 15.256 8.23225 15.157C8.43355 15.6806 9.25905 15.5493 9.26899 16.2659C9.46698 16.2895 9.64467 16.3106 9.85509 16.3354C9.87663 16.4286 9.90024 16.531 9.92633 16.6444C11.2692 17.1552 12.3295 18.1202 13.4661 19.0166C13.5489 19.0166 13.6877 18.9743 13.7705 19.024C14.1048 19.2253 14.5857 19.3889 14.7079 19.6896C14.9059 20.1784 15.6365 20.1523 15.5876 20.7985C15.861 20.8142 16.1145 20.8287 16.3862 20.844C16.4322 20.9695 16.4798 21.1 16.5382 21.2595C16.6704 21.2665 16.8153 21.274 17.039 21.2864C17.2933 21.5544 17.5891 21.8659 17.9391 22.2345C17.6856 22.3542 17.536 22.4246 17.3285 22.522C17.6122 22.7117 17.8682 22.8827 18.1246 23.0538C18.2373 22.9838 18.3491 22.9138 18.5276 22.8015C18.6349 22.9813 18.7041 23.1756 18.8387 23.2982C18.9563 23.4054 19.1477 23.432 19.3038 23.4933C19.3995 23.4274 19.5151 23.3475 19.7118 23.212C19.8224 23.3996 19.9164 23.5604 20.0755 23.8304C20.0556 23.9004 19.9906 24.1307 19.9164 24.3925L20.3741 24.3925C20.5796 24.7773 20.72 25.0478 21.2166 25.1534C22.0608 25.3327 22.8005 25.86 23.573 26.2614C23.6915 26.3227 23.7267 26.5438 23.7992 26.6896C23.8915 26.613 23.9682 26.5496 23.9603 26.5559C24.3302 26.8723 24.7175 27.1192 24.9888 27.4588C25.265 27.8039 25.427 28.2408 25.6921 28.7379C25.9389 28.8385 26.0035 28.6008 25.8789 27.9886C26.1957 28.3837 26.3022 28.5163 26.431 28.6774C26.3602 28.8191 26.2873 28.9649 26.1485 29.2424C26.4612 29.1206 26.6712 29.039 26.9082 28.9466C26.9819 29.0021 27.0676 29.0655 27.2068 29.1695C27.3054 29.0639 27.5245 28.9301 27.5117 28.8249C27.4487 28.3104 27.6951 27.9223 27.8977 27.545C27.6806 26.7182 28.1371 25.9934 28.2233 25.2259C28.3173 24.3809 28.4564 23.5268 28.7124 22.7199C28.9568 21.947 29.2281 21.1634 29.3002 20.3789C29.3764 19.5459 29.6763 18.7842 29.8092 17.9749C29.9447 17.1498 30.1994 16.3367 30.479 15.5452C30.7491 14.7826 30.8282 13.9786 31.1123 13.212C31.401 12.4328 31.6388 11.6049 31.7908 10.7876C31.9415 9.97746 32.3139 9.26172 32.5077 8.47805C32.7008 7.69728 32.9315 6.92438 33.1841 6.16059C33.4463 5.36781 33.7611 4.59243 34.0407 3.80503C34.3095 3.04829 34.563 2.28574 34.8451 1.46148C35.0443 1.26225 35.3073 0.99882 35.567 0.739115C35.6391 0.803316 35.7215 0.875803 35.7953 0.94166C36.2786 0.976454 36.2741 0.561011 36.4008 0.335684C36.8863 0.246218 37.3407 0.162134 37.8319 0.0714247C37.8733 0.109946 37.9549 0.185328 38.0303 0.255327C38.6209 -0.272363 39.1246 0.129412 39.5666 0.463671C40.0127 0.801661 40.3755 1.249 40.8025 1.67604C40.955 2.76415 41.8372 3.70852 41.5034 4.94988C41.6703 4.98426 41.7734 5.00539 41.9462 5.04059C42.0559 5.70829 42.1715 6.4145 42.3024 7.21391C42.3285 7.22178 42.4569 7.2603 42.5521 7.28888C42.7261 7.91598 42.9104 8.52113 43.0562 9.13539C43.1134 9.37687 43.1825 9.69621 43.0749 9.88012C42.8015 10.3478 42.8035 10.7379 43.0749 11.2039C43.1995 11.4181 43.1482 11.7337 43.3308 11.9942L43.3308 11.1082C43.4667 11.1724 43.5657 11.2014 43.5636 11.2213C43.5098 11.8128 43.7347 12.3583 43.912 12.8893C44.0615 13.3366 44.1406 13.8395 43.9579 14.1646C43.721 14.5863 43.8995 14.9499 43.7127 15.5054C43.9451 15.3381 44.0126 15.2896 44.0809 15.2403C44.5113 15.9101 44.631 16.1896 44.3713 16.7157C44.1634 17.1365 44.3253 17.4869 44.4202 17.8796C44.4541 17.5797 44.4881 17.2798 44.5465 16.7641C44.7018 17.4948 44.8108 18.008 44.9644 18.732C45.7696 16.9464 46.893 15.6077 47.8568 14.1634C48.8385 12.6921 49.4622 12.0079 50.615 11.1016C50.8241 10.9367 50.926 10.6406 51.1257 10.4575C51.4719 10.1411 51.8841 9.89337 52.2163 9.56408C52.5211 9.26172 52.7129 8.83965 53.0318 8.55716C53.8764 7.81036 54.8415 7.20728 55.6409 6.4C55.7192 6.32089 55.925 6.36728 56.0882 6.35444C56.1872 6.19456 56.2551 5.96302 56.4096 5.85533C57.1647 5.32888 57.9132 4.78089 58.7221 4.34888C59.365 4.00551 59.9792 3.61036 60.6614 3.31255C61.3353 3.01805 62.0295 2.97166 62.698 2.78195C63.3898 2.58603 64.1337 2.77533 64.856 3.11125C64.1689 3.90817 65.0391 4.65912 64.9911 5.46349C65.0205 5.08492 65.0499 4.70592 65.0793 4.32692C65.1393 4.33065 65.1998 4.33479 65.2599 4.33852L65.2599 5.08616C65.2599 5.31231 65.2562 5.53846 65.2607 5.7642C65.2665 6.01728 65.1911 6.29687 65.4744 6.46628C65.1414 6.60627 65.5324 6.8784 65.3846 7.01965C65.1199 7.27355 65.6803 7.39408 65.4541 7.66C65.3295 7.80704 65.2922 8.04852 65.2673 8.25355C65.2367 8.50704 65.2599 8.76675 65.2599 8.99994C65.0718 9.0658 64.9409 9.11178 64.7338 9.18426C64.9331 9.25302 65.059 9.29651 65.2346 9.35657C65.245 9.47627 65.2574 9.61752 65.2773 9.84864C65.0606 10.0657 64.8038 10.3229 64.5731 10.554C64.5839 10.7541 64.5918 10.8986 64.5988 11.0308C64.7587 11.0892 64.8888 11.1368 65.0689 11.2023C64.878 11.2938 64.7318 11.3638 64.5856 11.4342L64.5856 11.6819C64.7305 11.7502 64.8854 11.8236 65.0565 11.9039C64.8453 12.5538 64.5429 13.1594 64.5599 13.8693C64.5673 14.1907 64.3325 14.5179 64.1937 14.8779C64.1896 14.8721 64.2306 14.9251 64.2931 15.0063C64.1411 15.575 63.9837 16.1644 63.7895 16.8905C63.5902 16.6457 63.4573 16.4821 63.3334 16.3301C63.2829 16.6904 63.3106 16.929 63.4527 17.2997C63.4312 17.3283 63.4125 17.3594 63.3881 17.3859C63.3363 17.4405 63.2821 17.4927 63.2195 17.5549C63.2746 17.6054 63.3305 17.6543 63.3835 17.706C63.4092 17.7313 63.4299 17.762 63.4544 17.7926C63.3575 18.09 63.2597 18.3895 63.1313 18.783L62.138 18.783C62.1132 18.8339 62.0888 18.8849 62.0643 18.9362C62.2064 19.029 62.3489 19.1214 62.551 19.2535C62.6326 19.2088 62.7767 19.1292 63.0514 18.9785C62.9221 19.5012 62.8169 19.9278 62.7142 20.342C62.5775 20.3723 62.4748 20.3946 62.3679 20.4182C62.754 20.9878 62.4417 21.4065 62.1124 21.8323C62.0076 21.9682 61.9272 22.1334 61.8759 22.2975C61.7603 22.6653 61.67 23.0409 61.5495 23.4899C61.5362 23.4937 61.436 23.5231 61.2289 23.5844C61.243 23.794 61.2599 24.0454 61.2873 24.4451C61.3411 24.3809 61.2504 24.4455 61.2206 24.5308C60.9783 25.2217 60.8184 25.9404 60.5185 26.6122C60.4904 26.6756 60.5131 26.7592 60.4957 26.8292C60.3814 27.2849 59.7953 27.4895 59.8413 28.0242C59.8819 28.4964 59.5083 28.7913 59.3803 29.1914C59.2428 29.6218 59.0651 30.0393 58.8978 30.4593C58.8464 30.5889 58.7449 30.7024 58.7155 30.8346C58.6832 30.9779 58.708 31.134 58.708 31.3531C58.5689 31.4583 58.3908 31.5938 58.2586 31.6936L58.2586 32.4599C57.7835 32.9126 57.2956 33.3628 57.3495 34.1125C57.3544 34.1792 57.342 34.2749 57.2989 34.313C56.5687 34.9575 56.5687 35.9727 56.0493 36.7415C55.5485 37.4829 55.2963 38.3875 54.8564 39.1766C54.274 40.222 53.6167 41.2252 52.9859 42.2433C52.9283 42.3369 52.8425 42.4297 52.7473 42.4811C51.8572 42.9624 50.9617 43.4341 50.1523 43.8645C49.5969 43.7568 49.1404 43.6682 48.5535 43.5543C48.4421 43.3728 48.2594 43.0746 48.0817 42.7851C48.3153 42.1804 48.5125 41.5831 48.7755 41.016C49.0398 40.4461 49.3314 39.8803 49.6789 39.3584C50.4389 38.2152 50.9236 36.9312 51.5933 35.7449C51.9897 35.0428 52.1769 34.2211 52.7841 33.6391C53.135 32.3112 53.8341 31.1365 54.3871 29.8968C54.6261 29.3608 54.9483 28.8547 55.1033 28.2723C55.2453 27.7355 55.4719 27.2215 55.6591 26.6967C56.2456 25.0565 56.8392 23.4195 57.4133 21.7751C57.7123 20.919 57.9927 20.055 58.2516 19.1856C58.5121 18.3099 58.6849 17.3917 58.9785 16.5463C59.493 15.0647 59.5795 13.5065 60.0343 12.0199C60.2746 11.235 60.2431 10.3602 60.2812 9.52349C60.3189 8.70834 60.2895 7.88989 60.2895 6.8374Z" fill="#2FBF7D"/>
</svg>
