<svg width="18" height="23" viewBox="0 0 18 23" fill="none" xmlns="http://www.w3.org/2000/svg">
<path d="M9.39028 0.693966C8.78428 0.707966 8.03028 0.753967 6.54028 0.869967C6.33828 0.885967 6.16628 0.915966 5.95628 0.969967C5.58828 1.06397 5.53428 1.14597 5.03628 2.35797C4.50028 3.66597 4.47028 3.73597 3.82028 5.06997C3.52628 5.67397 3.17428 6.40397 3.03828 6.68997C2.66828 7.46797 2.23628 8.32997 1.94228 8.87997C1.15828 10.338 0.862282 11.098 0.938282 11.466C0.970282 11.62 1.19028 12.046 1.28428 12.132C1.44828 12.282 1.54028 12.34 1.64228 12.36C1.82428 12.394 2.22828 12.332 3.32028 12.1C4.36028 11.878 4.85828 11.802 5.48428 11.768L5.73628 11.754L5.64028 12.142C5.49628 12.714 5.42428 13.068 5.19028 14.34C5.07428 14.972 4.89028 15.94 4.78028 16.49C4.67228 17.04 4.53628 17.728 4.48028 18.02C4.31628 18.864 4.17028 19.538 3.97828 20.304C3.75428 21.202 3.74428 21.258 3.77628 21.442C3.80228 21.598 3.83428 21.676 3.93228 21.83C3.96628 21.884 4.02628 21.994 4.06628 22.072C4.10628 22.152 4.16428 22.234 4.19428 22.258C4.22428 22.282 4.30228 22.342 4.36628 22.392C4.54228 22.532 4.58028 22.516 4.98028 22.158C5.24628 21.92 5.31628 21.864 5.73028 21.55C6.37228 21.064 6.90028 20.628 7.38028 20.184C7.50628 20.068 8.18228 19.398 8.88028 18.698C9.57828 17.998 10.3083 17.278 10.5003 17.098C11.0903 16.548 12.1743 15.5 12.4803 15.188C12.8103 14.85 13.3063 14.328 13.8903 13.7C14.6083 12.93 14.9703 12.556 15.3743 12.166C16.5743 11.006 17.0243 10.492 17.2683 9.99797C17.3303 9.87197 17.3803 9.75397 17.3803 9.73397C17.3803 9.71397 17.3943 9.67797 17.4103 9.65397C17.4683 9.56397 17.5243 9.27997 17.5163 9.10597C17.5103 8.94997 17.5063 8.93797 17.4423 8.87197C17.4043 8.83197 17.3323 8.78597 17.2823 8.76597C17.2323 8.74797 17.1703 8.71597 17.1443 8.69797C16.9803 8.57197 16.4983 8.48397 15.4203 8.37997C15.1843 8.35797 14.7463 8.31197 14.4463 8.27997C13.8983 8.21997 13.1243 8.15397 12.6563 8.12797L12.4023 8.11397L12.5343 7.97197C13.2543 7.19597 14.3443 5.69997 15.2003 4.30997C15.5983 3.66197 16.0203 2.80397 16.3263 2.01397C16.3963 1.83397 16.4183 1.79797 16.4603 1.78597C16.4883 1.77997 16.5263 1.75997 16.5463 1.74197C16.5883 1.70597 16.6803 1.52197 16.6803 1.47397C16.6803 1.45597 16.6883 1.43797 16.6983 1.43197C16.7463 1.40197 16.7583 1.12197 16.7143 1.09197C16.6923 1.07797 16.6963 1.04997 16.7443 0.935966C16.7763 0.859966 16.7983 0.783966 16.7923 0.767967C16.7743 0.719967 16.6903 0.735966 16.4963 0.821966C16.3943 0.865967 16.2863 0.913967 16.2563 0.925966C16.2163 0.941967 16.0803 0.935966 15.6663 0.893967C14.9623 0.821966 14.9883 0.823967 14.2603 0.789967C12.5423 0.709967 10.4683 0.667967 9.39028 0.693966ZM14.0043 1.85197L15.0383 1.86597L14.7903 2.11797C14.4303 2.48397 14.4683 2.43597 13.4783 3.81397C13.0323 4.43197 12.3563 5.30197 11.3923 6.49797C10.8543 7.16597 10.6003 7.45797 10.2643 7.78797C10.0163 8.03197 9.95428 8.10597 9.91028 8.20597C9.86228 8.30997 9.85828 8.33997 9.86828 8.44397C9.88628 8.59997 9.92228 8.69797 10.0363 8.88997C10.0883 8.97797 10.1583 9.10397 10.1903 9.16997C10.2303 9.24997 10.2803 9.30997 10.3403 9.35397C10.3903 9.39197 10.4723 9.45597 10.5243 9.49797C10.6403 9.59397 10.7263 9.60797 11.4203 9.64997C11.6903 9.66597 12.1663 9.70197 12.4803 9.72997C13.5803 9.82597 14.4023 9.87797 14.8803 9.88197C15.0403 9.88397 15.2503 9.88997 15.3463 9.89797L15.5243 9.90997L15.3063 10.122C15.0623 10.36 15.0323 10.39 14.6703 10.728C13.6583 11.674 13.0703 12.274 11.9403 13.51C11.3523 14.154 10.9023 14.616 9.94028 15.566C9.64828 15.852 9.18228 16.314 8.90228 16.588C8.19428 17.286 7.95228 17.538 7.14028 18.43C6.75028 18.86 6.28228 19.36 6.10028 19.542C5.79228 19.85 5.40828 20.2 5.37828 20.2C5.37028 20.2 5.38228 20.126 5.40228 20.034C5.64428 18.986 5.96228 17.158 6.25028 15.16C6.45028 13.772 6.52028 13.34 6.67428 12.57C6.82428 11.82 6.82628 11.806 6.82828 11.49C6.83028 11.136 6.81428 11.06 6.71628 10.95C6.68428 10.912 6.62428 10.872 6.58428 10.858C6.54428 10.846 6.48428 10.816 6.45028 10.792C6.36428 10.732 6.14628 10.728 5.50628 10.778C4.56628 10.854 4.11228 10.916 3.19028 11.1C2.55628 11.226 2.22228 11.28 2.07428 11.28C1.96228 11.28 1.95828 11.278 1.97028 11.234C1.97628 11.21 2.23628 10.682 2.54828 10.06C3.16628 8.83197 3.24228 8.66797 3.64028 7.70997C4.09828 6.60397 4.27428 6.19397 4.60428 5.46197C5.00428 4.57197 5.15228 4.22197 5.61428 3.06997C6.01428 2.07597 6.03228 2.03597 6.10428 1.95797L6.15428 1.90597L6.85228 1.91597C7.32428 1.92197 8.00628 1.90997 8.96028 1.88197C11.0343 1.81797 11.2223 1.81797 14.0043 1.85197Z" fill="#1E1E1E"/>
</svg>
