<svg width="404" height="209" viewBox="0 0 404 209" fill="none" xmlns="http://www.w3.org/2000/svg">
<path fill-rule="evenodd" clip-rule="evenodd" d="M226.51 111.148C225.562 111.537 224.773 112.206 224.145 112.056C222.056 111.557 220.019 111.989 217.974 112.028C215.466 112.074 212.922 112.794 210.501 112.728C207.174 112.638 203.823 112.775 200.568 112.985C197.213 113.201 193.817 112.857 190.467 113.45C188.968 113.714 187.327 113.178 185.746 113.048C185.577 113.035 185.39 113.306 185.163 113.485C185.255 113.797 185.354 114.129 185.479 114.553C187.491 114.398 189.527 113.825 191.393 114.222C193.069 114.577 194.583 113.521 195.876 113.989C197.431 114.552 198.784 113.33 199.999 113.977C201.428 114.74 202.552 113.294 203.811 113.888C205.319 114.6 206.66 113.232 207.985 113.542C209.846 113.978 211.684 112.7 213.153 113.275C215.144 114.055 216.874 112.001 218.658 113.399C220.445 112.528 222.375 113.113 224.228 112.918C226.322 112.698 228.454 112.117 230.498 112.386C232.243 112.616 233.887 111.717 235.33 112.115C236.668 112.485 237.752 111.686 238.779 112.037C240.166 112.51 241.328 112.004 242.595 111.916C243.651 111.842 244.725 111.82 245.799 111.842C247.774 111.884 249.805 112.193 251.722 111.389C252.166 111.203 252.881 110.898 253.106 111.099C254.515 112.351 255.853 110.642 257.243 111.211C258.828 111.858 260.266 110.815 261.789 110.649C262.27 110.597 262.866 110.192 263.19 110.379C264.408 111.075 265.595 110.156 266.626 110.433C268.048 110.813 268.808 109.626 269.972 109.57C271.712 109.483 273.45 109.332 275.186 109.175C276.668 109.041 278.145 108.857 279.804 108.677C279.844 108.622 280.038 108.348 280.149 108.194C281.087 108.454 281.925 108.687 282.557 108.865C283.866 107.752 285.147 107.394 286.612 107.877C288.227 108.409 289.214 107.163 290.358 106.481C291.676 105.695 293.229 107.657 294.608 105.806C295.299 104.879 297.155 104.904 298.637 104.455C296.037 103.596 293.673 103.86 291.498 104.74C289.261 105.649 286.706 104.362 284.642 105.928C283.056 105.19 282.011 106.231 280.897 107.173C280.164 106.747 279.447 106.329 278.625 105.85C277.913 106.354 277.273 106.808 276.601 107.284C275.387 106.757 274.179 106.469 273.368 107.97C272.812 107.602 272.292 107.257 271.684 106.852C268.981 107.322 266.297 108.409 263.367 107.973C262.128 107.789 260.825 107.861 259.586 108.042C257.261 108.384 254.988 108.848 252.601 108.988C250.054 109.138 247.357 108.672 244.864 109.74C244.46 109.914 243.797 109.453 243.224 109.275C242.972 109.628 242.799 110.136 242.555 110.172C240.611 110.453 238.655 110.672 236.697 110.836C236.399 110.861 236.063 110.508 235.742 110.33C235.554 110.615 235.354 110.914 235.053 111.372C234.051 111.096 232.984 110.801 231.914 110.506C231.854 110.61 231.814 110.772 231.722 110.815C230.252 111.496 228.56 110.656 227.078 111.44C226.897 111.536 226.46 111.121 226.51 111.148ZM67.1522 114.732C66.9169 114.254 66.7592 113.935 66.5143 113.438C66.2788 113.725 66.0954 113.952 65.8896 114.206C63.8843 113.574 61.8573 112.877 59.8025 112.305C57.0454 111.538 54.2756 110.975 51.5529 109.895C49.2426 108.979 46.5351 108.768 44.4535 107.361C42.4852 106.034 39.985 106.806 38.299 105.006C35.8041 105.216 34.0692 103.098 31.8051 102.548C31.1392 102.387 30.6134 101.936 29.7953 102.072C28.9701 102.206 28.9341 101.999 27.6144 100.408C27.3565 100.428 27.0166 100.444 26.6803 100.487C26.4412 100.517 26.0569 100.705 25.99 100.617C24.3726 98.472 21.5064 99.7545 19.7608 98.0066C19.5957 97.8423 19.4331 97.4901 19.2968 97.5009C15.4289 97.835 12.3969 94.9195 8.77643 94.361C7.42076 94.1506 6.60808 92.904 5.31811 92.6383C4.76579 92.5232 4.22919 92.3023 3.61772 92.1084C3.34212 91.5556 3.11641 90.8356 2.67935 90.3036C2.24036 89.7692 1.59071 89.4197 0.772833 88.7899C2.48136 87.4667 4.42908 87.7615 5.84429 86.4834C4.51837 86.7175 3.19244 86.9516 1.77124 87.2016C1.62361 86.9151 1.46096 86.5989 1.29925 86.2869C5.47369 83.7391 5.49987 83.5645 11.321 84.6355C15.4391 85.3949 19.72 85.529 23.5775 87.6237C26.8258 87.6513 29.7509 89.2042 32.8307 90.0126C37.0298 91.1154 41.1268 92.6625 45.3051 93.861C50.564 95.3713 55.8539 96.7579 61.1459 98.1296C66.0993 99.4139 71.1099 100.316 76.1489 101.156C79.473 101.71 82.8157 102.49 86.1584 103.096C89.5025 103.701 92.8641 104.19 96.2221 104.706C98.6843 105.083 101.169 105.758 103.615 105.68C106.202 105.597 108.474 107.01 111.007 106.924C112.605 106.87 114.22 107.623 115.816 106.935C116.036 106.839 116.335 106.703 116.519 106.784C119.582 108.141 122.823 107.526 125.972 107.906C129.243 108.3 132.537 108.467 135.823 108.646C137.642 108.746 139.451 108.596 141.276 108.968C143.43 109.406 145.594 108.781 147.792 109.034C150.504 109.347 153.273 109.349 155.976 109.311C158.617 109.273 161.263 109.295 163.898 109.382C169.036 109.548 174.17 108.987 179.315 109.659C180.676 109.838 181.962 109.237 183.464 109.483C185.487 109.817 187.791 108.579 189.688 109.145C191.782 109.768 193.623 107.904 195.535 109.225C199.186 108.279 203.008 109.098 206.687 108.3C207.78 108.061 208.971 108.276 210.115 108.263C211.38 108.251 212.645 108.244 213.906 108.18C215.053 108.124 216.178 107.17 217.342 108.194C219.148 107.507 221.084 107.926 222.904 107.634C225.235 107.261 227.682 107.994 229.913 106.905C231.56 108.13 233.337 106.105 235.035 107.238C235.332 107.436 235.954 107.087 236.428 106.996C237.8 106.733 239.086 106.338 240.595 106.755C241.887 107.113 243.158 105.862 244.77 106.558C245.699 106.957 247.086 106.14 248.215 105.883C248.797 106.27 249.317 106.614 249.853 106.97C251.481 105.141 253.299 105.699 255.16 106.626C255.875 105.135 257.528 104.967 258.561 105.288C259.891 105.699 260.922 105.304 262.037 105.072C265.293 104.394 268.69 104.792 271.913 103.719C272.741 103.443 273.88 104.129 274.847 104.366C275.242 104.091 275.669 103.703 276.164 103.469C277.548 102.814 279.116 103.288 280.605 102.571C281.839 101.977 283.584 102.158 285.014 102.475C285.801 102.649 285.927 102.084 286.273 102.039C288.233 101.784 290.021 100.323 292.2 101.32C292.747 101.568 293.601 101.057 294.312 100.895C299.416 99.733 304.517 98.5546 309.627 97.4229C310.779 97.1664 311.992 96.8225 313.131 96.9727C314.301 97.1274 314.652 95.672 315.807 95.967C316.554 96.1588 317.375 96.0081 318.294 96.0093C319.037 95.6773 319.935 95.1081 320.913 94.8667C324.695 93.9366 328.468 92.8872 332.311 92.3036C337.094 91.5781 341.439 89.473 346.042 88.1859C349.359 87.2592 352.328 85.0624 355.698 83.3046C356.414 83.4084 357.501 83.5661 358.671 83.735C358.771 83.5897 358.97 83.2965 359.212 82.9402C360.046 83.611 360.877 84.2797 361.85 85.0629C359.958 86.0618 358.368 86.8994 356.507 87.8826C357.192 88.521 357.619 88.9183 358.133 89.398L361.805 88.5623C362.375 88.9415 362.791 89.2187 363.527 89.7057C362.854 90.5306 362.184 91.3552 361.41 92.307C362.183 92.4337 362.628 92.5068 363.117 92.5874C364.02 94.5587 363.011 96.0946 362.124 97.6447C362.408 97.8553 362.688 98.0669 362.759 98.1199C362.103 99.2035 361.47 100.249 360.715 101.498C359.719 101.475 358.253 100.449 357.109 101.903C357.393 102.117 357.678 102.33 358.214 102.733C356.599 102.824 355.193 102.902 353.79 102.98C353.789 103.178 353.788 103.38 353.787 103.579C354.482 103.596 355.177 103.612 356.093 103.632C355.315 104.318 354.684 104.876 353.866 105.597C353.567 105.207 353.308 104.872 352.809 104.224C352.233 104.318 351.346 104.462 350.264 104.639C350.733 105.314 351.074 105.806 351.699 106.705C350.83 106.902 350.283 107.07 349.723 107.147C345.67 107.705 342.147 109.998 338.092 110.649C334.011 111.304 330.031 112.544 325.957 113.252C325.09 113.404 324.885 114.921 323.646 114.126C323.263 113.88 322.183 114.855 321.793 114.61C320.386 113.725 320.38 115.559 319.442 115.697C317.812 115.937 316.229 115.416 314.551 115.871C309.501 117.235 304.376 118.334 299.25 119.394C297.319 119.795 295.289 119.703 293.335 120.02C291.33 120.345 289.365 120.895 287.355 121.195C290.068 119.682 296.944 118.218 300.147 117.963C299.578 117.917 299.009 117.87 298.44 117.824C298.556 117.609 298.673 117.393 298.788 117.177C296.658 117.662 294.491 118.025 292.406 118.66C289.415 119.571 286.186 118.679 283.263 119.925C281.97 119.173 280.587 120.24 279.503 119.887C277.775 119.326 276.883 121.313 275.105 120.698C273.761 120.234 272.078 120.909 270.219 121.113C270.051 121.024 269.555 120.764 269.059 120.503C269.096 120.322 269.133 120.14 269.168 119.959C272.691 119.557 276.214 119.154 279.913 118.733C279.995 118.615 280.273 118.214 280.551 117.813C280.081 117.501 279.665 117.225 279.249 116.951C278.965 117.299 278.68 117.648 278.065 118.404C277.667 117.591 277.297 116.834 276.927 116.078L276.34 116.899C276.055 117.142 275.768 117.386 275.408 117.691C275.248 117.331 275.103 117.005 274.895 116.536C273.391 116.495 271.791 116.453 270.172 116.409C270.021 117.161 269.907 117.725 269.778 118.366C268.427 118.173 267.106 117.986 265.832 117.805C265.532 118.101 265.209 118.424 264.757 118.872C263.823 118.082 262.974 117.363 262.123 116.644C261.826 117.141 261.698 117.356 261.511 117.67C260.834 117.497 260.122 117.316 259.367 117.123C259.642 116.677 259.903 116.254 260.188 115.793C260.467 115.951 260.764 116.12 261.218 116.378C261.759 115.95 262.37 115.463 263.053 114.921C263.382 115.465 263.625 115.867 263.884 116.293C264.801 115.711 265.71 115.134 266.717 114.494C268.369 115.342 269.952 113.965 271.846 113.975C272.314 114.268 272.931 114.654 273.548 115.038C274.228 113.456 275.895 114.091 277.147 113.293C277.091 112.957 277.019 112.526 276.89 111.76C276.479 112.289 276.288 112.531 275.943 112.976C275.472 112.512 274.957 112.007 274.412 111.47C273.963 112.278 273.661 112.819 273.315 113.441C272.471 113.208 271.637 112.977 270.758 112.733C269.964 114.043 268.807 113.663 267.509 113.333C266.416 113.054 265.235 113.192 264.015 113.144C263.681 112.763 263.266 112.291 262.437 111.346C262.257 112.526 262.177 113.058 262.055 113.858C260.979 113.936 259.833 114.019 258.687 114.099C257.529 114.179 256.239 114.636 255.245 114.242C253.911 113.711 253.612 115.709 252.216 115.007C251.28 114.535 249.947 114.954 248.801 114.974C248.476 115.854 248.233 116.513 247.778 117.75C249.073 117.324 249.858 117.064 251.049 116.671C250.966 116.62 251.357 116.859 251.856 117.162C251.73 117.448 251.606 117.729 251.446 118.099C251.665 118.278 251.92 118.485 252.167 118.687C252.074 118.848 251.994 119.166 251.865 119.185C250.809 119.344 249.73 119.377 248.685 119.586C247.564 119.813 246.309 120.705 245.405 120.376C244.031 119.877 243.062 120.731 241.782 120.63C241.271 120.31 240.647 119.917 239.838 119.409C239.403 119.925 238.956 120.454 238.28 121.256C242.291 122.25 246.056 121.567 250.374 121.516C248.603 122.549 247.082 122.773 245.652 122.898C244.801 122.973 243.896 122.476 242.925 122.779C242.155 123.021 240.893 122.622 240.544 123.085C239.654 124.263 239.026 122.892 238.308 123.075C237.365 123.314 236.421 123.611 235.459 123.703C234.325 123.813 233.165 123.661 232.027 123.743C230.992 123.817 230.006 123.879 228.936 123.785C227.227 123.636 225.46 124.434 223.837 125.414C225.045 125.248 226.252 125.082 227.996 124.844C225.04 127.109 221.958 125.663 219.339 126.611C218.641 125.979 218.021 125.21 217.235 124.785C216.838 124.571 216.143 124.982 214.835 125.28C216.136 125.613 216.635 125.741 217.141 125.87C217.01 126.062 216.909 126.372 216.767 126.389C215.278 126.586 213.926 127.348 212.238 126.743C210.993 126.297 209.681 127.406 208.079 127.024C206.227 126.582 204.165 127.319 202.189 127.34C200.245 127.358 198.312 127.5 196.352 127.392C193.485 127.236 190.603 127.611 187.735 127.473C184.874 127.335 182.043 128.29 179.158 127.388C177.706 126.933 176.282 127.714 174.687 127.47C171.314 126.958 167.852 127.221 164.428 127.091C162.6 127.022 160.796 126.614 158.941 126.963C156.721 127.379 155.048 126.684 153.7 125.014C153.572 125.613 153.463 126.125 153.344 126.679C153.024 126.492 152.725 126.318 152.424 126.143C152.235 126.424 152.038 126.716 152.044 126.706C150.629 126.559 149.309 126.092 148.185 126.384C146.647 126.782 145.477 125.89 143.379 125.927C140.39 127.325 136.54 124.95 132.643 125.819C132.398 125.175 132.142 124.511 131.647 123.217C131.32 124.37 131.125 125.059 131.072 125.247C127.761 125.464 125.017 124.803 122.3 123.886L122.064 122.851C121.594 123.249 121.274 123.659 120.858 123.839C120.306 124.077 119.682 124.136 118.985 124.294C118.553 123.962 118.061 123.584 117.497 123.149L114.362 123.863C114.056 123.365 113.811 122.964 113.505 122.464C113.204 122.78 112.921 123.08 112.459 123.567C111.613 123.068 110.707 122.531 109.981 122.103C109.71 121.299 109.521 120.74 109.181 119.734C108.696 121.096 108.381 121.977 108.049 122.909C105.72 122.512 103.486 121.643 101.003 121.737C98.8132 121.821 96.6915 120.484 94.3548 120.327C93.0656 120.24 91.7841 119.124 90.3257 119.808C89.3067 118.73 87.9735 118.913 86.717 118.686C85.1458 118.404 83.3486 119.211 82.0348 118.068C80.7098 116.918 78.8322 118.174 77.76 116.585C76.2498 116.745 74.8207 115.935 73.4182 115.905C71.8021 115.872 70.4752 115.486 69.1009 114.705C68.659 114.454 67.9633 114.704 67.1522 114.732Z" fill="#F19BBC"/>
<path fill-rule="evenodd" clip-rule="evenodd" d="M390.63 69.2447C390.566 69.6096 390.255 70.2558 390.438 70.5081C392.388 73.1524 392.268 76.2334 392.375 79.2554C392.463 81.7439 392.681 84.3226 391.785 86.6401C390.125 90.9324 389.62 95.87 385.895 99.0651C386.313 101.463 382.975 101.846 383.416 104.257C381.333 105.993 380.441 108.664 378.806 110.751C377.779 112.062 376.794 113.399 375.861 114.786C375.503 115.319 374.758 115.563 373.998 116.068C373.865 116.685 373.666 117.598 373.419 118.749C372.663 119.545 371.722 120.536 370.642 121.676C370.753 122.317 370.899 123.165 371.057 124.069C370.682 124.319 370.307 124.57 369.931 124.821C369.579 126.419 370.942 125.7 371.486 126.086C371.077 128.23 369.839 129.812 368.3 131.314C366.952 130.659 365.584 129.997 364.084 129.268L362.945 124.263C362.332 123.835 361.727 123.412 361.091 122.967C360.847 120.534 359.589 118.269 360.133 115.634C360.396 114.369 360.24 112.976 361.04 111.887C361.551 111.193 361.008 109.937 362.298 109.571C362.582 109.49 362.464 108.036 362.567 107.22C362.77 105.598 363.8 104.364 364.515 103.022C366.215 99.8241 367.95 96.5989 370.082 93.7203C372.199 90.8667 373.935 87.6717 376.612 85.2674C377.394 84.5645 377.847 83.4695 378.484 82.582C379.102 81.7233 379.765 80.8992 380.583 79.8305C379.194 79.5469 377.799 79.2634 376.2 78.9369C376.136 79.482 376.086 79.9215 376.033 80.382C372.862 80.7852 369.714 79.5022 366.356 79.5904L365.976 77.9223C363.369 77.6811 360.895 77.4527 358.421 77.2244C357.393 77.1125 356.85 78.8105 355.356 77.9423C355.797 77.5853 356.218 77.2444 356.64 76.9048C355.01 77.6217 352.853 74.9063 351.642 77.9732C348.764 75.7219 344.967 77.9616 342.33 75.1134C342.184 75.3311 341.99 75.6234 341.725 76.0225C339.781 75.7183 337.761 75.1515 335.755 75.1599C333.671 75.1657 332.546 73.1222 330.026 73.1205C327.755 74.0427 324.918 73.9476 322.194 72.4771C321.615 71.4844 321.082 70.569 320.513 69.5929C320.62 69.237 320.746 68.8146 320.871 68.3925C320.353 68.0463 319.832 67.702 319.245 67.3124C320.088 66.5884 320.915 65.8798 321.749 65.1636C321.198 64.799 320.678 64.4544 320.026 64.0219C320.563 63.496 321.08 62.9905 321.754 62.3296C323.61 63.8346 325.557 61.9784 327.751 62.4622C330.835 63.1428 334.121 62.6254 337.314 62.8242C341.042 63.0552 344.763 63.5187 348.489 63.8557C352.452 64.2135 356.41 64.5884 360.395 64.6789C363.663 64.7509 366.911 65.6611 370.211 65.5757C371.587 66.7027 373.22 64.9788 374.597 66.1041C377.211 65.2048 379.869 66.7133 382.503 66.1339C383.027 66.0188 383.629 66.2885 384.187 66.2681C386.689 66.1773 389.088 66.3188 390.63 69.2447Z" fill="#F19BBC"/>
</svg>
