<svg width="21" height="29" viewBox="0 0 21 29" fill="none" xmlns="http://www.w3.org/2000/svg">
<path fill-rule="evenodd" clip-rule="evenodd" d="M19.0147 23.1243H19.4245C19.4987 23.2421 19.5761 23.365 19.6542 23.4894C19.7129 23.4348 19.7551 23.3956 19.8189 23.3364C19.9708 23.4245 20.1278 23.5157 20.282 23.6051C20.3012 23.7335 20.3176 23.8436 20.3347 23.9586C20.4304 23.9026 20.5057 23.8584 20.5763 23.817C20.6734 24.0249 20.7589 24.2077 20.8513 24.4055C20.8257 24.4143 20.7617 24.4368 20.6772 24.4663V24.7412C20.3701 24.85 20.1371 25.1246 19.7892 25.0306C19.769 25.2742 19.5533 25.3544 19.4164 25.3859C19.0917 25.4603 18.8191 25.7246 18.5137 25.7308C18.1572 25.7378 17.8868 25.9403 17.5764 26.0317C17.204 26.1416 16.8207 26.259 16.4512 26.4061C16.091 26.5495 15.7123 26.7369 15.299 26.7233C14.6454 27.1147 13.886 27.1594 13.1819 27.3821C12.6335 27.5554 12.0804 27.7715 11.4893 27.8162C11.2837 27.8319 11.0877 28.0519 10.8733 27.7272C10.7174 28.0219 10.5339 28.1847 10.2276 28.1741C10.0126 28.1669 9.78672 28.2195 9.58003 28.2902C9.03887 28.4746 8.47489 28.5334 7.92179 28.6508C7.41391 28.7587 6.89174 28.7959 6.3941 28.9096C5.72347 29.0629 5.06414 28.9556 4.40204 28.9992C4.28536 29.0069 4.1657 28.9091 4.04305 28.8904C3.91016 28.8702 3.73717 28.9382 3.64566 28.8728C3.52685 28.7878 3.43897 28.8647 3.34213 28.8448C3.19921 28.8155 3.05865 28.7732 2.88822 28.729C2.8255 28.6151 2.61433 28.5695 2.61476 28.3448C2.61497 28.2882 2.51045 28.1801 2.45905 28.1832C2.06955 28.2063 1.97932 27.8752 1.81081 27.596C1.74554 27.0526 2.00172 26.6717 2.49509 26.4367C2.55994 26.4057 2.62862 26.3762 2.69837 26.3647C2.97226 26.32 3.26449 26.3295 3.51725 26.2301C3.79519 26.1211 4.06651 26.1297 4.34573 26.1222C4.61385 26.1152 4.92976 26.194 5.13667 26.0737C5.36725 25.9396 5.655 26.1522 5.82031 25.8852C6.00204 26.0832 6.18122 25.787 6.36232 25.8823C6.556 25.7103 6.79682 25.8028 7.0097 25.753C7.20701 25.707 7.41029 25.6804 7.5997 25.629C8.22362 25.459 8.85564 25.3586 9.49342 25.2815C9.76987 25.0317 10.1515 25.2689 10.4484 25.0482C10.7033 24.8588 11.0448 24.8934 11.3406 24.8258C11.6768 24.7489 12.0292 24.6905 12.3748 24.6324C12.6975 24.578 13.0149 24.4861 13.3391 24.4238C13.8171 24.3319 14.2727 24.1181 14.7672 24.0802C14.9754 23.8267 15.3034 24.0454 15.5519 23.8522C15.7603 23.6899 16.069 23.6621 16.3217 23.6203C16.9388 23.5183 17.4843 23.2077 18.0841 23.0729C18.2261 23.041 18.368 23.0071 18.5324 22.9688C18.5542 23.1159 18.5706 23.226 18.5964 23.4C18.7417 23.3044 18.8577 23.2278 19.0147 23.1243Z" fill="#F7AB86" fill-opacity="0.5"/>
<path fill-rule="evenodd" clip-rule="evenodd" d="M9.29162 16.2942C9.25984 16.327 9.23232 16.3554 9.20502 16.3838C9.12972 16.2638 9.05421 16.144 8.96079 15.9953C8.92388 16.1032 8.90021 16.1728 8.86224 16.2836C8.69159 16.262 8.4608 16.3021 8.34028 16.2012C8.14468 16.0378 8.0167 16.2719 7.84691 16.2098C7.6929 16.1534 7.46914 16.2279 7.35716 16.1376C7.17457 15.9905 6.99049 16.0728 6.81494 16.0264C6.6428 15.981 6.47983 15.8977 6.30002 15.8257C6.20382 15.857 6.09012 15.894 5.9406 15.9424C5.8845 15.8345 5.82904 15.7268 5.73156 15.5385C5.67205 15.7369 5.65221 15.8024 5.62043 15.9087C5.08695 15.592 4.44746 15.7713 3.91356 15.494C3.90012 15.431 3.88818 15.3766 3.85703 15.2328C3.80968 15.3755 3.78984 15.4361 3.76638 15.5063C3.63114 15.4695 3.48631 15.4301 3.33571 15.3889C3.32569 15.2951 3.31566 15.2006 3.30095 15.0623C3.24549 15.1037 3.21157 15.129 3.16038 15.1673C3.09703 15.1345 3.02408 15.0966 2.92105 15.0433C2.88137 15.1358 2.84725 15.2154 2.8144 15.292C2.68471 15.1975 2.55459 15.1026 2.4008 14.9905C2.39483 14.9345 2.3848 14.8398 2.37158 14.7174C2.23783 14.7867 2.11774 14.8489 1.96288 14.9292C1.75918 14.6242 1.34259 14.4828 1.21183 14.0727C1.26537 14.0116 1.30313 13.9687 1.3411 13.9257C1.22975 13.8108 1.17856 13.8427 1.06039 14.1013C1.02263 14.1039 0.984665 14.1099 0.947337 14.107C0.931979 14.1059 0.9179 14.0857 0.8682 14.0467C0.904462 13.9608 0.944777 13.8654 0.989358 13.7597C0.952243 13.6608 0.909582 13.5471 0.851562 13.3929C0.999383 13.4484 1.0894 13.4819 1.20117 13.524C1.16597 13.3808 1.13995 13.2744 1.09558 13.0943C1.2995 13.1894 1.42621 13.2487 1.57083 13.3161C1.53734 13.3586 1.50556 13.3987 1.46695 13.4476C1.56699 13.5 1.66809 13.5533 1.79181 13.6185V13.2141C1.92385 13.1447 2.03583 13.0859 2.15635 13.0225C2.43215 13.1407 2.71308 13.2614 2.99997 13.3846C3.12817 13.3328 3.61962 13.3982 3.84231 13.5026C3.88156 13.4658 3.92209 13.4277 3.98288 13.3709C4.10105 13.4291 4.2301 13.4925 4.36577 13.5592C4.32822 13.6033 4.29324 13.6449 4.25805 13.6863C4.28386 13.7059 4.31905 13.7511 4.33846 13.7447C4.5603 13.6735 4.76891 13.4987 5.01037 13.7317C5.05517 13.7749 5.21195 13.6954 5.31647 13.6707C5.79512 13.5579 6.23453 13.6284 6.62104 13.9493C6.71127 13.924 6.81046 13.8727 6.90836 13.8746C7.02376 13.8768 7.20784 13.9854 7.24155 13.9438C7.41539 13.7284 7.50604 13.9907 7.63573 13.9923C7.76222 13.994 7.87912 14.0015 8.01286 14.0643C8.23917 14.1709 8.50687 14.1934 8.76028 14.2264C9.61222 14.3372 10.4439 14.5226 11.2662 14.7883C11.901 14.9931 12.5477 15.1623 13.158 15.4361C13.569 15.6202 14.0159 15.7911 14.3389 16.0918C14.6307 16.3629 14.9762 16.6032 15.2038 16.9904C15.1718 17.0422 15.1332 17.105 15.0886 17.1774C15.1134 17.2072 15.1481 17.2486 15.1882 17.2962C15.0513 17.4301 14.9122 17.566 14.7559 17.7188C14.5782 17.6633 14.3926 17.5858 14.2885 17.3215C14.2665 17.473 14.2508 17.5832 14.2335 17.7021H14.0677C14.0385 17.6237 14.0131 17.5547 13.9871 17.4843C13.9244 17.5254 13.8668 17.5633 13.7885 17.6149C13.7303 17.5699 13.6725 17.525 13.616 17.4814C13.5272 17.5662 13.4332 17.6567 13.3361 17.7494C13.1949 17.5699 13.0966 17.4091 12.9645 17.2871C12.8363 17.1686 12.5684 17.2832 12.5076 16.9785C12.5311 16.9409 12.5701 16.8785 12.6309 16.7814C12.5095 16.775 12.398 16.7691 12.2433 16.7609C12.3208 16.8506 12.3572 16.8931 12.4345 16.9829C12.2873 16.975 12.1653 17.0036 12.0825 16.9574C11.8867 16.8479 11.686 16.7898 11.4722 16.7299C11.2709 16.6735 11.0778 16.6497 10.8756 16.6274C10.6958 16.6076 10.5215 16.5369 10.3417 16.5156C10.1519 16.4933 9.95372 16.5279 9.76772 16.4909C9.60198 16.4581 9.44819 16.3616 9.29162 16.2942Z" fill="#F7AB86" fill-opacity="0.5"/>
<path fill-rule="evenodd" clip-rule="evenodd" d="M5.65723 1.32992V0.82509C5.8556 0.609236 6.08469 0.504172 6.43046 0.539413C6.46267 0.594919 6.52218 0.697339 6.59214 0.818262C6.97652 0.573994 7.12285 1.10416 7.42467 1.02002C7.85811 1.31649 8.18127 1.72969 8.6258 1.9885C8.69085 2.02638 8.73714 2.09863 8.79153 2.15568C9.17399 2.55589 9.6006 2.89795 10.0464 3.22129C10.3531 3.44397 10.63 3.71379 10.9035 3.98119C11.2019 4.27303 11.5131 4.54131 11.8759 4.74416C11.9412 4.78073 11.9864 4.85495 12.0419 4.9109C12.262 5.13358 12.4608 5.38798 12.7099 5.56859C12.9107 5.71375 13.0589 5.90691 13.2366 6.06924C13.5438 6.34963 13.7991 6.69082 14.0732 7.00953C14.349 7.33023 14.6331 7.64476 14.8891 7.98176C14.9957 8.1225 15.039 8.31457 15.1141 8.48989C14.9426 8.64496 14.7982 8.77579 14.5755 8.97755C14.4111 9.07358 14.3285 8.75443 14.1342 8.68108C14.0704 8.73152 14.0132 8.77711 13.9742 8.80795C13.7451 8.75905 13.5297 8.71302 13.2165 8.64606C12.5741 8.10312 11.8258 7.52648 11.1268 6.88002C10.7947 6.5732 10.4195 6.2862 10.0189 6.04634C9.73264 5.87498 9.50909 5.59194 9.24971 5.36684C8.56244 4.77081 7.87197 4.15893 7.29114 3.45785C6.74572 2.79905 6.07829 2.23915 5.65723 1.32992Z" fill="#F7AB86" fill-opacity="0.5"/>
</svg>
