<svg width="121" height="23" viewBox="0 0 121 23" fill="none" xmlns="http://www.w3.org/2000/svg">
<path fill-rule="evenodd" clip-rule="evenodd" d="M8.73952 15.24C8.0809 15.4642 7.39794 15.6631 6.97272 16.2742C7.609 16.0111 8.31139 15.8729 8.73952 15.24ZM50.3755 3.50295C53.0694 3.51177 55.7389 3.14856 58.4216 2.98853C62.2684 2.75832 66.1147 2.50833 69.9771 2.62407C72.3499 2.69571 74.7204 2.49752 77.1046 2.63807C82.6649 2.96637 88.2299 3.14339 93.776 3.75525C98.2277 4.24653 102.684 4.68098 107.123 5.29052C111.057 5.8314 114.923 6.71194 118.803 7.52675C119.347 7.6408 119.884 7.81404 120.267 8.24131C120.072 8.73406 119.592 8.13507 119.411 8.56444C119.7 8.89714 120.682 8.62422 120.404 9.2832C120.176 9.82201 119.552 10.2777 118.716 10.2425C117.555 10.1935 116.536 9.65444 115.411 9.49598C110.418 8.79294 105.449 7.94309 100.414 7.53261C97.3171 7.28013 94.2202 6.89785 91.1194 6.93275C89.4004 6.9516 87.735 6.44765 86.0225 6.65172C85.6017 6.7017 85.1712 6.49114 84.7754 6.92166C84.6285 7.08125 83.9754 7.3841 83.8815 6.60921C83.8616 6.44572 83.5618 6.51656 83.3751 6.51434C81.3582 6.49021 79.3112 6.22582 77.3325 6.48402C75.4063 6.73534 73.4954 6.56937 71.5807 6.7158C70.2279 6.81885 68.8747 6.25652 67.4732 6.45813C66.8947 6.5409 66.2967 6.48742 65.7415 6.73002C65.5223 6.72212 65.3033 6.71475 65.084 6.70685C63.5916 6.55521 62.107 6.55867 60.6435 6.94528C59.0758 6.78241 57.5264 6.88034 55.9968 7.26752C54.3334 7.2609 52.679 7.19392 51.0713 7.84413C50.4035 8.11408 49.6047 8.04841 48.8725 8.17406C46.3784 8.60169 43.8892 9.05631 41.3945 9.47673C40.9329 9.55455 40.4491 9.79529 39.9821 9.4681C38.6694 9.40198 37.4266 9.7166 36.2078 10.1603C34.9907 10.6564 33.6712 10.6732 32.4036 10.9092C30.7702 11.2136 29.1862 11.5022 27.6691 12.2801C26.4208 12.9201 24.9323 12.9419 23.5738 13.3855C20.6048 14.356 17.5307 15.18 14.8304 16.6786C11.8935 18.3086 8.5994 19.1152 5.79161 20.9727C5.07553 21.4467 4.4932 22.1004 3.64846 22.412C2.78747 22.7291 1.37687 22.3878 0.813655 21.4335C0.353017 20.6529 0.404751 19.7992 1.12509 19.0816C2.35893 17.8533 3.75609 16.8299 5.21075 15.8969C11.4697 11.8832 18.3029 9.14591 25.3787 6.98082C32.291 4.86542 39.3444 3.37119 46.5047 2.38192C50.1489 1.87859 53.8169 1.66805 57.4816 1.38297C61.252 1.08965 65.0207 0.848594 68.8 0.866633C72.1655 0.882793 75.5293 1.03033 78.8921 1.16266C82.8306 1.31701 86.7634 1.52492 90.6786 1.90034C100.07 2.8008 109.442 3.8723 118.587 6.33818C119.203 6.50446 119.981 6.31168 120.438 7.07384C119.769 7.45971 119.113 7.29429 118.47 7.12915C113.763 5.91803 108.989 5.09479 104.181 4.37143C97.0946 3.30491 89.9521 2.92597 82.8279 2.34129C79.3823 2.05847 75.9062 2.16515 72.4469 2.02888C67.9084 1.84921 63.3771 2.04979 58.8508 2.27304C56.1437 2.40659 53.4263 2.6297 50.7571 3.18781C50.563 3.22854 50.3965 3.29158 50.3848 3.52746C49.8929 3.15571 49.3664 3.41053 48.8658 3.46918C44.9674 3.9267 41.0996 4.57484 37.2423 5.2995C34.8211 5.7546 32.4384 6.37807 30.03 6.88637C27.4953 7.42095 25.0197 8.28504 22.5741 9.16004C21.8814 9.40769 20.8946 9.28125 20.511 10.2051C19.3509 9.93102 18.562 10.6994 17.6831 11.2119C18.6572 10.9642 19.6379 10.733 20.4981 10.1732C20.753 10.1306 21.0198 10.123 21.2615 10.0405C28.4025 7.58803 35.7171 5.83796 43.1666 4.63716C45.5682 4.24974 47.9724 3.88067 50.3755 3.50295Z" fill="#2FBF7D"/>
</svg>
