<svg width="51" height="51" viewBox="0 0 51 51" fill="none" xmlns="http://www.w3.org/2000/svg">
<path d="M48.093 0.0750084C48.0077 0.112343 47.6823 0.160343 47.373 0.181675C46.973 0.20834 46.765 0.251007 46.6423 0.320343C46.5463 0.373676 46.3277 0.448341 46.1463 0.485676L45.8263 0.549675L45.837 3.56834C45.8477 5.22701 45.8263 7.37634 45.789 8.34701C45.7517 9.31234 45.6983 11.8243 45.6663 13.9203C45.581 19.7603 45.5117 23.147 45.4103 26.5337C45.341 28.9977 45.3197 31.2643 45.3197 37.6697V45.707L30.173 45.6803C9.94905 45.643 7.98105 45.6217 6.00772 45.435L5.36239 45.371L5.33039 41.659C5.27705 36.2723 5.28772 22.5497 5.34639 19.8137C5.37305 18.523 5.41572 14.8697 5.43172 11.691L5.46905 5.92034L5.95439 5.95234C6.34372 5.97901 6.48239 5.96834 6.65305 5.89901C6.84505 5.81901 6.99972 5.81367 8.43438 5.87234C9.66105 5.92567 10.509 5.92567 12.3544 5.87234C13.645 5.84034 15.5597 5.78701 16.5997 5.76034C20.557 5.65368 22.4824 5.56834 25.9064 5.35501C30.893 5.04567 33.9277 4.81101 39.1597 4.32034C41.069 4.13901 41.437 4.09101 41.5117 4.01101C41.6397 3.87234 41.8263 3.37101 41.8263 3.16301C41.8263 2.85901 41.629 2.81101 39.7463 2.64568C38.8503 2.56567 37.4583 2.44301 36.653 2.37368C34.3437 2.17101 30.5837 1.88301 27.533 1.68567C23.0957 1.39234 21.4584 1.30701 16.381 1.12034C10.8077 0.912342 10.109 0.896339 8.73305 0.933674C7.55972 0.960342 7.31439 0.955009 7.15439 0.885674C6.99439 0.816341 6.75972 0.816341 5.50105 0.853676C4.69039 0.880341 3.96506 0.928341 3.88506 0.960342C3.80506 0.987007 3.62372 1.01368 3.47972 1.01368C3.33572 1.01368 3.13839 1.04567 3.04239 1.08834C2.94639 1.13101 2.60506 1.22701 2.29039 1.30167C1.97039 1.37101 1.66639 1.47234 1.61306 1.52034C1.55439 1.57367 1.46373 1.76034 1.40506 1.94167C1.28773 2.31501 1.27706 2.84301 1.18639 18.747C1.15973 23.4403 1.11173 28.1657 1.08506 29.2537C1.05306 30.3363 1.00506 32.7257 0.97306 34.5603C0.946394 36.395 0.89306 39.2857 0.855727 40.987C0.754394 45.563 0.759727 46.8803 0.887727 47.2803C1.00506 47.6537 1.13839 47.9417 1.44773 48.4537C1.57039 48.6563 1.75173 48.9977 1.85306 49.2057C2.06106 49.6217 2.22106 49.8083 2.54639 50.0163C2.66372 50.0857 2.87172 50.2563 3.01039 50.3843L3.26639 50.619L3.83706 50.587C4.15706 50.5657 4.74906 50.5177 5.15972 50.475C7.32505 50.251 12.6477 50.2457 20.1197 50.4483C23.789 50.5497 26.973 50.6083 30.5997 50.6403C32.5357 50.6563 34.8503 50.6777 35.7463 50.6937C36.6423 50.7097 38.4663 50.7363 39.7997 50.7523C41.133 50.7683 42.2583 50.7897 42.301 50.8057C42.3383 50.8163 43.629 50.827 45.1597 50.8323C48.173 50.8323 48.173 50.8323 48.4823 50.5443C48.669 50.3737 49.293 49.0617 49.293 48.8483C49.293 48.747 49.3357 48.6243 49.405 48.555C49.5863 48.3577 49.757 47.5097 49.821 46.4537C49.8957 45.2643 49.9703 43.3017 50.0503 40.4003C50.1357 37.5737 50.125 8.73101 50.0397 7.70701C49.9063 6.06968 49.8797 5.46167 49.8477 3.13634L49.8103 0.651009L49.6877 0.597675C49.6237 0.565674 49.5277 0.469673 49.4743 0.384342C49.325 0.123009 49.0423 0.000339508 48.621 0.000339508C48.4183 0.00567627 48.1837 0.037674 48.093 0.0750084Z" fill="#4243DC"/>
</svg>
