<svg width="121" height="38" viewBox="0 0 121 38" fill="none" xmlns="http://www.w3.org/2000/svg">
<path fill-rule="evenodd" clip-rule="evenodd" d="M53.3336 22.5927C53.6517 22.6433 53.9403 22.7861 54.1223 22.7006C54.7281 22.4158 55.3832 22.4065 56.013 22.2818C56.7852 22.1285 57.6155 22.1697 58.3536 21.9894C59.3676 21.7417 60.4048 21.5589 61.4176 21.4039C62.4615 21.2438 63.4789 20.9173 64.5477 20.8676C65.0259 20.8452 65.4918 20.5794 65.9674 20.4362C66.0184 20.421 66.0947 20.488 66.1768 20.5251C66.1705 20.6224 66.1633 20.726 66.1545 20.8583C65.5268 20.9468 64.8624 20.9147 64.3177 21.1549C63.8286 21.3702 63.2906 21.162 62.9266 21.3849C62.4889 21.6528 61.9888 21.3857 61.6615 21.6558C61.2765 21.9738 60.8307 21.6259 60.4861 21.8833C60.0733 22.1917 59.5665 21.8812 59.1818 22.0598C58.6418 22.3109 57.9888 22.0598 57.5785 22.3256C57.0224 22.6858 56.3483 22.2009 55.8988 22.7279C55.2901 22.5923 54.739 22.8918 54.1572 22.958C53.4996 23.0329 52.8053 23.0051 52.197 23.2196C51.678 23.4028 51.1109 23.2495 50.6964 23.4618C50.3118 23.659 49.9238 23.4976 49.6331 23.6687C49.2409 23.8991 48.8491 23.8283 48.4543 23.8869C48.1253 23.9358 47.7946 24.0006 47.4669 24.0786C46.864 24.2222 46.2628 24.4476 45.6187 24.3402C45.4696 24.3153 45.229 24.2736 45.1738 24.3473C44.8292 24.807 44.2997 24.3966 43.9129 24.6553C43.4723 24.9498 42.9583 24.7408 42.4797 24.7935C42.3285 24.8103 42.1174 24.7316 42.0311 24.8078C41.7063 25.0922 41.2782 24.9026 40.9812 25.0522C40.5718 25.2577 40.2558 24.9616 39.8948 25.0227C39.3551 25.1128 38.8116 25.1844 38.2682 25.2539C37.8044 25.3133 37.3388 25.358 36.8173 25.4157C36.8013 25.4022 36.7225 25.3353 36.6779 25.2973C36.4082 25.4359 36.1677 25.5598 35.9861 25.6537C35.5071 25.4157 35.0892 25.3963 34.6738 25.6348C34.2155 25.8977 33.8258 25.5994 33.4272 25.476C32.9685 25.334 32.6289 26.0106 32.077 25.5615C31.8003 25.3365 31.2328 25.4675 30.7471 25.4347C31.4843 25.0109 32.2279 24.9308 32.9563 25.0433C33.7057 25.16 34.3996 24.614 35.1419 24.9342C35.5766 24.6132 35.9697 24.8478 36.3771 25.0488C36.5721 24.8756 36.763 24.7059 36.9816 24.5112C37.2352 24.6111 37.4631 24.7012 37.7024 24.7956C38.0378 24.5609 38.3883 24.3962 38.7417 24.7808C38.8866 24.6363 39.0219 24.5011 39.1803 24.3423C40.0418 24.2997 40.9408 24.4388 41.8091 24.1165C42.176 23.9804 42.5808 23.9147 42.9735 23.8852C43.7103 23.8304 44.4395 23.8148 45.1814 23.6969C45.973 23.5713 46.7675 23.2558 47.6067 23.402C47.7428 23.426 47.9138 23.2474 48.0773 23.1572C48.1793 23.2436 48.2677 23.3805 48.3448 23.3746C48.9607 23.3274 49.5758 23.2613 50.1879 23.1791C50.281 23.1665 50.3594 23.041 50.4453 22.9677C50.5228 23.0384 50.605 23.1126 50.7293 23.2263C51.0174 23.0789 51.3241 22.9217 51.6316 22.7646C51.6573 22.7907 51.6809 22.8354 51.7121 22.8421C52.2105 22.9432 52.6705 22.5851 53.1799 22.7157C53.2422 22.7317 53.3471 22.5813 53.3336 22.5927ZM102.454 13.0394C102.493 12.8839 102.519 12.7803 102.56 12.6189C102.652 12.6872 102.724 12.7411 102.805 12.8018C103.376 12.4837 103.949 12.145 104.539 11.8413C105.331 11.4339 106.141 11.0851 106.901 10.5884C107.545 10.1671 108.361 9.92527 108.901 9.3755C109.412 8.8569 110.232 8.9163 110.624 8.27806C111.404 8.17358 111.788 7.43929 112.444 7.12797C112.637 7.03655 112.766 6.86972 113.027 6.85498C113.289 6.83939 113.286 6.77662 113.58 6.2239C113.66 6.21252 113.765 6.19441 113.872 6.18472C113.947 6.17756 114.078 6.20704 114.092 6.17671C114.439 5.44242 115.407 5.62652 115.82 4.99965C115.86 4.94067 115.885 4.82693 115.927 4.82103C117.137 4.66136 117.863 3.60774 118.934 3.20373C119.336 3.05207 119.498 2.63374 119.875 2.47028C120.036 2.39993 120.185 2.29966 120.359 2.20235C120.405 2.02246 120.424 1.79707 120.521 1.61255C120.618 1.42719 120.793 1.28185 121 1.0434C120.384 0.770411 119.807 0.986107 119.284 0.706798C119.707 0.686998 120.13 0.667198 120.583 0.645712C120.608 0.552188 120.636 0.448974 120.664 0.347024C119.206 -0.119756 119.186 -0.169045 117.475 0.531124C116.265 1.02697 114.962 1.35094 113.925 2.21962C112.931 2.44374 112.142 3.09209 111.254 3.53317C110.043 4.13476 108.895 4.85937 107.697 5.4875C106.19 6.27866 104.664 7.03571 103.137 7.78853C101.708 8.49334 100.234 9.09029 98.7475 9.67082C97.7668 10.0538 96.7961 10.5041 95.8133 10.9035C94.83 11.3029 93.8333 11.6694 92.8395 12.0435C92.1106 12.3173 91.3957 12.68 90.6404 12.8199C89.8412 12.9678 89.243 13.5319 88.4602 13.6751C87.9665 13.7657 87.5237 14.093 86.9862 13.9982C86.912 13.9847 86.8109 13.9649 86.76 14.0007C85.9153 14.6011 84.8785 14.6369 83.9395 14.9575C82.9638 15.2903 81.9654 15.5582 80.9699 15.8291C80.4193 15.9791 79.8539 16.0558 79.3201 16.2858C78.6903 16.5571 77.983 16.5183 77.3266 16.7387C76.5165 17.0104 75.6676 17.1953 74.836 17.3638C74.0234 17.5286 73.2137 17.711 72.4115 17.9115C70.8473 18.302 69.2338 18.4794 67.7029 19.0182C67.298 19.161 66.8616 19.0709 66.4184 19.2427C65.821 19.4749 65.0282 19.2663 64.486 19.5579C63.8873 19.8793 63.1926 19.4572 62.6985 19.9703C61.5126 19.9366 60.3979 20.4303 59.2136 20.4417C58.8619 20.4447 58.5118 20.5866 58.16 20.6591C57.7712 20.7396 57.3828 20.8217 56.9914 20.887C56.6358 20.9468 56.2242 20.7429 55.9386 21.1196C55.337 21.0391 54.7725 21.2902 54.1941 21.326C53.453 21.3719 52.7537 21.7489 51.9937 21.5792C51.5741 22.0468 50.8879 21.5733 50.446 22.0173C50.3689 22.0948 50.1536 22.0342 50.0019 22.0392C49.5629 22.0535 49.1408 22.0236 48.7073 22.2461C48.3362 22.4365 47.8589 22.1555 47.4131 22.466C47.1562 22.6446 46.6738 22.498 46.3094 22.498C46.1581 22.6496 46.0225 22.7849 45.8831 22.9247C45.2562 22.4984 44.7376 22.7824 44.2316 23.1771C43.9081 22.7891 43.3895 22.8498 43.095 23.0124C42.7159 23.2209 42.3721 23.1741 42.014 23.1805C40.9684 23.199 39.9544 23.5411 38.8911 23.4421C38.6176 23.4164 38.3164 23.6927 38.0363 23.8263C37.896 23.7724 37.738 23.6873 37.5699 23.6519C37.0998 23.5525 36.6519 23.7951 36.1451 23.6847C35.7251 23.5933 35.2027 23.7623 34.7865 23.9501C34.5573 24.0534 34.479 23.8966 34.3699 23.9063C33.751 23.9624 33.1005 23.6544 32.5019 24.0904C32.3515 24.1995 32.0541 24.1069 31.8245 24.1069C30.1781 24.1069 28.5317 24.1018 26.8854 24.1111C26.5142 24.1128 26.1182 24.093 25.7795 24.2126C25.4315 24.3356 25.2222 23.9337 24.8885 24.0967C24.6728 24.2025 24.4108 24.213 24.1289 24.2745C23.8779 24.2269 23.5627 24.1203 23.2459 24.1149C22.0213 24.0946 20.7907 24.039 19.5715 24.1241C18.0541 24.2303 16.5745 23.9042 15.0731 23.8343C13.9912 23.7842 12.9275 23.3397 11.7711 23.0503C11.5588 23.1282 11.2365 23.2466 10.8893 23.3738C10.8485 23.338 10.7672 23.2656 10.6682 23.1775C10.4592 23.429 10.2511 23.6797 10.0072 23.9733C10.6572 24.1393 11.2032 24.2783 11.8427 24.4418C11.6771 24.6739 11.5739 24.8184 11.4496 24.9928H10.2654C10.1171 25.1415 10.0089 25.2502 9.81718 25.4415C10.0809 25.6378 10.3442 25.8341 10.6479 26.0608C10.4196 26.1492 10.2882 26.2002 10.1441 26.2562C10.0046 26.8924 10.4213 27.2741 10.8017 27.6679C10.7293 27.7484 10.6581 27.8289 10.6399 27.8491C10.9167 28.1221 11.1838 28.3854 11.5027 28.7001C11.8065 28.6272 12.1844 28.2299 12.6368 28.5788C12.5648 28.6601 12.4923 28.7414 12.3558 28.8947C12.8576 28.8138 13.294 28.7431 13.73 28.6727C13.7439 28.7304 13.7583 28.7894 13.7726 28.8475C13.5607 28.8985 13.3488 28.9495 13.069 29.0165C13.3555 29.1652 13.5881 29.2861 13.8893 29.4424C13.9537 29.3084 14.0098 29.1934 14.1176 28.971C14.3009 28.96 14.5827 28.9432 14.9269 28.9229C14.8304 29.1513 14.7601 29.3177 14.6312 29.6219C14.9113 29.6219 15.0908 29.6345 15.2681 29.6197C16.5501 29.5132 17.7903 29.9488 19.0795 29.8691C20.3766 29.7891 21.6838 29.8868 22.9826 29.8228C23.259 29.8093 23.4279 30.239 23.7523 29.9243C23.8526 29.827 24.252 30.0402 24.3543 29.9424C24.7242 29.5903 24.854 30.1257 25.1514 30.1038C25.6679 30.0655 26.117 29.8081 26.6634 29.8291C28.3072 29.8919 29.9557 29.8721 31.6016 29.8409C32.2217 29.8295 32.8381 29.6678 33.4595 29.6303C34.0969 29.5919 34.7381 29.6219 35.3755 29.5759C34.4377 29.3143 32.2268 29.3438 31.2267 29.4824C31.3981 29.431 31.5692 29.3796 31.7406 29.3282C31.6901 29.273 31.6391 29.2178 31.5886 29.1622C32.2757 29.1622 32.9657 29.1243 33.6495 29.1711C34.6302 29.2385 35.5583 28.7629 36.5416 28.9326C36.8857 28.6268 37.3841 28.8467 37.6921 28.6714C38.1829 28.3926 38.5949 28.9137 39.0975 28.6158C39.4771 28.3909 40.0403 28.476 40.6246 28.4119C40.6701 28.3749 40.8041 28.2657 40.9381 28.1566C40.914 28.1061 40.89 28.0555 40.8664 28.005C39.758 28.1217 38.6497 28.2384 37.4856 28.3614C37.4524 28.3323 37.339 28.2337 37.2257 28.1351C37.3483 28.0126 37.4566 27.9043 37.5649 27.7964C37.6765 27.8794 37.7881 27.9624 38.0295 28.1423C38.0948 27.8782 38.1555 27.6326 38.2162 27.387L38.4533 27.5879C38.5578 27.6397 38.6627 27.692 38.7946 27.7573C38.8186 27.6414 38.8401 27.5365 38.8713 27.3857C39.3296 27.2736 39.8174 27.1548 40.3108 27.0343C40.4098 27.2441 40.4839 27.4013 40.5682 27.5799C40.9692 27.4337 41.361 27.2913 41.7393 27.1536C41.8518 27.2201 41.9736 27.293 42.1433 27.3937C42.3746 27.1009 42.5848 26.8342 42.7955 26.5676C42.9214 26.6931 42.9758 26.7474 43.055 26.8267C43.2505 26.731 43.456 26.6308 43.6743 26.5242C43.5588 26.4121 43.4493 26.3059 43.3297 26.1901C43.2551 26.255 43.1759 26.3241 43.0546 26.4298C42.8587 26.3405 42.6375 26.239 42.3902 26.1261C42.327 26.3068 42.2807 26.4403 42.231 26.5823C41.9091 26.4732 41.5902 26.3649 41.2367 26.2449C40.7893 26.6025 40.2076 26.3055 39.6274 26.4344C39.5044 26.5511 39.3422 26.7049 39.1796 26.8582C38.8607 26.4412 38.3939 26.7378 37.9541 26.5878C37.9478 26.4858 37.9398 26.3552 37.9259 26.1227C38.0889 26.2499 38.1643 26.3081 38.3013 26.4151C38.4133 26.2482 38.5359 26.0662 38.6657 25.8733C38.8599 26.0793 38.9901 26.2175 39.1396 26.3763C39.3823 26.252 39.622 26.129 39.8743 25.9993C40.2092 26.3291 40.5378 26.1412 40.9128 25.9584C41.2283 25.8042 41.6003 25.7659 41.971 25.6707C42.0469 25.5371 42.1412 25.3715 42.3295 25.0404C42.4669 25.3732 42.5288 25.5232 42.6219 25.749C42.9573 25.7001 43.3145 25.6483 43.6717 25.5952C44.0324 25.5417 44.46 25.5893 44.7372 25.4082C45.1092 25.1643 45.3404 25.7284 45.7196 25.4301C45.9736 25.23 46.4118 25.2637 46.7644 25.1933C46.9257 25.4288 47.0462 25.6054 47.272 25.9365C46.8453 25.8981 46.5862 25.8746 46.1935 25.8387C46.2154 25.8185 46.1122 25.9142 45.9804 26.0359C46.0389 26.1113 46.0966 26.185 46.1716 26.2824C46.1169 26.3493 46.0532 26.4269 45.9913 26.5023C46.0313 26.5431 46.0781 26.6308 46.119 26.6278C46.4539 26.6038 46.7871 26.5419 47.122 26.5334C47.4818 26.525 47.9288 26.7024 48.1833 26.5461C48.5696 26.3089 48.9264 26.4938 49.3119 26.3793C49.4462 26.2516 49.6101 26.0953 49.8229 25.8931C49.9922 26.0148 50.1662 26.14 50.4295 26.3291C49.2689 26.8865 48.0666 26.9374 46.7387 27.2096C47.3542 27.3937 47.8361 27.3579 48.2835 27.2993C48.5498 27.2648 48.7924 27.0592 49.1113 27.0832C49.3645 27.1026 49.7234 26.9021 49.8629 27.0141C50.218 27.2993 50.3149 26.857 50.5479 26.8625C50.8538 26.8696 51.1642 26.8936 51.4654 26.8566C51.821 26.8132 52.166 26.6918 52.5208 26.64C52.8435 26.5928 53.1502 26.5452 53.4716 26.4467C53.9856 26.2895 54.5829 26.4049 55.1491 26.5836C54.767 26.6152 54.3853 26.6472 53.8339 26.6935C54.8985 27.1586 55.7427 26.5313 56.6122 26.6341C56.782 26.4028 56.9185 26.137 57.13 25.9605C57.2366 25.8716 57.4784 25.9453 57.9005 25.9453C57.5247 26.1294 57.3807 26.1998 57.2345 26.2714C57.288 26.3186 57.3406 26.4024 57.3853 26.3982C57.8559 26.3565 58.3235 26.4892 58.7991 26.2002C59.1496 25.987 59.6295 26.2238 60.0941 26.0056C60.6313 25.7532 61.315 25.8316 61.9225 25.706C62.5199 25.5822 63.1227 25.495 63.7163 25.3332C64.5846 25.0969 65.4945 25.0147 66.3645 24.7834C67.2323 24.553 68.1671 24.6436 68.9886 24.1882C69.4023 23.9586 69.8935 24.0921 70.3658 23.9148C71.3642 23.5407 72.4444 23.3873 73.4854 23.1215C74.0411 22.9799 74.566 22.7406 75.1591 22.7192C75.869 22.693 76.3337 22.3788 76.6303 21.8012C76.7116 21.9676 76.7807 22.11 76.8556 22.2638C76.9407 22.1879 77.0204 22.1171 77.1004 22.046C77.1779 22.1155 77.2588 22.1879 77.2563 22.1854C77.6801 22.0481 78.0521 21.8239 78.4173 21.8345C78.9165 21.8484 79.2131 21.5101 79.8594 21.3812C80.8734 21.591 81.8883 20.641 83.1441 20.6355C83.1744 20.4312 83.2065 20.2201 83.268 19.8089C83.4487 20.1241 83.5565 20.3124 83.586 20.3638C84.6165 20.2071 85.4119 19.8313 86.1811 19.3826V19.0645C86.353 19.1496 86.4798 19.2482 86.6201 19.2731C86.8059 19.3059 87.0014 19.2815 87.2263 19.2815C87.3354 19.1555 87.4601 19.0123 87.6025 18.848H88.614C88.673 18.682 88.7202 18.5485 88.7792 18.3821C88.8933 18.4545 89.0012 18.5232 89.1768 18.6348C89.4014 18.4326 89.6419 18.2157 89.8345 18.0421C89.8614 17.7893 89.8804 17.6132 89.9145 17.2969C90.1584 17.6625 90.3164 17.8989 90.4832 18.1491C91.1699 17.8782 91.7943 17.4759 92.5623 17.3381C93.2397 17.2168 93.797 16.6852 94.5027 16.4838C94.8919 16.3726 95.2071 15.9614 95.7021 16.0642C95.9393 15.6812 96.361 15.6463 96.7304 15.4963C97.1926 15.3092 97.8001 15.4255 98.1232 15.0042C98.4492 14.58 99.1128 14.8222 99.3306 14.2864C99.8049 14.2329 100.187 13.9009 100.615 13.799C101.108 13.6818 101.488 13.4809 101.855 13.1611C101.973 13.0583 102.204 13.0853 102.454 13.0394Z" fill="#1E1E1E"/>
<path fill-rule="evenodd" clip-rule="evenodd" d="M0.0769215 21.2656C0.121998 21.368 0.262707 21.5361 0.223949 21.6221C-0.189327 22.5244 0.0625992 23.4167 0.240801 24.3069C0.387407 25.0399 0.500731 25.8079 0.937178 26.4255C1.74604 27.5693 2.24568 28.9785 3.61105 29.6643C3.65023 30.3927 4.70048 30.2827 4.73376 31.0166C5.49376 31.3852 5.95379 32.1065 6.60088 32.6074C7.00742 32.9221 7.40258 33.2473 7.78552 33.5906C7.93255 33.7225 8.17816 33.7444 8.44651 33.8413C8.53035 34.0128 8.65505 34.2664 8.81134 34.5861C9.09866 34.7685 9.45632 34.9956 9.86707 35.2568C9.87803 35.4514 9.89235 35.7088 9.90709 35.9835C10.0394 36.0315 10.1721 36.08 10.3048 36.1284C10.5243 36.5721 10.0562 36.4524 9.91636 36.6015C10.1915 37.2006 10.6814 37.5806 11.2581 37.9172C11.6259 37.6362 11.9992 37.3518 12.4082 37.0388V35.5007C12.5662 35.3348 12.7225 35.1709 12.8864 34.9986C12.7912 34.2714 13.0191 33.5258 12.6682 32.7923C12.4992 32.4401 12.4499 32.0226 12.1285 31.7577C11.9233 31.5887 12.0021 31.1856 11.5808 31.1645C11.4882 31.1599 11.4229 30.7272 11.3344 30.4955C11.1587 30.035 10.7568 29.7431 10.4438 29.3985C9.6994 28.577 8.94194 27.75 8.08716 27.0507C7.2387 26.3577 6.48334 25.5395 5.4946 25.015C5.2056 24.8617 4.99032 24.5719 4.73292 24.3549C4.48352 24.1451 4.22275 23.9484 3.8971 23.6905C4.30321 23.5153 4.71144 23.3396 5.17906 23.1378C5.23677 23.2929 5.28269 23.418 5.33114 23.549C6.33168 23.4559 7.20753 22.8716 8.24346 22.674V22.1613C9.0262 21.9174 9.76892 21.6861 10.5116 21.4548C10.8192 21.3537 11.1044 21.8137 11.5016 21.4607C11.3416 21.3857 11.1886 21.3141 11.0357 21.2429C11.5855 21.344 12.0573 20.4071 12.6429 21.2227C13.3683 20.3734 14.6891 20.7753 15.2991 19.7676C15.3589 19.8215 15.4389 19.894 15.548 19.993C16.1231 19.7747 16.7028 19.4748 17.3187 19.3438C17.9582 19.2068 18.1604 18.5349 18.933 18.3668C19.6939 18.4852 20.5575 18.2687 21.2901 17.6578C21.3984 17.3292 21.4978 17.0263 21.6044 16.7032C21.5467 16.6063 21.4784 16.4913 21.4106 16.3763C21.5454 16.2406 21.6811 16.1054 21.834 15.9525C21.5248 15.797 21.2219 15.6449 20.916 15.4911C21.0597 15.3479 21.1949 15.2127 21.3647 15.0429C21.1633 14.9249 20.9695 14.8116 20.7167 14.6633C20.2525 15.2266 19.5258 14.8137 18.8867 15.101C17.9885 15.505 16.9446 15.5725 15.9794 15.8429C14.8521 16.1585 13.7433 16.5414 12.6244 16.8877C11.4338 17.2559 10.2462 17.6287 9.03041 17.9203C8.03324 18.1587 7.10094 18.6406 6.0827 18.8353C5.73936 19.2561 5.11839 18.861 4.77463 19.2814C3.91016 19.1925 3.2003 19.8101 2.35226 19.816C2.18333 19.8173 2.01777 19.9361 1.84504 19.9673C1.07157 20.1071 0.345699 20.3081 0.0769215 21.2656Z" fill="#1E1E1E"/>
</svg>
