<svg width="128" height="128" viewBox="0 0 128 128" fill="none" xmlns="http://www.w3.org/2000/svg">
<rect width="128" height="128" rx="24" fill="#EF2469" fill-opacity="0.1"/>
<path d="M62.8383 23.7776C59.7108 24.1901 57.4083 24.9626 47.7258 28.8476C41.9508 31.1726 41.5383 31.3376 37.3758 33.1751C33.5433 34.8626 33.4833 34.8926 32.9283 35.2526C31.8483 35.9426 30.2808 37.6901 30.1383 38.3576C30.0033 38.9726 30.5358 39.4301 31.6758 39.6701C32.5683 39.8576 34.5858 39.8576 35.2758 39.6701C36.4083 39.3626 38.4783 38.4326 43.0758 36.1751C52.9833 31.3076 57.4758 29.2526 60.1758 28.3526C62.2758 27.6476 63.8133 27.4676 64.6458 27.8126C64.7958 27.8726 65.1333 28.0976 65.3958 28.3001C66.6033 29.2526 67.2933 29.6051 70.9758 31.1726C72.4833 31.8101 74.8608 32.8676 76.2633 33.5126C79.6083 35.0576 81.1083 35.7251 84.3633 37.1126C85.8483 37.7426 88.4283 38.8751 90.1008 39.6251C91.7733 40.3751 93.3258 41.0726 93.5508 41.1776L93.9558 41.3576L93.5508 41.5451C93.3258 41.6501 92.2758 42.1076 91.2258 42.5576C87.9258 43.9826 83.4858 46.2551 77.3133 49.6751C74.3883 51.2951 70.9758 53.3726 68.8383 54.8351C68.3883 55.1426 67.8708 55.4951 67.6908 55.6226C67.5108 55.7426 66.7458 56.3051 65.9883 56.8751L64.6008 57.9176L63.8733 57.7376C61.4433 57.1451 54.5808 54.2651 43.3008 49.0976C41.0958 48.0851 38.3133 46.8251 37.1133 46.3001C35.9208 45.7751 34.2558 45.0176 33.4233 44.6201C31.5258 43.7201 31.1508 43.5926 30.7083 43.6751C30.1233 43.7801 30.0783 44.0876 30.5658 44.6801C30.8058 44.9726 32.6058 46.2101 34.0383 47.0651C35.8158 48.1301 42.7308 51.9851 46.4133 53.9726C51.8583 56.9051 58.2483 60.1601 62.9208 62.3951L64.5033 63.1526L64.5483 70.8251C64.6383 84.4301 64.6158 92.2451 64.4808 94.1501C64.4208 95.0801 64.3608 95.8451 64.3458 95.8526C64.3383 95.8601 63.9933 95.5976 63.5808 95.2676C61.7358 93.7601 58.9158 91.7501 56.1258 89.9426C51.8133 87.1601 48.0858 84.9101 44.7633 83.0876C43.7508 82.5326 37.9608 79.6001 37.8708 79.6001C37.8558 79.6001 37.2933 79.3376 36.6183 79.0151C34.4883 77.9951 33.2808 77.5001 32.9133 77.5001C32.7333 77.5001 32.6733 77.2451 32.6208 76.1876C32.5983 75.6476 32.5383 74.8601 32.5008 74.4251C32.4633 73.9901 32.4333 72.1826 32.4258 70.4126C32.4258 65.1101 32.2308 59.1101 31.8633 52.7501C31.7058 50.1101 31.6233 49.3376 31.4133 48.5276C31.1958 47.6951 30.6858 46.3376 30.2208 45.3776C29.9658 44.8526 29.1033 43.3151 28.9308 43.0826C28.9158 43.0676 28.8183 43.0826 28.7133 43.1051C28.1808 43.2401 27.5808 45.0026 27.2583 47.3876C27.0633 48.7826 27.0408 49.7801 27.1383 51.5501C27.2508 53.4626 27.6258 61.0526 27.8133 65.2001C27.8733 66.6326 27.9258 69.2876 27.9258 71.1626C27.9258 73.7876 27.9633 74.9876 28.0758 76.5626C28.2633 79.0826 28.3233 79.3826 28.8633 80.2751C28.9983 80.5001 29.2158 80.8901 29.3433 81.1376C29.7183 81.8576 31.0083 83.0276 32.1783 83.6951C32.5233 83.8976 33.8208 84.6626 35.0583 85.3976C38.1933 87.2501 41.2533 88.9676 49.1883 93.3251C56.6058 97.3976 57.1083 97.6826 59.6508 99.1226C63.1308 101.103 64.2183 101.643 65.7108 102.123C66.8658 102.49 66.9708 102.535 67.3983 102.918C67.8333 103.3 67.8633 103.315 68.2008 103.285C69.0033 103.203 69.6483 102.798 73.3383 100.038C74.7858 98.9576 77.1633 97.2101 78.6258 96.1526C81.2883 94.2251 85.3533 91.1651 89.0133 88.3301C90.0858 87.4976 91.6233 86.3426 92.4258 85.7501C98.3358 81.4076 99.0783 80.7551 99.9033 79.1126C100.136 78.6551 100.376 78.1676 100.451 78.0251C100.706 77.5226 101.441 75.2801 101.688 74.2376C102.228 71.9876 102.281 71.5226 102.851 63.0251C103.271 56.7026 103.368 54.3401 103.391 49.6376C103.406 46.8176 103.383 46.0976 103.278 45.2501C102.993 43.0526 102.513 40.6976 102.078 39.4376C101.658 38.2151 101.126 37.4201 100.758 37.4651C100.586 37.4876 100.541 37.5626 100.331 38.1476C100.196 38.5151 100.076 38.8226 100.061 38.8451C100.038 38.8601 99.8733 38.7926 99.6933 38.6951C99.3183 38.4926 99.1833 38.4326 97.1133 37.6076C95.3733 36.9176 93.8883 36.2801 89.8383 34.4876C88.2333 33.7751 85.5108 32.6126 83.8008 31.9001C80.6583 30.5951 78.7608 29.7701 75.7383 28.3901C73.7433 27.4826 71.7408 26.6576 69.4383 25.7876C68.3958 25.3901 67.2633 24.9026 66.5883 24.5426C65.9733 24.2201 65.2608 23.9051 65.0133 23.8451C64.6008 23.7326 63.4383 23.6951 62.8383 23.7776ZM97.6758 46.7201C97.4058 47.9876 97.2633 49.6226 96.9258 55.3001C96.5583 61.6976 96.5433 61.9826 96.4758 67.1126C96.4083 72.2126 96.3708 72.7751 96.0633 73.8251C95.9958 74.0501 95.8458 74.3351 95.7408 74.4476C95.4408 74.7701 94.5633 75.3626 93.1758 76.1876C91.6008 77.1176 89.2083 78.7001 87.7458 79.7726C85.5333 81.3926 83.9958 82.6976 77.9883 88.0376C75.8208 89.9651 72.6258 92.6876 71.2383 93.7826L70.7133 94.2026V91.0826C70.7058 87.6626 70.6383 86.6351 70.1133 82.0001C69.9633 80.7401 69.5583 77.1626 69.2133 74.0501C68.5308 67.9901 68.1108 64.5251 67.9308 63.5276C67.8258 62.9201 67.8258 62.9126 67.9908 62.8001C68.0808 62.7401 68.7258 62.2751 69.4308 61.7651C72.9258 59.2301 76.5183 57.0176 81.2133 54.5126C82.2033 53.9876 84.3558 52.8326 86.0058 51.9476C89.1558 50.2526 91.4658 49.0826 94.5633 47.6276C95.5983 47.1401 96.7383 46.5776 97.1133 46.3751C97.4808 46.1726 97.7958 46.0151 97.8033 46.0301C97.8183 46.0376 97.7583 46.3526 97.6758 46.7201Z" fill="#EF2469"/>
</svg>
