<svg width="209" height="6" viewBox="0 0 209 6" fill="none" xmlns="http://www.w3.org/2000/svg">
<path d="M182.084 0.0215421C181.994 0.0441875 165.977 0.0724945 146.465 0.078156C102.422 0.106463 94.2006 0.163077 55.8931 0.729219C40.8613 0.955676 33.8047 1.05192 28.2266 1.12552C21.5284 1.21044 9.70008 1.39727 6.69821 1.4652C2.64344 1.55579 0 1.80489 0 2.11061C0 2.30875 1.0753 2.64844 1.72496 2.6541C1.85937 2.6541 2.26261 2.68241 2.62104 2.72204C2.95707 2.76167 3.49472 2.79564 3.80835 2.79564C4.12197 2.8013 5.89174 2.93717 7.7287 3.09569C17.272 3.9166 33.0878 4.3129 63.5098 4.49406C69.5807 4.52803 79.3256 4.60163 90.6162 4.69221C99.8683 4.77147 116.401 4.98661 129.148 5.20174C170.972 5.90376 177.514 5.99434 186.609 6C191.246 6 192.097 5.98868 193.666 5.88111C195.771 5.74524 199.221 5.33195 201.663 4.91867C204.934 4.37517 208.339 3.43538 208.339 3.07871C208.339 3.03908 208.496 2.93151 208.675 2.84659C209.123 2.63146 209.101 2.12759 208.653 1.88415C207.98 1.52748 206.256 1.20478 202.447 0.73488C196.533 -0.00110388 197.048 0.0272031 189.073 0.00455761C185.31 -0.00676537 182.173 0.00455761 182.084 0.0215421Z" fill="#4243DC" fill-opacity="0.5"/>
</svg>
