<svg width="50" height="55" viewBox="0 0 50 55" fill="none" xmlns="http://www.w3.org/2000/svg">
<path d="M35.2293 0.578682C35.208 0.594681 35.0693 0.626678 34.9093 0.653347C34.5893 0.70668 33.976 0.845348 33.848 0.893349C33.688 0.952015 33.5867 1.30401 33.5333 1.98668C33.5067 2.35468 33.4587 2.94135 33.4267 3.29335C33.272 5.12268 33.096 9.21335 33.0693 11.752L33.0373 14.4507L31.9653 14.488C29.1493 14.584 25.928 14.7387 21.3733 15C18.5627 15.1653 15.6453 15.3147 15.6293 15.2987C15.6187 15.288 15.2293 12.3493 15.0853 11.16C14.888 9.56535 14.4987 5.50135 14.44 4.44001C14.3547 2.84002 14.248 2.06668 14.0293 1.47468C13.8533 1.01068 13.3467 0.856014 12.7653 1.10135C12.6587 1.14401 12.552 1.23468 12.5253 1.30401C12.4987 1.37335 12.4613 1.75201 12.4453 2.14668C12.4027 2.90401 12.376 3.17601 12.2 4.46668C12.0827 5.31468 11.816 9.11201 11.72 11.2133C11.6933 11.9013 11.6667 13.128 11.6667 13.9387V15.4107L8.48265 15.4427C3.60799 15.496 2.09865 15.64 1.85865 16.072C1.78932 16.2 1.79465 16.2373 1.94932 16.5573C2.22132 17.128 2.31732 17.1653 3.53332 17.2347C4.09332 17.2667 5.14932 17.32 5.87999 17.3467C6.61599 17.3787 7.45332 17.416 7.74665 17.4267C8.32265 17.4587 11.2133 17.56 11.4853 17.56H11.6507L11.6827 20.4773C11.72 23.5173 11.752 24.5413 11.9333 28.2C12.0773 31.1387 12.1467 33.048 12.1467 34.024V34.84H11.896C11.6133 34.84 9.11199 34.984 8.59999 35.0267C6.62665 35.192 4.49865 35.4854 3.53332 35.7147C2.46132 35.9707 1.72532 36.1787 1.51732 36.2907C1.05865 36.5254 0.514654 37.2614 0.434654 37.7627C0.402654 37.9547 0.42932 38.0454 0.594654 38.3867C0.70132 38.6054 0.866654 38.872 0.95732 38.9734C1.23465 39.2934 2.13599 39.9387 2.67999 40.2054C3.13865 40.4347 3.23465 40.4614 3.62932 40.4827C3.86932 40.4934 4.69065 40.4507 5.45332 40.392C7.28799 40.248 12.088 39.992 12.1307 40.0347C12.1413 40.04 12.168 40.888 12.2 41.912C12.2907 44.9787 12.3707 45.784 12.6853 46.8454C12.968 47.8 13.3093 48.568 13.9973 49.8267C14.7013 51.096 14.84 51.2774 15.4373 51.656C15.5547 51.7307 15.96 51.5067 16.1627 51.256C16.4667 50.8827 17.1813 49.4267 17.5067 48.5147C17.8053 47.672 18.072 46.6374 18.168 45.96C18.2533 45.3947 18.2373 43.6614 18.136 41.6827C18.088 40.7067 18.0613 39.8907 18.0773 39.8747C18.0987 39.8587 18.8027 39.8214 19.6507 39.7947C22.0293 39.7254 24.2373 39.6454 28.04 39.5067C29.96 39.4374 32.0187 39.3627 32.6107 39.3414L33.6827 39.304L33.7147 39.6987C33.7627 40.3067 33.896 42.5254 33.9867 44.3334C34.104 46.5947 34.2427 47.4747 34.744 49.08C35.1493 50.3867 35.672 51.6134 36.3707 52.8774C36.712 53.5014 36.856 53.704 37.0427 53.8534C37.304 54.056 37.432 54.0614 37.704 53.8694C38.2427 53.496 39.2773 51.1174 39.7627 49.1334C40.216 47.304 40.296 46.4134 40.1733 44.7067C40.088 43.5814 39.6827 39.384 39.64 39.176C39.608 39.048 39.512 39.064 41.24 38.9467C43.4747 38.7974 48.3813 38.3014 48.6427 38.2054C48.7333 38.168 48.8133 38.0507 48.9147 37.8054C49.1387 37.2347 49.112 37.1654 48.5787 36.8934C48.1147 36.664 47.2827 36.5094 45.1867 36.2854C44.104 36.1627 42.3387 35.976 41.2773 35.8587C40.2107 35.7414 39.3253 35.64 39.3147 35.624C39.2827 35.592 38.8133 30.8187 38.36 25.9067C38.1413 23.528 37.8853 20.7654 37.7947 19.7627C37.6987 18.7547 37.6347 17.9227 37.6507 17.9067C37.6667 17.8907 38.792 17.928 40.152 17.9867C43.656 18.1413 44.0773 18.1413 44.8507 17.9653C46.4453 17.6027 48.3813 16.8027 48.696 16.376C48.84 16.184 48.7813 15.9173 48.5573 15.6933C48.3493 15.4853 47.16 14.8933 46.5733 14.7067C46.3387 14.632 45.9173 14.5093 45.64 14.44C44.6373 14.184 44.4293 14.1787 40.76 14.248C38.888 14.28 37.352 14.3013 37.3413 14.2907C37.2987 14.248 37.0533 9.82135 37 8.22668C36.904 5.05868 36.7813 2.78668 36.6747 2.04535C36.568 1.29868 36.3813 0.962681 36.024 0.856014C35.9013 0.81868 35.7893 0.776012 35.7733 0.760014C35.6453 0.600014 35.3147 0.493347 35.2293 0.578682ZM26.7333 17.6133C28.4667 17.64 30.5947 17.6773 31.464 17.6987L33.048 17.736L33.0747 17.8747C33.0907 17.9493 33.128 20.616 33.16 23.8C33.192 26.984 33.24 30.1733 33.2667 30.8933C33.3467 32.856 33.4267 34.52 33.4533 34.776L33.48 35.0054L33.304 34.9734C33.0053 34.92 30.248 34.7387 28.7333 34.6694C27.8 34.6267 25.528 34.6054 22.4773 34.6054L17.6933 34.6107L17.672 34.4987C17.656 34.4347 17.5867 33.7147 17.5067 32.8934C17.432 32.072 17.224 30.1413 17.048 28.6C16.8773 27.0587 16.6107 24.6107 16.4667 23.16C16.1467 20.0027 15.944 18.088 15.9067 17.816L15.88 17.6133L17.464 17.5973C21.416 17.5653 23.8107 17.5653 26.7333 17.6133Z" fill="#4243DC"/>
</svg>
