<svg width="134" height="10" viewBox="0 0 134 10" fill="none" xmlns="http://www.w3.org/2000/svg">
<path d="M116.214 0.0468397C116.157 0.0819912 105.989 0.125931 93.6026 0.134719C65.6445 0.178658 60.4255 0.266538 36.1079 1.14533C26.5657 1.49685 22.0862 1.64624 18.5452 1.76049C14.2932 1.89231 6.78457 2.18231 4.87898 2.28776C2.30501 2.42837 0.626953 2.81504 0.626953 3.28959C0.626953 3.59717 1.30955 4.12444 1.72196 4.13323C1.80728 4.13323 2.06326 4.17717 2.29079 4.23869C2.5041 4.3002 2.8454 4.35293 3.04449 4.35293C3.24358 4.36172 4.36703 4.57263 5.53313 4.81869C11.5912 6.09294 21.6311 6.7081 40.943 6.98931C44.7968 7.04204 50.9829 7.15628 58.1502 7.29689C64.0233 7.41992 74.5183 7.75386 82.61 8.0878C109.16 9.17751 113.313 9.31812 119.086 9.3269C122.03 9.3269 122.57 9.30933 123.566 9.14236C124.903 8.93145 127.093 8.28993 128.643 7.64841C130.719 6.80477 132.881 5.34597 132.881 4.79233C132.881 4.73081 132.98 4.56384 133.094 4.43202C133.378 4.09808 133.364 3.31595 133.08 2.93807C132.653 2.38443 131.558 1.88352 129.14 1.15412C125.386 0.0116873 125.713 0.0556269 120.651 0.0204754C118.262 0.00290012 116.271 0.0204754 116.214 0.0468397Z" fill="#4243DC"/>
</svg>
