<svg width="120" height="33" viewBox="0 0 120 33" fill="none" xmlns="http://www.w3.org/2000/svg">
<path d="M2.688 14.848C2.976 14.3467 3.40267 13.9307 3.968 13.6C4.544 13.2587 5.21067 13.088 5.968 13.088C6.74667 13.088 7.45067 13.2747 8.08 13.648C8.72 14.0213 9.22133 14.5493 9.584 15.232C9.94667 15.904 10.128 16.688 10.128 17.584C10.128 18.4693 9.94667 19.2587 9.584 19.952C9.22133 20.6453 8.72 21.184 8.08 21.568C7.45067 21.952 6.74667 22.144 5.968 22.144C5.22133 22.144 4.56 21.9787 3.984 21.648C3.41867 21.3067 2.98667 20.8853 2.688 20.384V26.16H1.232V13.232H2.688V14.848ZM8.64 17.584C8.64 16.9227 8.50667 16.3467 8.24 15.856C7.97333 15.3653 7.61067 14.992 7.152 14.736C6.704 14.48 6.208 14.352 5.664 14.352C5.13067 14.352 4.63467 14.4853 4.176 14.752C3.728 15.008 3.36533 15.3867 3.088 15.888C2.82133 16.3787 2.688 16.9493 2.688 17.6C2.688 18.2613 2.82133 18.8427 3.088 19.344C3.36533 19.8347 3.728 20.2133 4.176 20.48C4.63467 20.736 5.13067 20.864 5.664 20.864C6.208 20.864 6.704 20.736 7.152 20.48C7.61067 20.2133 7.97333 19.8347 8.24 19.344C8.50667 18.8427 8.64 18.256 8.64 17.584ZM13.5005 14.656C13.7565 14.1547 14.1192 13.7653 14.5885 13.488C15.0685 13.2107 15.6498 13.072 16.3325 13.072V14.576H15.9485C14.3165 14.576 13.5005 15.4613 13.5005 17.232V22H12.0445V13.232H13.5005V14.656ZM26.0133 17.28C26.0133 17.5573 25.9973 17.8507 25.9653 18.16H18.9573C19.0106 19.024 19.3039 19.7013 19.8373 20.192C20.3813 20.672 21.0373 20.912 21.8053 20.912C22.4346 20.912 22.9573 20.768 23.3733 20.48C23.7999 20.1813 24.0986 19.7867 24.2693 19.296H25.8373C25.6026 20.1387 25.1333 20.8267 24.4293 21.36C23.7253 21.8827 22.8506 22.144 21.8053 22.144C20.9733 22.144 20.2266 21.9573 19.5653 21.584C18.9146 21.2107 18.4026 20.6827 18.0293 20C17.6559 19.3067 17.4693 18.5067 17.4693 17.6C17.4693 16.6933 17.6506 15.8987 18.0133 15.216C18.3759 14.5333 18.8826 14.0107 19.5333 13.648C20.1946 13.2747 20.9519 13.088 21.8053 13.088C22.6373 13.088 23.3733 13.2693 24.0133 13.632C24.6533 13.9947 25.1439 14.496 25.4853 15.136C25.8373 15.7653 26.0133 16.48 26.0133 17.28ZM24.5093 16.976C24.5093 16.4213 24.3866 15.9467 24.1413 15.552C23.8959 15.1467 23.5599 14.8427 23.1333 14.64C22.7173 14.4267 22.2533 14.32 21.7413 14.32C21.0053 14.32 20.3759 14.5547 19.8533 15.024C19.3413 15.4933 19.0479 16.144 18.9733 16.976H24.5093ZM31.0391 22.144C30.3671 22.144 29.7645 22.032 29.2311 21.808C28.6978 21.5733 28.2765 21.2533 27.9671 20.848C27.6578 20.432 27.4871 19.9573 27.4551 19.424H28.9591C29.0018 19.8613 29.2045 20.2187 29.5671 20.496C29.9405 20.7733 30.4258 20.912 31.0231 20.912C31.5778 20.912 32.0151 20.7893 32.3351 20.544C32.6551 20.2987 32.8151 19.9893 32.8151 19.616C32.8151 19.232 32.6445 18.9493 32.3031 18.768C31.9618 18.576 31.4338 18.3893 30.7191 18.208C30.0685 18.0373 29.5351 17.8667 29.1191 17.696C28.7138 17.5147 28.3618 17.2533 28.0631 16.912C27.7751 16.56 27.6311 16.1013 27.6311 15.536C27.6311 15.088 27.7645 14.6773 28.0311 14.304C28.2978 13.9307 28.6765 13.6373 29.1671 13.424C29.6578 13.2 30.2178 13.088 30.8471 13.088C31.8178 13.088 32.6018 13.3333 33.1991 13.824C33.7965 14.3147 34.1165 14.9867 34.1591 15.84H32.7031C32.6711 15.3813 32.4845 15.0133 32.1431 14.736C31.8125 14.4587 31.3645 14.32 30.7991 14.32C30.2765 14.32 29.8605 14.432 29.5511 14.656C29.2418 14.88 29.0871 15.1733 29.0871 15.536C29.0871 15.824 29.1778 16.064 29.3591 16.256C29.5511 16.4373 29.7858 16.5867 30.0631 16.704C30.3511 16.8107 30.7458 16.9333 31.2471 17.072C31.8765 17.2427 32.3885 17.4133 32.7831 17.584C33.1778 17.744 33.5138 17.9893 33.7911 18.32C34.0791 18.6507 34.2285 19.0827 34.2391 19.616C34.2391 20.096 34.1058 20.528 33.8391 20.912C33.5725 21.296 33.1938 21.6 32.7031 21.824C32.2231 22.0373 31.6685 22.144 31.0391 22.144ZM39.3985 22.144C38.7265 22.144 38.1238 22.032 37.5905 21.808C37.0572 21.5733 36.6358 21.2533 36.3265 20.848C36.0172 20.432 35.8465 19.9573 35.8145 19.424H37.3185C37.3612 19.8613 37.5638 20.2187 37.9265 20.496C38.2998 20.7733 38.7852 20.912 39.3825 20.912C39.9372 20.912 40.3745 20.7893 40.6945 20.544C41.0145 20.2987 41.1745 19.9893 41.1745 19.616C41.1745 19.232 41.0038 18.9493 40.6625 18.768C40.3212 18.576 39.7932 18.3893 39.0785 18.208C38.4278 18.0373 37.8945 17.8667 37.4785 17.696C37.0732 17.5147 36.7212 17.2533 36.4225 16.912C36.1345 16.56 35.9905 16.1013 35.9905 15.536C35.9905 15.088 36.1238 14.6773 36.3905 14.304C36.6572 13.9307 37.0358 13.6373 37.5265 13.424C38.0172 13.2 38.5772 13.088 39.2065 13.088C40.1772 13.088 40.9612 13.3333 41.5585 13.824C42.1558 14.3147 42.4758 14.9867 42.5185 15.84H41.0625C41.0305 15.3813 40.8438 15.0133 40.5025 14.736C40.1718 14.4587 39.7238 14.32 39.1585 14.32C38.6358 14.32 38.2198 14.432 37.9105 14.656C37.6012 14.88 37.4465 15.1733 37.4465 15.536C37.4465 15.824 37.5372 16.064 37.7185 16.256C37.9105 16.4373 38.1452 16.5867 38.4225 16.704C38.7105 16.8107 39.1052 16.9333 39.6065 17.072C40.2358 17.2427 40.7478 17.4133 41.1425 17.584C41.5372 17.744 41.8732 17.9893 42.1505 18.32C42.4385 18.6507 42.5878 19.0827 42.5985 19.616C42.5985 20.096 42.4652 20.528 42.1985 20.912C41.9318 21.296 41.5532 21.6 41.0625 21.824C40.5825 22.0373 40.0278 22.144 39.3985 22.144Z" fill="white"/>
<path d="M79.418 8.556V11.57H73.126V14.826H77.834V17.752H73.126V24H69.364V8.556H79.418ZM85.1573 7.72V24H81.3953V7.72H85.1573ZM93.4715 24.176C92.2689 24.176 91.1835 23.9193 90.2155 23.406C89.2622 22.8927 88.5069 22.1593 87.9495 21.206C87.4069 20.2527 87.1355 19.138 87.1355 17.862C87.1355 16.6007 87.4142 15.4933 87.9715 14.54C88.5289 13.572 89.2915 12.8313 90.2595 12.318C91.2275 11.8047 92.3129 11.548 93.5155 11.548C94.7182 11.548 95.8035 11.8047 96.7715 12.318C97.7395 12.8313 98.5022 13.572 99.0595 14.54C99.6169 15.4933 99.8955 16.6007 99.8955 17.862C99.8955 19.1233 99.6095 20.238 99.0375 21.206C98.4802 22.1593 97.7102 22.8927 96.7275 23.406C95.7595 23.9193 94.6742 24.176 93.4715 24.176ZM93.4715 20.92C94.1902 20.92 94.7989 20.656 95.2975 20.128C95.8109 19.6 96.0675 18.8447 96.0675 17.862C96.0675 16.8793 95.8182 16.124 95.3195 15.596C94.8355 15.068 94.2342 14.804 93.5155 14.804C92.7822 14.804 92.1735 15.068 91.6895 15.596C91.2055 16.1093 90.9635 16.8647 90.9635 17.862C90.9635 18.8447 91.1982 19.6 91.6675 20.128C92.1515 20.656 92.7529 20.92 93.4715 20.92ZM119.513 11.724L116.191 24H112.033L110.097 16.036L108.095 24H103.959L100.615 11.724H104.377L106.115 20.502L108.183 11.724H112.165L114.255 20.458L115.971 11.724H119.513Z" fill="white"/>
<path d="M48.6521 8.39001C48.5788 8.41001 48.5338 8.45168 48.5338 8.50001C48.5338 8.59501 48.7988 8.98668 49.2504 9.55834C49.3671 9.70501 49.7071 10.155 50.0088 10.5583C50.6171 11.375 50.6871 11.465 51.2054 12.115C51.7054 12.74 52.1238 13.2867 52.8154 14.2167C53.7188 15.43 53.8404 15.5883 54.1954 16.02C54.2988 16.145 54.3838 16.255 54.3838 16.2633C54.3838 16.2717 54.3654 16.2917 54.3438 16.305C54.3221 16.32 54.2721 16.36 54.2304 16.395C54.1888 16.43 54.0804 16.5183 53.9904 16.5917C53.9004 16.665 53.6721 16.8533 53.4838 17.01C53.1304 17.3033 52.7671 17.5967 52.4338 17.8583C52.0888 18.1283 51.5621 18.5533 51.4004 18.69C50.6871 19.2983 49.7654 20.205 49.4054 20.6533C48.9238 21.2517 48.3321 22.3517 48.1521 22.9833C48.0738 23.2567 48.0604 23.355 48.0921 23.4167C48.1088 23.45 48.1304 23.4667 48.1554 23.4667C48.2054 23.4667 48.5154 23.315 48.7971 23.1517C49.1121 22.9683 49.5671 22.6667 49.9004 22.4183C50.1488 22.2333 50.2254 22.1617 50.6904 21.685C50.9754 21.395 51.7138 20.6517 52.3338 20.0333C53.4788 18.8917 53.8721 18.4833 54.1638 18.1383C54.5988 17.6217 54.7354 17.4533 54.9354 17.1933C55.0821 17 55.1738 16.8983 55.2238 16.8667C55.2871 16.8267 55.3088 16.7933 55.3904 16.63C55.4421 16.5267 55.4838 16.42 55.4838 16.3933C55.4838 16.3683 55.5021 16.325 55.5254 16.2983C55.5471 16.2717 55.5704 16.2217 55.5771 16.1867C55.5821 16.1533 55.5971 16.0883 55.6104 16.0433C55.6388 15.94 55.6388 15.7617 55.6104 15.68C55.5788 15.59 55.5088 15.5083 55.1754 15.1667C54.8421 14.825 54.4388 14.3883 54.1504 14.0583C53.8704 13.7383 52.8471 12.585 52.7238 12.45C52.6871 12.4083 52.6088 12.3217 52.5504 12.2583C52.4571 12.1567 52.2488 11.9333 51.8404 11.5C51.7754 11.4317 51.7004 11.3517 51.6771 11.325C51.6521 11.2967 51.5888 11.23 51.5354 11.175C51.4021 11.0333 51.0621 10.6533 50.8004 10.35C50.3021 9.77501 50.0271 9.47834 49.5271 8.97668C49.2171 8.66501 48.9721 8.43334 48.9271 8.40834C48.8454 8.36334 48.7738 8.35834 48.6521 8.39001Z" fill="#AFAFFA"/>
<path d="M55.259 8.37832C55.184 8.39499 55.1373 8.42166 55.129 8.45166C55.089 8.60166 55.449 9.07499 56.194 9.84999C57.1606 10.8567 57.749 11.5217 58.6673 12.6417C59.5523 13.7217 60.0373 14.28 60.684 14.965C61.2273 15.54 61.6923 16.0567 61.6923 16.0833C61.6923 16.0917 61.5356 16.2083 61.3423 16.3433C60.5873 16.8733 60.1223 17.2533 59.4673 17.8733C59.0956 18.225 57.9306 19.405 57.5673 19.8C57.0823 20.3233 56.904 20.5117 56.3173 21.1083C55.8273 21.6067 55.7356 21.7233 55.5673 22.075C55.2023 22.83 55.114 23.495 55.3456 23.7383C55.3823 23.775 55.4056 23.7833 55.469 23.7833C55.7123 23.7833 56.3223 23.5433 56.6756 23.3083C56.839 23.2 57.0606 22.9733 57.3856 22.5833C57.7406 22.1583 57.9873 21.8317 58.589 20.9917C59.5756 19.6133 60.1573 18.8667 60.8056 18.1417C60.979 17.95 61.0956 17.825 61.559 17.3417C61.9573 16.925 62.0956 16.7767 62.214 16.6383C62.264 16.5833 62.3206 16.5317 62.3423 16.5267C62.4206 16.5067 62.4856 16.4283 62.569 16.26C62.614 16.1667 62.6506 16.0767 62.6506 16.06C62.6506 16.0433 62.6656 16.005 62.6823 15.9767C62.764 15.8417 62.8123 15.47 62.764 15.3317C62.7206 15.2 62.4906 14.9683 61.8923 14.45C61.7273 14.3083 61.4756 14.0867 61.334 13.96C61.0806 13.7317 60.244 12.905 59.999 12.6417C59.8856 12.5183 59.619 12.2333 59.2673 11.8583C59.034 11.6083 58.7606 11.3283 58.3923 10.9583C57.5623 10.1267 57.0823 9.68832 56.4006 9.14166C56.0023 8.82166 55.7306 8.59666 55.6206 8.49832C55.574 8.45499 55.5106 8.40666 55.4806 8.39332C55.4323 8.36833 55.334 8.36166 55.259 8.37832Z" fill="#AFAFFA"/>
</svg>
