<svg width="52" height="52" viewBox="0 0 52 52" fill="none" xmlns="http://www.w3.org/2000/svg">
<path d="M46.1138 0.898712C46.0978 0.930714 46.1778 1.15471 46.3005 1.39471C46.4818 1.75205 46.5298 1.91205 46.5778 2.32272C46.6098 2.60005 46.6258 2.82938 46.6151 2.84005C46.6045 2.85072 46.3805 2.81338 46.1191 2.76005C45.3511 2.60005 44.6525 2.50938 42.4125 2.28005C38.5405 1.87471 37.5485 1.80005 34.6525 1.68805C31.8845 1.58138 22.9725 1.70405 21.3725 1.87471C19.3191 2.09338 17.4898 2.57338 16.9405 3.04272C16.7325 3.21872 16.4658 3.71472 16.3591 4.12005C16.3165 4.29605 16.2045 4.97338 16.1191 5.63472C16.0285 6.30139 15.8738 7.29339 15.7725 7.85339C15.3618 10.1147 15.0098 12.4881 14.8711 13.9334C14.7965 14.6907 14.3965 19.4961 14.2525 21.3467C14.1351 22.8667 14.0925 23.9014 14.0391 26.2268C14.0071 27.5601 13.9431 29.2188 13.8951 29.9068C13.7351 32.1414 13.7831 33.0481 14.0925 33.9868C14.2311 34.3974 14.9191 35.6561 15.2178 36.0401C15.5805 36.5094 16.4445 37.1921 17.0418 37.4748C18.0231 37.9388 18.6791 38.0294 22.5191 38.2268C23.1218 38.2588 24.6685 38.3654 25.9591 38.4668C30.9031 38.8508 32.3058 38.9201 35.1911 38.9201C39.2125 38.9201 43.1965 38.6481 45.2925 38.2268C46.9725 37.8908 47.8951 37.4001 48.4871 36.5254C48.7218 36.1841 49.3725 34.8668 49.4311 34.6268C49.4525 34.5361 49.5005 34.4028 49.5431 34.3174C49.6605 34.0828 49.9751 32.7708 50.0658 32.1574C50.1085 31.8428 50.1938 30.8774 50.2525 30.0134C50.3165 29.1494 50.4711 27.5014 50.5991 26.3601C51.0151 22.7067 51.0738 21.6934 51.1591 17.3467C51.1858 15.7894 51.2391 13.7254 51.2765 12.7601C51.3671 10.4134 51.3671 7.10139 51.2765 6.44006C51.1165 5.27205 50.9245 4.70139 50.4018 3.83738C49.3031 2.01338 47.7565 0.840046 46.4551 0.840046C46.2898 0.840046 46.1351 0.866711 46.1138 0.898712ZM41.9058 4.07205C43.7245 4.08805 45.5058 4.12005 45.8685 4.15205C46.2311 4.17872 46.5565 4.20005 46.5938 4.20005C46.6471 4.20005 46.6738 4.39205 46.6951 4.95739C46.7165 5.37872 46.7751 6.01872 46.8231 6.38672C46.9031 6.95739 46.9191 7.43206 46.9138 9.66673C46.8978 14.4561 46.7911 23.0961 46.7325 23.7734C46.7005 24.1414 46.5938 25.2881 46.4925 26.3281C46.3858 27.3628 46.2525 28.8668 46.1991 29.6614C45.9911 32.5201 45.8845 33.0001 45.3298 33.4428C44.7218 33.9388 44.3858 34.0134 41.1805 34.3814C35.3458 35.0534 33.6071 35.0961 25.1858 34.7601C19.7725 34.5468 19.0045 34.4934 18.1618 34.2748C17.4845 34.1041 17.1485 33.7361 16.9938 33.0001C16.9191 32.6481 16.9138 32.4561 16.9725 31.3734C17.0098 30.6961 17.0471 28.8614 17.0525 27.2934C17.0631 25.2028 17.1005 23.9281 17.1805 22.5201C17.2445 21.4641 17.3191 19.4961 17.3458 18.1467C17.4525 13.2507 17.4951 12.5361 17.9058 8.73872C18.0125 7.76806 18.1885 5.53339 18.1991 5.06939C18.2045 4.73338 20.1351 4.49872 24.0391 4.36005C24.8925 4.32805 26.7165 4.25338 28.0925 4.19472C33.0578 3.97605 32.4018 3.98138 41.9058 4.07205Z" fill="#4243DC"/>
<path d="M7.31928 12.664C6.08728 12.792 4.92995 13.0693 4.25261 13.4C2.92461 14.04 2.17261 15.32 1.75128 17.64C1.51661 18.92 1.44195 20.0133 1.05261 27.5067C0.689947 34.5147 0.876614 40.392 1.58595 44.28C1.77795 45.3413 2.00195 46.0613 2.32728 46.68C3.11661 48.168 3.26061 48.3813 3.63928 48.6533C3.76195 48.7387 3.96995 48.904 4.10328 49.016C4.60995 49.4373 5.18595 49.6133 6.51928 49.7467C7.73528 49.864 8.54595 49.9707 10.0393 50.2053C15.6553 51.0853 18.8286 51.4 25.9059 51.784C27.4633 51.8693 32.6953 51.864 33.8366 51.7787C35.5753 51.6507 36.9459 51.1013 37.6233 50.2587C38.1566 49.5973 38.8979 47.88 39.2766 46.424C39.4259 45.8427 39.4473 45.6773 39.4686 44.84C39.4899 43.784 39.4046 42.9413 39.1859 42.104C38.9673 41.2507 38.5139 40.3067 38.1779 39.992C38.0286 39.848 37.8046 39.8693 37.7566 40.024C37.6446 40.408 36.9939 42.1893 36.5246 43.4053C36.1673 44.3493 35.8899 45.1707 35.7513 45.7093C35.6339 46.168 35.4739 46.6907 35.3939 46.8667C35.2179 47.256 34.7913 47.672 34.3326 47.9067C34.0446 48.0507 33.9539 48.0667 33.2179 48.1093C32.0819 48.1733 30.0713 48.12 27.7993 47.9653C25.2819 47.7893 23.3406 47.6827 21.4793 47.6133C16.5833 47.432 13.9166 47.1867 9.95928 46.5413C7.76728 46.1893 6.62061 45.976 6.19395 45.848C5.75128 45.72 5.52195 45.4853 5.23395 44.872C4.72195 43.768 4.40195 42.2427 4.22595 40.0133C4.06595 37.9547 4.00195 31.9227 4.11395 28.9733C4.23128 25.88 4.27928 24.3067 4.33261 21.6667C4.39128 18.8347 4.43395 18.0613 4.57795 17.08L4.66861 16.4987L4.95128 16.2107C5.73528 15.432 7.05261 15.2293 10.6793 15.336C12.4819 15.3893 13.5646 15.3467 13.8099 15.224C13.9646 15.144 14.3326 14.5413 14.2686 14.472C14.2526 14.456 14.2793 14.376 14.3326 14.296C14.3966 14.2053 14.4393 14.0133 14.4553 13.768C14.4766 13.416 14.4713 13.384 14.3539 13.2987C14.2846 13.2507 14.1939 13.2133 14.1513 13.2133C14.1086 13.2133 14.0339 13.176 13.9806 13.128C13.9166 13.0693 13.7139 13.0213 13.3886 12.9893C13.1166 12.9627 12.4393 12.8987 11.8793 12.84C10.0659 12.6533 8.14061 12.5787 7.31928 12.664Z" fill="#4243DC"/>
</svg>
